#N canvas 324 236 326 390 10;
#X declare -lib mrpeach;
#X obj 20 20 cnv 15 130 100 empty empty 1_MIDI_SETUP 20 12 0 14 -257985
-66577 0;
#N canvas 77 54 1348 699 midiSetup 0;
#X obj 17 143 cnv 15 1300 230 empty empty Controller 20 12 0 14 -261682
-66577 0;
#X obj 17 391 cnv 15 1300 200 empty empty empty 20 12 0 14 -204786
-66577 0;
#X obj 102 184 loadbang;
#X obj 48 186 bng 15 250 50 0 empty empty empty 17 7 0 10 -262144 -1
-1;
#X obj 439 237 s FADE_R;
#X obj 509 237 s FADE_G;
#X msg 439 201 1;
#X msg 509 201 2;
#X msg 579 201 3;
#X obj 579 237 s FADE_B;
#X obj 649 237 s THRESHOLD;
#X msg 649 201 6;
#X obj 729 237 s SLIDER_GEN_A;
#X msg 729 201 11;
#X msg 829 201 12;
#X obj 829 237 s SLIDER_GEN_B;
#X obj 929 237 s SLIDER_FX_A;
#X obj 1029 237 s SLIDER_FX_B;
#X msg 929 201 13;
#X msg 1029 201 14;
#X obj 1119 237 s SLIDER_MIX;
#X msg 1119 201 15;
#X msg 1209 201 16;
#X obj 1209 237 s SLIDER_SELECT;
#X obj 250 437 s BUTTON_RANDOM;
#X msg 250 401 39;
#X msg 349 201 5;
#X obj 349 237 s FADER_ROTOZ;
#X msg 69 401 37;
#X msg 159 401 38;
#X obj 69 437 s BUTTON_RON;
#X obj 159 437 s BUTTON_ROFF;
#X msg 356 400 48;
#X msg 456 400 49;
#X msg 556 400 50;
#X obj 356 436 s BUTTON_OUTP1;
#X obj 456 435 s BUTTON_OUTP2;
#X obj 556 436 s BUTTON_OUTP3;
#X msg 656 400 44;
#X msg 756 400 45;
#X msg 856 400 46;
#X obj 656 436 s BUTTON_OUT1A;
#X obj 756 436 s BUTTON_OUT1B;
#X obj 856 436 s BUTTON_OUT1C;
#X msg 956 400 40;
#X msg 1056 400 41;
#X msg 1156 400 42;
#X obj 956 436 s BUTTON_OUT2A;
#X obj 1056 436 s BUTTON_OUT2B;
#X obj 1156 436 s BUTTON_OUT2C;
#X obj 1150 288 ctlin;
#X floatatom 1163 325 5 0 0 0 - - -;
#X text 1203 286 Controller input;
#X obj 1228 475 notein;
#X floatatom 1228 509 5 0 0 0 - - -;
#X text 314 84 define your midi setup here;
#X connect 2 0 26 0;
#X connect 2 0 6 0;
#X connect 2 0 7 0;
#X connect 2 0 8 0;
#X connect 2 0 11 0;
#X connect 2 0 14 0;
#X connect 2 0 13 0;
#X connect 2 0 19 0;
#X connect 2 0 18 0;
#X connect 2 0 21 0;
#X connect 2 0 22 0;
#X connect 2 0 25 0;
#X connect 2 0 28 0;
#X connect 2 0 29 0;
#X connect 2 0 32 0;
#X connect 2 0 33 0;
#X connect 2 0 34 0;
#X connect 2 0 38 0;
#X connect 2 0 39 0;
#X connect 2 0 40 0;
#X connect 2 0 44 0;
#X connect 2 0 45 0;
#X connect 2 0 46 0;
#X connect 3 0 26 0;
#X connect 3 0 6 0;
#X connect 3 0 7 0;
#X connect 3 0 8 0;
#X connect 3 0 11 0;
#X connect 3 0 13 0;
#X connect 3 0 14 0;
#X connect 3 0 18 0;
#X connect 3 0 19 0;
#X connect 3 0 21 0;
#X connect 3 0 22 0;
#X connect 3 0 25 0;
#X connect 3 0 28 0;
#X connect 3 0 29 0;
#X connect 3 0 32 0;
#X connect 3 0 33 0;
#X connect 3 0 34 0;
#X connect 3 0 38 0;
#X connect 3 0 39 0;
#X connect 3 0 40 0;
#X connect 3 0 44 0;
#X connect 3 0 45 0;
#X connect 3 0 46 0;
#X connect 6 0 4 0;
#X connect 7 0 5 0;
#X connect 8 0 9 0;
#X connect 11 0 10 0;
#X connect 13 0 12 0;
#X connect 14 0 15 0;
#X connect 18 0 16 0;
#X connect 19 0 17 0;
#X connect 21 0 20 0;
#X connect 22 0 23 0;
#X connect 25 0 24 0;
#X connect 26 0 27 0;
#X connect 28 0 30 0;
#X connect 29 0 31 0;
#X connect 32 0 35 0;
#X connect 33 0 36 0;
#X connect 34 0 37 0;
#X connect 38 0 41 0;
#X connect 39 0 42 0;
#X connect 40 0 43 0;
#X connect 44 0 47 0;
#X connect 45 0 48 0;
#X connect 46 0 49 0;
#X connect 50 1 51 0;
#X connect 53 0 54 0;
#X restore 45 61 pd midiSetup;
#X obj 171 20 cnv 15 130 100 empty empty MIDI_WORK 20 12 0 14 -260097
-66577 0;
#N canvas 150 227 1440 852 midiWork 0;
#X obj 30 408 notein;
#X floatatom 30 442 5 0 0 0 - - -;
#X floatatom 46 472 5 0 0 0 - - -;
#X floatatom 63 502 5 0 0 0 - - -;
#X obj 53 20 ctlin;
#X floatatom 53 122 5 0 0 0 - - -;
#X floatatom 72 80 5 0 0 0 - - -;
#X floatatom 80 47 5 0 0 0 - - -;
#X obj 890 154 spigot;
#X obj 953 154 spigot;
#X obj 953 210 send r_tint_r;
#X obj 1054 153 spigot;
#X obj 1154 153 spigot;
#X obj 1054 209 send r_tint_g;
#X obj 1154 209 send r_tint_b;
#X obj 621 154 spigot;
#X obj 890 181 * 2;
#X obj 953 181 * 2;
#X obj 1054 181 * 2;
#X obj 1154 181 * 2;
#X obj 490 155 spigot;
#X obj 351 154 spigot;
#X obj 211 154 spigot;
#X obj 211 181 div 15;
#X obj 351 181 div 15;
#X obj 94 154 spigot;
#X floatatom 621 208 5 0 0 0 - - -;
#X obj 644 232 !=;
#X obj 621 254 spigot;
#X floatatom 211 208 5 0 0 0 - - -;
#X obj 234 232 !=;
#X obj 211 254 spigot;
#X floatatom 351 208 5 0 0 0 - - -;
#X obj 374 232 !=;
#X obj 351 254 spigot;
#X floatatom 490 209 5 0 0 0 - - -;
#X obj 513 233 !=;
#X obj 490 255 spigot;
#X floatatom 94 208 5 0 0 0 - - -;
#X obj 117 232 !=;
#X obj 94 254 spigot;
#X text 108 18 controller value // controller number // channel number
;
#X text 88 403 midi note // velocity // midi channel number;
#X obj 30 538 s midiNote;
#X obj 1001 55 r FADE_R;
#X obj 1071 55 r FADE_G;
#X obj 986 96 ==;
#X obj 1087 96 ==;
#X obj 1187 96 ==;
#X obj 1141 55 r FADE_B;
#X obj 894 55 r THRESHOLD;
#X obj 438 55 r SLIDER_GEN_A;
#X obj 619 55 r SLIDER_GEN_B;
#X obj 186 96 ==;
#X obj 274 96 ==;
#X obj 257 55 r SLIDER_FX_A;
#X obj 349 55 r SLIDER_FX_B;
#X obj 364 96 ==;
#X obj 453 96 ==;
#X obj 624 96 ==;
#X obj 171 55 r SLIDER_MIX;
#X obj 923 96 ==;
#X obj 94 181 div 13;
#X obj 490 182 div 8;
#X obj 621 181 div 8;
#X obj 731 154 spigot;
#X floatatom 731 208 5 0 0 0 - - -;
#X obj 754 232 !=;
#X obj 731 254 spigot;
#X obj 734 96 ==;
#X obj 729 55 r SLIDER_SELECT;
#X obj 731 181 div 28;
#X obj 219 427 r BUTTON_RANDOM;
#X obj 254 458 ==;
#X floatatom 254 491 5 0 0 0 - - -;
#X obj 126 488 >;
#X floatatom 159 472 5 0 0 0 - - -;
#X floatatom 192 505 5 0 0 0 - - -;
#X obj 254 521 &;
#X floatatom 254 551 5 0 0 0 - - -;
#X obj 254 579 moses 1;
#X obj 254 606 s r_rnd_do;
#X obj 1275 52 r FADER_ROTOZ;
#X obj 1274 153 spigot;
#X obj 1307 96 ==;
#X obj 1274 181 * 2;
#X obj 1274 205 - 127;
#X obj 323 428 r BUTTON_RON;
#X obj 413 428 r BUTTON_ROFF;
#X obj 336 458 ==;
#X floatatom 336 491 5 0 0 0 - - -;
#X obj 336 521 &;
#X floatatom 336 551 5 0 0 0 - - -;
#X obj 336 579 moses 1;
#X obj 436 458 ==;
#X floatatom 436 491 5 0 0 0 - - -;
#X obj 436 521 &;
#X floatatom 436 551 5 0 0 0 - - -;
#X obj 436 579 moses 1;
#X obj 336 606 s r_rnd_on;
#X obj 436 606 s r_rnd_off;
#X obj 536 458 ==;
#X floatatom 536 491 5 0 0 0 - - -;
#X obj 536 521 &;
#X floatatom 536 551 5 0 0 0 - - -;
#X obj 536 579 moses 1;
#X obj 512 428 r BUTTON_OUTP1;
#X obj 661 659 s r_outall;
#X obj 539 606 bng 15 250 50 0 empty empty empty 17 7 0 10 -262144
-1 -1;
#X msg 565 621 0;
#X obj 636 458 ==;
#X floatatom 636 491 5 0 0 0 - - -;
#X obj 636 521 &;
#X floatatom 636 551 5 0 0 0 - - -;
#X obj 636 579 moses 1;
#X obj 639 606 bng 15 250 50 0 empty empty empty 17 7 0 10 -262144
-1 -1;
#X obj 612 428 r BUTTON_OUTP2;
#X msg 665 621 1;
#X obj 736 458 ==;
#X floatatom 736 491 5 0 0 0 - - -;
#X obj 736 521 &;
#X floatatom 736 551 5 0 0 0 - - -;
#X obj 736 579 moses 1;
#X obj 739 606 bng 15 250 50 0 empty empty empty 17 7 0 10 -262144
-1 -1;
#X msg 765 621 2;
#X obj 712 428 r BUTTON_OUTP3;
#X obj 836 458 ==;
#X floatatom 836 491 5 0 0 0 - - -;
#X obj 836 521 &;
#X floatatom 836 551 5 0 0 0 - - -;
#X obj 836 579 moses 1;
#X obj 839 606 bng 15 250 50 0 empty empty empty 17 7 0 10 -262144
-1 -1;
#X obj 936 458 ==;
#X floatatom 936 491 5 0 0 0 - - -;
#X obj 936 521 &;
#X floatatom 936 551 5 0 0 0 - - -;
#X obj 936 579 moses 1;
#X obj 939 606 bng 15 250 50 0 empty empty empty 17 7 0 10 -262144
-1 -1;
#X obj 1036 458 ==;
#X floatatom 1036 491 5 0 0 0 - - -;
#X obj 1036 521 &;
#X floatatom 1036 551 5 0 0 0 - - -;
#X obj 1036 579 moses 1;
#X obj 1039 606 bng 15 250 50 0 empty empty empty 17 7 0 10 -262144
-1 -1;
#X obj 812 428 r BUTTON_OUT1A;
#X obj 912 428 r BUTTON_OUT1B;
#X obj 1012 428 r BUTTON_OUT1C;
#X obj 1136 458 ==;
#X floatatom 1136 491 5 0 0 0 - - -;
#X obj 1136 521 &;
#X floatatom 1136 551 5 0 0 0 - - -;
#X obj 1136 579 moses 1;
#X obj 1139 606 bng 15 250 50 0 empty empty empty 17 7 0 10 -262144
-1 -1;
#X obj 1236 458 ==;
#X floatatom 1236 491 5 0 0 0 - - -;
#X obj 1236 521 &;
#X floatatom 1236 551 5 0 0 0 - - -;
#X obj 1236 579 moses 1;
#X obj 1239 606 bng 15 250 50 0 empty empty empty 17 7 0 10 -262144
-1 -1;
#X obj 1336 458 ==;
#X floatatom 1336 491 5 0 0 0 - - -;
#X obj 1336 521 &;
#X floatatom 1336 551 5 0 0 0 - - -;
#X obj 1336 579 moses 1;
#X obj 1339 606 bng 15 250 50 0 empty empty empty 17 7 0 10 -262144
-1 -1;
#X obj 1112 428 r BUTTON_OUT2A;
#X obj 1214 428 r BUTTON_OUT2B;
#X obj 1312 428 r BUTTON_OUT2C;
#X msg 865 621 0;
#X msg 965 621 1;
#X msg 1065 621 2;
#X msg 1163 621 0;
#X msg 1263 621 1;
#X msg 1363 621 2;
#X obj 1259 659 s r_out2;
#X obj 961 659 s r_out1;
#X msg 34 284 send CHANGE_MIXER \$1;
#X obj 733 369 packOSC;
#X obj 733 391 s oscdata;
#X msg 478 309 send CHANGE_GENERATOR_A \$1;
#X msg 170 284 send CHANGE_EFFECT_A \$1;
#X msg 325 284 send CHANGE_EFFECT_B \$1;
#X msg 556 283 send CHANGE_GENERATOR_B \$1;
#X msg 705 309 send CURRENT_VISUAL \$1;
#X msg 1265 274 send CHANGE_ROTOZOOM \$1;
#X msg 812 253 send CHANGE_THRESHOLD_VALUE \$1;
#X connect 0 0 1 0;
#X connect 0 1 2 0;
#X connect 0 2 3 0;
#X connect 1 0 43 0;
#X connect 1 0 73 0;
#X connect 1 0 89 0;
#X connect 1 0 94 0;
#X connect 1 0 101 0;
#X connect 1 0 110 0;
#X connect 1 0 118 0;
#X connect 1 0 126 0;
#X connect 1 0 132 0;
#X connect 1 0 138 0;
#X connect 1 0 147 0;
#X connect 1 0 153 0;
#X connect 1 0 159 0;
#X connect 2 0 75 0;
#X connect 4 0 5 0;
#X connect 4 1 6 0;
#X connect 4 2 7 0;
#X connect 5 0 15 0;
#X connect 5 0 8 0;
#X connect 5 0 9 0;
#X connect 5 0 11 0;
#X connect 5 0 12 0;
#X connect 5 0 20 0;
#X connect 5 0 22 0;
#X connect 5 0 21 0;
#X connect 5 0 25 0;
#X connect 5 0 65 0;
#X connect 5 0 83 0;
#X connect 6 0 46 0;
#X connect 6 0 48 0;
#X connect 6 0 53 0;
#X connect 6 0 54 0;
#X connect 6 0 57 0;
#X connect 6 0 58 0;
#X connect 6 0 59 0;
#X connect 6 0 61 0;
#X connect 6 0 47 0;
#X connect 6 0 69 0;
#X connect 6 0 84 0;
#X connect 8 0 16 0;
#X connect 9 0 17 0;
#X connect 11 0 18 0;
#X connect 12 0 19 0;
#X connect 15 0 64 0;
#X connect 16 0 185 0;
#X connect 17 0 10 0;
#X connect 18 0 13 0;
#X connect 19 0 14 0;
#X connect 20 0 63 0;
#X connect 21 0 24 0;
#X connect 22 0 23 0;
#X connect 23 0 29 0;
#X connect 23 0 30 1;
#X connect 24 0 32 0;
#X connect 24 0 33 1;
#X connect 25 0 62 0;
#X connect 26 0 27 0;
#X connect 26 0 28 0;
#X connect 27 0 28 1;
#X connect 28 0 182 0;
#X connect 29 0 30 0;
#X connect 29 0 31 0;
#X connect 30 0 31 1;
#X connect 31 0 180 0;
#X connect 32 0 33 0;
#X connect 32 0 34 0;
#X connect 33 0 34 1;
#X connect 34 0 181 0;
#X connect 35 0 36 0;
#X connect 35 0 37 0;
#X connect 36 0 37 1;
#X connect 37 0 179 0;
#X connect 38 0 39 0;
#X connect 38 0 40 0;
#X connect 39 0 40 1;
#X connect 40 0 176 0;
#X connect 44 0 46 1;
#X connect 45 0 47 1;
#X connect 46 0 9 1;
#X connect 47 0 11 1;
#X connect 48 0 12 1;
#X connect 49 0 48 1;
#X connect 50 0 61 1;
#X connect 51 0 58 1;
#X connect 52 0 59 1;
#X connect 53 0 25 1;
#X connect 54 0 22 1;
#X connect 55 0 54 1;
#X connect 56 0 57 1;
#X connect 57 0 21 1;
#X connect 58 0 20 1;
#X connect 59 0 15 1;
#X connect 60 0 53 1;
#X connect 61 0 8 1;
#X connect 62 0 38 0;
#X connect 62 0 39 1;
#X connect 63 0 35 0;
#X connect 63 0 36 1;
#X connect 64 0 26 0;
#X connect 64 0 27 1;
#X connect 65 0 71 0;
#X connect 66 0 67 0;
#X connect 66 0 68 0;
#X connect 67 0 68 1;
#X connect 68 0 183 0;
#X connect 69 0 65 1;
#X connect 70 0 69 1;
#X connect 71 0 66 0;
#X connect 71 0 67 1;
#X connect 72 0 73 1;
#X connect 73 0 74 0;
#X connect 74 0 78 0;
#X connect 75 0 77 0;
#X connect 76 0 75 1;
#X connect 77 0 78 1;
#X connect 77 0 91 1;
#X connect 77 0 96 1;
#X connect 77 0 103 1;
#X connect 77 0 112 1;
#X connect 77 0 120 1;
#X connect 77 0 128 1;
#X connect 77 0 134 1;
#X connect 77 0 140 1;
#X connect 77 0 149 1;
#X connect 77 0 155 1;
#X connect 77 0 161 1;
#X connect 78 0 79 0;
#X connect 79 0 80 0;
#X connect 80 1 81 0;
#X connect 82 0 84 1;
#X connect 83 0 85 0;
#X connect 84 0 83 1;
#X connect 85 0 86 0;
#X connect 86 0 184 0;
#X connect 87 0 89 1;
#X connect 88 0 94 1;
#X connect 89 0 90 0;
#X connect 90 0 91 0;
#X connect 91 0 92 0;
#X connect 92 0 93 0;
#X connect 93 1 99 0;
#X connect 94 0 95 0;
#X connect 95 0 96 0;
#X connect 96 0 97 0;
#X connect 97 0 98 0;
#X connect 98 1 100 0;
#X connect 101 0 102 0;
#X connect 102 0 103 0;
#X connect 103 0 104 0;
#X connect 104 0 105 0;
#X connect 105 1 108 0;
#X connect 106 0 101 1;
#X connect 108 0 109 0;
#X connect 109 0 107 0;
#X connect 110 0 111 0;
#X connect 111 0 112 0;
#X connect 112 0 113 0;
#X connect 113 0 114 0;
#X connect 114 1 115 0;
#X connect 115 0 117 0;
#X connect 116 0 110 1;
#X connect 117 0 107 0;
#X connect 118 0 119 0;
#X connect 119 0 120 0;
#X connect 120 0 121 0;
#X connect 121 0 122 0;
#X connect 122 1 123 0;
#X connect 123 0 124 0;
#X connect 124 0 107 0;
#X connect 125 0 118 1;
#X connect 126 0 127 0;
#X connect 127 0 128 0;
#X connect 128 0 129 0;
#X connect 129 0 130 0;
#X connect 130 1 131 0;
#X connect 131 0 168 0;
#X connect 132 0 133 0;
#X connect 133 0 134 0;
#X connect 134 0 135 0;
#X connect 135 0 136 0;
#X connect 136 1 137 0;
#X connect 137 0 169 0;
#X connect 138 0 139 0;
#X connect 139 0 140 0;
#X connect 140 0 141 0;
#X connect 141 0 142 0;
#X connect 142 1 143 0;
#X connect 143 0 170 0;
#X connect 144 0 126 1;
#X connect 145 0 132 1;
#X connect 146 0 138 1;
#X connect 147 0 148 0;
#X connect 148 0 149 0;
#X connect 149 0 150 0;
#X connect 150 0 151 0;
#X connect 151 1 152 0;
#X connect 152 0 171 0;
#X connect 153 0 154 0;
#X connect 154 0 155 0;
#X connect 155 0 156 0;
#X connect 156 0 157 0;
#X connect 157 1 158 0;
#X connect 158 0 172 0;
#X connect 159 0 160 0;
#X connect 160 0 161 0;
#X connect 161 0 162 0;
#X connect 162 0 163 0;
#X connect 163 1 164 0;
#X connect 164 0 173 0;
#X connect 165 0 147 1;
#X connect 166 0 153 1;
#X connect 167 0 159 1;
#X connect 168 0 175 0;
#X connect 169 0 175 0;
#X connect 170 0 175 0;
#X connect 171 0 174 0;
#X connect 172 0 174 0;
#X connect 173 0 174 0;
#X connect 176 0 177 0;
#X connect 177 0 178 0;
#X connect 179 0 177 0;
#X connect 180 0 177 0;
#X connect 181 0 177 0;
#X connect 182 0 177 0;
#X connect 183 0 177 0;
#X connect 184 0 177 0;
#X connect 185 0 177 0;
#X restore 196 60 pd midiWork;
#X obj 22 138 cnv 15 280 220 empty empty 2_OSC_Server 20 12 0 14 -4034
-66577 0;
#X msg 36 201 connect localhost 9876;
#X msg 108 227 disconnect;
#X obj 201 148 import mrpeach;
#X obj 36 289 udpsend;
#X obj 115 263 r oscdata;
#X obj 115 293 bng 15 250 50 0 empty empty empty 17 7 0 10 -262144
-1 -1;
#X floatatom 36 314 5 0 0 0 - - -;
#X text 197 201 << PRESS HERE;
#X connect 5 0 8 0;
#X connect 6 0 8 0;
#X connect 8 0 11 0;
#X connect 9 0 8 0;
#X connect 9 0 10 0;
