#N canvas 463 85 898 602 10;
#X declare -lib mrpeach;
#X obj 5 -25 cnv 15 700 295 empty empty visuals 20 12 0 14 -204786
-66577 0;
#X obj 58 54 hradio 15 1 0 15 s_gen1 r_gen1 empty 0 -8 0 10 -203904
-1 -1 5;
#X obj 58 76 hradio 15 1 0 9 s_fx1 r_fx1 empty 0 -8 0 10 -262130 -1
-1 8;
#X obj 59 139 hradio 15 1 0 15 s_gen_b1 r_gen_b1 empty 0 -8 0 10 -203904
-1 -1 2;
#X obj 59 161 hradio 15 1 0 9 s_fx_b1 r_fx_b1 empty 0 -8 0 10 -262130
-1 -1 4;
#X obj 60 224 hradio 15 1 0 10 s_mix1 r_mix1 empty 0 -8 0 10 -203904
-1 -1 0;
#X obj 12 54 tgl 15 0 s_rndsel_gen1 r_rndsel_gen1 empty 17 7 0 10 -260097
-1 -1 1 1;
#X obj 12 76 tgl 15 0 s_rndsel_fx1 r_rndsel_fx1 empty 17 7 0 10 -260097
-1 -1 1 1;
#X obj 12 139 tgl 15 0 s_rndsel_gen2 r_rndsel_gen2 empty 17 7 0 10
-260097 -1 -1 1 1;
#X obj 12 160 tgl 15 0 s_rndsel_fx2 r_rndsel_fx2 empty 17 7 0 10 -260097
-1 -1 1 1;
#X obj 12 224 tgl 15 0 s_rndsel_mix r_rndsel_mix empty 17 7 0 10 -260097
-1 -1 1 1;
#X obj 5 274 cnv 15 730 110 empty empty output 20 12 0 14 -204786 -66577
0;
#X obj 80 346 hradio 15 1 0 5 s_out1 r_out1 empty 0 -8 0 10 -262144
-1 -1 1;
#X obj 242 346 hradio 15 1 0 5 s_out2 r_out2 empty 0 -8 0 10 -262144
-1 -1 2;
#X text 35 322 Fader;
#X obj 80 324 hradio 15 1 0 4 s_fader1 r_fader1 empty 0 -8 0 10 -262144
-1 -1 0;
#X obj 242 324 hradio 15 1 0 4 s_fader2 r_fader2 empty 0 -8 0 10 -262144
-1 -1 0;
#X obj 80 302 hradio 15 1 0 9 s_fx_output1 r_fx_output1 empty 0 -8
0 10 -262130 -1 -1 0;
#X obj 242 302 hradio 15 1 0 9 s_fx_output2 r_fx_output2 empty 0 -8
0 10 -262130 -1 -1 0;
#X text 35 299 Effect;
#X obj 403 346 hradio 15 1 0 5 s_out3 r_out3 empty 0 -8 0 10 -262144
-1 -1 2;
#X obj 565 346 hradio 15 1 0 5 s_out4 r_out4 empty 0 -8 0 10 -262144
-1 -1 2;
#X obj 403 324 hradio 15 1 0 4 s_fader3 r_fader3 empty 0 -8 0 10 -262144
-1 -1 0;
#X obj 565 324 hradio 15 1 0 4 s_fader4 r_fader4 empty 0 -8 0 10 -262144
-1 -1 0;
#X obj 403 302 hradio 15 1 0 9 s_fx_output3 r_fx_output3 empty 0 -8
0 10 -262130 -1 -1 0;
#X obj 565 302 hradio 15 1 0 9 s_fx_output4 r_fx_output4 empty 0 -8
0 10 -262130 -1 -1 0;
#X obj 14 302 tgl 15 0 s_rndsel_mixout r_rndsel_mixout empty 17 7 0
10 -260097 -1 -1 1 1;
#X obj 14 323 tgl 15 0 s_rndsel_faderout r_rndsel_faderout empty 17
7 0 10 -260097 -1 -1 1 1;
#X obj 14 345 tgl 15 0 s_rndsel_out r_rndsel_out empty 17 7 0 10 -260097
-1 -1 1 1;
#X text 96 283 output #1;
#X text 260 283 output #2;
#X text 420 283 output #3;
#X text 580 283 output #4;
#X text 35 343 Visual;
#X text 27 75 FX1;
#X text 27 53 GEN1;
#X text 27 138 GEN2;
#X text 27 160 FX2;
#X text 28 223 MIX;
#X obj 478 532 cnv 15 200 35 empty empty Misc 20 12 0 14 -203904 -66577
0;
#N canvas 459 482 821 306 gen 0;
#X obj 10 13 cnv 15 150 266 empty empty blinken 20 12 0 14 -203904
-66577 0;
#X obj 22 250 send blinkenfile;
#X obj 166 13 cnv 15 150 266 empty empty image 20 12 0 14 -203904 -66577
0;
#X obj 178 249 send image;
#X obj 141 17 tgl 15 0 s_rndsel_blinken r_rndsel_blinken empty 17 7
0 10 -260097 -1 -1 1 1;
#X obj 296 18 tgl 15 0 s_rndsel_image r_rndsel_image empty 17 7 0 10
-260097 -1 -1 1 1;
#X obj 322 13 cnv 15 180 266 empty empty texturedeform 20 12 0 14 -203904
-66577 0;
#X obj 332 246 send change_lut;
#X obj 326 43 bng 15 250 50 0 s_td_5 empty tunnel 17 7 0 10 -262144
-1 -1;
#X obj 326 64 bng 15 250 50 0 s_td_7 empty cloud 17 7 0 10 -262144
-1 -1;
#X obj 390 43 bng 15 250 50 0 s_td_9 empty circle 17 7 0 10 -262144
-1 -1;
#X obj 390 64 bng 15 250 50 0 s_td_10 empty spiral 17 7 0 10 -262144
-1 -1;
#X obj 456 43 bng 15 250 50 0 s_td_4 empty star 17 7 0 10 -262144 -1
-1;
#X obj 456 64 bng 15 250 50 0 s_td_11 empty 3d 17 7 0 10 -262144 -1
-1;
#X obj 483 18 tgl 15 0 s_rndsel_textdef r_rndsel_textdef empty 17 7
0 10 -260097 -1 -1 1 1;
#X obj 508 14 cnv 15 306 80 empty empty textwriter 20 12 0 14 -203904
-66577 0;
#X obj 523 66 send textwriter;
#X msg 22 37 torus.bml;
#X msg 22 58 bnf_auge.bml;
#X msg 22 79 bb-frogskin2.bml;
#X msg 22 100 bb-rauten2.bml;
#X msg 22 121 bb-spiral2fast.bml;
#X msg 178 43 circle.jpg;
#X msg 178 67 half.jpg;
#X msg 178 92 gradient.jpg;
#X msg 178 116 check.jpg;
#X msg 332 87 ceiling.jpg;
#X msg 332 127 circle.jpg;
#X msg 332 148 gradient.jpg;
#X msg 332 107 1316.jpg;
#X msg 178 142 hsv.jpg;
#X msg 178 168 hls.jpg;
#X msg 21 142 flatter_flatter.bml;
#X msg 22 163 badtv.bml;
#X msg 178 197 right.jpg;
#X msg 332 170 check.jpg;
#X msg 423 145 hsv.jpg;
#X msg 423 171 hls.jpg;
#X msg 22 185 kreise-versetzt.bml;
#X msg 46 216 blender.bml;
#X msg 199 222 ff-logo-small.jpg;
#X msg 248 197 logo.gif;
#X msg 523 41 DEMODAYS 2011;
#X connect 17 0 1 0;
#X connect 18 0 1 0;
#X connect 19 0 1 0;
#X connect 20 0 1 0;
#X connect 21 0 1 0;
#X connect 22 0 3 0;
#X connect 23 0 3 0;
#X connect 24 0 3 0;
#X connect 25 0 3 0;
#X connect 26 0 7 0;
#X connect 27 0 7 0;
#X connect 28 0 7 0;
#X connect 29 0 7 0;
#X connect 30 0 3 0;
#X connect 31 0 3 0;
#X connect 32 0 1 0;
#X connect 33 0 1 0;
#X connect 34 0 3 0;
#X connect 35 0 7 0;
#X connect 36 0 7 0;
#X connect 37 0 7 0;
#X connect 38 0 1 0;
#X connect 39 0 1 0;
#X connect 40 0 3 0;
#X connect 41 0 3 0;
#X connect 42 0 16 0;
#X restore 533 537 pd gen;
#N canvas 169 88 565 357 fx 0;
#X obj 33 0 cnv 15 140 70 empty empty //threshold 20 12 0 14 -262130
-66577 0;
#X floatatom 116 35 5 0 0 0 - - s_threshold;
#X obj 89 34 int;
#X obj 154 4 tgl 15 0 s_rndsel_threshold r_rndsel_threshold empty 17
7 0 10 -260097 -1 -1 1 1;
#X obj 49 28 knob 32 32 0 255 0 0 empty r_threshold empty 0 -8 64 8
-262144 -1 -1 2820 1;
#X obj 33 71 cnv 15 140 160 empty empty //colorize 20 12 0 14 -262130
-66577 0;
#X obj 49 104 knob 32 32 0 255 0 0 empty r_tint_r R 38 16 64 12 -262144
-33289 -1 1070 1;
#X floatatom 116 112 5 0 255 0 - - s_tint_r;
#X obj 89 111 int;
#X obj 49 144 knob 32 32 0 255 0 0 empty r_tint_g G 38 16 64 12 -262144
-33289 -1 887 1;
#X floatatom 116 151 5 0 255 0 - - s_tint_g;
#X obj 89 151 int;
#X obj 49 184 knob 32 32 0 255 0 0 empty r_tint_b B 38 16 64 12 -262144
-33289 -1 2407 1;
#X floatatom 116 191 5 0 255 0 - - s_tint_b;
#X obj 89 191 int;
#X obj 153 77 tgl 15 0 s_rndsel_tint r_rndsel_tint empty 17 7 0 10
-260097 -1 -1 1 1;
#X obj 33 226 cnv 15 140 70 empty empty //rotozoom 20 12 0 14 -262130
-66577 0;
#X obj 47 252 knob 32 32 -127 127 0 0 empty r_rotozoom_angle ° 38
16 64 12 -262144 -33289 -1 2368 1;
#X floatatom 114 259 5 0 255 0 - - s_rotozoom_angle;
#X obj 87 259 int;
#X obj 153 230 tgl 15 0 s_rndsel_rotozoom r_rndsel_rotozoom empty 17
7 0 10 -260097 -1 -1 1 1;
#X connect 2 0 1 0;
#X connect 4 0 2 0;
#X connect 6 0 8 0;
#X connect 8 0 7 0;
#X connect 9 0 11 0;
#X connect 11 0 10 0;
#X connect 12 0 14 0;
#X connect 14 0 13 0;
#X connect 17 0 19 0;
#X connect 19 0 18 0;
#X coords 0 -1 1 1 140 290 1 33 0;
#X restore 709 -26 pd fx;
#N canvas 0 22 1280 737 midi 0;
#X obj 15 330 notein;
#X floatatom 15 364 5 0 0 0 - - -;
#X floatatom 31 394 5 0 0 0 - - -;
#X floatatom 48 424 5 0 0 0 - - -;
#X obj 38 22 ctlin;
#X floatatom 38 124 5 0 0 0 - - -;
#X floatatom 57 82 5 0 0 0 - - -;
#X floatatom 65 49 5 0 0 0 - - -;
#X obj 725 212 send r_threshold;
#X obj 775 156 spigot;
#X obj 838 156 spigot;
#X obj 838 212 send r_tint_r;
#X obj 939 155 spigot;
#X obj 1039 155 spigot;
#X obj 939 211 send r_tint_g;
#X obj 1039 211 send r_tint_b;
#X obj 526 156 spigot;
#X obj 775 183 * 2;
#X obj 838 183 * 2;
#X obj 939 183 * 2;
#X obj 1039 183 * 2;
#X obj 425 157 spigot;
#X obj 336 156 spigot;
#X obj 246 156 spigot;
#X obj 246 183 div 15;
#X obj 336 183 div 15;
#X obj 158 156 spigot;
#X floatatom 526 210 5 0 0 0 - - -;
#X obj 549 234 !=;
#X obj 526 256 spigot;
#X floatatom 246 210 5 0 0 0 - - -;
#X obj 269 234 !=;
#X obj 246 256 spigot;
#X floatatom 336 210 5 0 0 0 - - -;
#X obj 359 234 !=;
#X obj 336 256 spigot;
#X floatatom 425 211 5 0 0 0 - - -;
#X obj 448 235 !=;
#X obj 425 257 spigot;
#X floatatom 158 210 5 0 0 0 - - -;
#X obj 181 234 !=;
#X obj 158 256 spigot;
#X text 93 20 controller value // controller number // channel number
;
#X text 73 325 midi note // velocity // midi channel number;
#X obj 15 460 s midiNote;
#X obj 886 57 r FADE_R;
#X obj 956 57 r FADE_G;
#X obj 871 98 ==;
#X obj 972 98 ==;
#X obj 1072 98 ==;
#X obj 1026 57 r FADE_B;
#X obj 779 57 r THRESHOLD;
#X obj 423 57 r SLIDER_GEN_A;
#X obj 524 57 r SLIDER_GEN_B;
#X obj 171 98 ==;
#X obj 259 98 ==;
#X obj 242 57 r SLIDER_FX_A;
#X obj 334 57 r SLIDER_FX_B;
#X obj 349 98 ==;
#X obj 438 98 ==;
#X obj 529 98 ==;
#X obj 156 57 r SLIDER_MIX;
#X obj 808 98 ==;
#X obj 23 485 cnv 15 130 100 empty empty MIDI_SETUP 20 12 0 14 -257985
-66577 0;
#N canvas 4 31 1276 353 midiSetup 0;
#X obj 99 44 loadbang;
#X obj 29 79 bng 15 250 50 0 empty empty empty 17 7 0 10 -262144 -1
-1;
#X obj 379 187 s FADE_R;
#X obj 449 187 s FADE_G;
#X msg 379 151 1;
#X msg 449 151 2;
#X msg 519 151 3;
#X obj 519 187 s FADE_B;
#X obj 589 187 s THRESHOLD;
#X msg 589 151 6;
#X obj 669 187 s SLIDER_GEN_A;
#X msg 669 151 11;
#X msg 769 151 12;
#X obj 769 187 s SLIDER_GEN_B;
#X obj 869 187 s SLIDER_FX_A;
#X obj 969 187 s SLIDER_FX_B;
#X msg 869 151 13;
#X msg 969 151 14;
#X obj 1059 187 s SLIDER_MIX;
#X msg 1059 151 15;
#X msg 1149 151 16;
#X obj 1149 187 s SLIDER_SELECT;
#X obj 90 257 s BUTTON_RANDOM;
#X msg 90 221 39;
#X msg 29 151 5;
#X obj 29 187 s FADER_ROTOZ;
#X msg 119 151 37;
#X msg 209 151 38;
#X obj 119 187 s BUTTON_RON;
#X obj 209 187 s BUTTON_ROFF;
#X msg 196 220 48;
#X msg 296 220 49;
#X msg 396 220 50;
#X obj 196 256 s BUTTON_OUTP1;
#X obj 296 255 s BUTTON_OUTP2;
#X obj 396 256 s BUTTON_OUTP3;
#X msg 496 220 44;
#X msg 596 220 45;
#X msg 696 220 46;
#X obj 496 256 s BUTTON_OUT1A;
#X obj 596 256 s BUTTON_OUT1B;
#X obj 696 256 s BUTTON_OUT1C;
#X msg 796 220 40;
#X msg 896 220 41;
#X msg 996 220 42;
#X obj 796 256 s BUTTON_OUT2A;
#X obj 896 256 s BUTTON_OUT2B;
#X obj 996 256 s BUTTON_OUT2C;
#X connect 0 0 24 0;
#X connect 0 0 4 0;
#X connect 0 0 5 0;
#X connect 0 0 6 0;
#X connect 0 0 9 0;
#X connect 0 0 12 0;
#X connect 0 0 11 0;
#X connect 0 0 17 0;
#X connect 0 0 16 0;
#X connect 0 0 19 0;
#X connect 0 0 20 0;
#X connect 0 0 23 0;
#X connect 0 0 26 0;
#X connect 0 0 27 0;
#X connect 0 0 30 0;
#X connect 0 0 31 0;
#X connect 0 0 32 0;
#X connect 0 0 36 0;
#X connect 0 0 37 0;
#X connect 0 0 38 0;
#X connect 0 0 42 0;
#X connect 0 0 43 0;
#X connect 0 0 44 0;
#X connect 1 0 24 0;
#X connect 1 0 4 0;
#X connect 1 0 5 0;
#X connect 1 0 6 0;
#X connect 1 0 9 0;
#X connect 1 0 11 0;
#X connect 1 0 12 0;
#X connect 1 0 16 0;
#X connect 1 0 17 0;
#X connect 1 0 19 0;
#X connect 1 0 20 0;
#X connect 1 0 23 0;
#X connect 1 0 26 0;
#X connect 1 0 27 0;
#X connect 1 0 30 0;
#X connect 1 0 31 0;
#X connect 1 0 32 0;
#X connect 1 0 36 0;
#X connect 1 0 37 0;
#X connect 1 0 38 0;
#X connect 1 0 42 0;
#X connect 1 0 43 0;
#X connect 1 0 44 0;
#X connect 4 0 2 0;
#X connect 5 0 3 0;
#X connect 6 0 7 0;
#X connect 9 0 8 0;
#X connect 11 0 10 0;
#X connect 12 0 13 0;
#X connect 16 0 14 0;
#X connect 17 0 15 0;
#X connect 19 0 18 0;
#X connect 20 0 21 0;
#X connect 23 0 22 0;
#X connect 24 0 25 0;
#X connect 26 0 28 0;
#X connect 27 0 29 0;
#X connect 30 0 33 0;
#X connect 31 0 34 0;
#X connect 32 0 35 0;
#X connect 36 0 39 0;
#X connect 37 0 40 0;
#X connect 38 0 41 0;
#X connect 42 0 45 0;
#X connect 43 0 46 0;
#X connect 44 0 47 0;
#X restore 48 526 pd midiSetup;
#X obj 158 183 div 13;
#X obj 425 184 div 8;
#X obj 526 183 div 8;
#X obj 636 156 spigot;
#X floatatom 636 210 5 0 0 0 - - -;
#X obj 659 234 !=;
#X obj 636 256 spigot;
#X obj 639 98 ==;
#X obj 634 57 r SLIDER_SELECT;
#X obj 425 282 s r_gen1;
#X obj 525 282 s r_gen_b1;
#X obj 246 282 s r_fx1;
#X obj 337 282 s r_fx_b1;
#X obj 158 282 s r_mix1;
#X obj 636 283 s r_current_visual;
#X obj 636 183 div 28;
#X obj 204 349 r BUTTON_RANDOM;
#X obj 239 380 ==;
#X floatatom 239 413 5 0 0 0 - - -;
#X obj 111 410 >;
#X floatatom 144 394 5 0 0 0 - - -;
#X floatatom 177 427 5 0 0 0 - - -;
#X obj 239 443 &;
#X floatatom 239 473 5 0 0 0 - - -;
#X obj 239 501 moses 1;
#X obj 239 528 s r_rnd_do;
#X obj 1160 54 r FADER_ROTOZ;
#X obj 1159 155 spigot;
#X obj 1192 98 ==;
#X obj 1159 231 s r_rotozoom_angle;
#X obj 1159 183 * 2;
#X obj 1159 207 - 127;
#X obj 308 350 r BUTTON_RON;
#X obj 398 350 r BUTTON_ROFF;
#X obj 321 380 ==;
#X floatatom 321 413 5 0 0 0 - - -;
#X obj 321 443 &;
#X floatatom 321 473 5 0 0 0 - - -;
#X obj 321 501 moses 1;
#X obj 421 380 ==;
#X floatatom 421 413 5 0 0 0 - - -;
#X obj 421 443 &;
#X floatatom 421 473 5 0 0 0 - - -;
#X obj 421 501 moses 1;
#X obj 321 528 s r_rnd_on;
#X obj 421 528 s r_rnd_off;
#X obj 521 380 ==;
#X floatatom 521 413 5 0 0 0 - - -;
#X obj 521 443 &;
#X floatatom 521 473 5 0 0 0 - - -;
#X obj 521 501 moses 1;
#X obj 497 350 r BUTTON_OUTP1;
#X obj 646 581 s r_outall;
#X obj 524 528 bng 15 250 50 0 empty empty empty 17 7 0 10 -262144
-1 -1;
#X msg 550 543 0;
#X obj 621 380 ==;
#X floatatom 621 413 5 0 0 0 - - -;
#X obj 621 443 &;
#X floatatom 621 473 5 0 0 0 - - -;
#X obj 621 501 moses 1;
#X obj 624 528 bng 15 250 50 0 empty empty empty 17 7 0 10 -262144
-1 -1;
#X obj 597 350 r BUTTON_OUTP2;
#X msg 650 543 1;
#X obj 721 380 ==;
#X floatatom 721 413 5 0 0 0 - - -;
#X obj 721 443 &;
#X floatatom 721 473 5 0 0 0 - - -;
#X obj 721 501 moses 1;
#X obj 724 528 bng 15 250 50 0 empty empty empty 17 7 0 10 -262144
-1 -1;
#X msg 750 543 2;
#X obj 697 350 r BUTTON_OUTP3;
#X obj 821 380 ==;
#X floatatom 821 413 5 0 0 0 - - -;
#X obj 821 443 &;
#X floatatom 821 473 5 0 0 0 - - -;
#X obj 821 501 moses 1;
#X obj 824 528 bng 15 250 50 0 empty empty empty 17 7 0 10 -262144
-1 -1;
#X obj 921 380 ==;
#X floatatom 921 413 5 0 0 0 - - -;
#X obj 921 443 &;
#X floatatom 921 473 5 0 0 0 - - -;
#X obj 921 501 moses 1;
#X obj 924 528 bng 15 250 50 0 empty empty empty 17 7 0 10 -262144
-1 -1;
#X obj 1021 380 ==;
#X floatatom 1021 413 5 0 0 0 - - -;
#X obj 1021 443 &;
#X floatatom 1021 473 5 0 0 0 - - -;
#X obj 1021 501 moses 1;
#X obj 1024 528 bng 15 250 50 0 empty empty empty 17 7 0 10 -262144
-1 -1;
#X obj 797 350 r BUTTON_OUT1A;
#X obj 897 350 r BUTTON_OUT1B;
#X obj 997 350 r BUTTON_OUT1C;
#X obj 1121 380 ==;
#X floatatom 1121 413 5 0 0 0 - - -;
#X obj 1121 443 &;
#X floatatom 1121 473 5 0 0 0 - - -;
#X obj 1121 501 moses 1;
#X obj 1124 528 bng 15 250 50 0 empty empty empty 17 7 0 10 -262144
-1 -1;
#X obj 1221 380 ==;
#X floatatom 1221 413 5 0 0 0 - - -;
#X obj 1221 443 &;
#X floatatom 1221 473 5 0 0 0 - - -;
#X obj 1221 501 moses 1;
#X obj 1224 528 bng 15 250 50 0 empty empty empty 17 7 0 10 -262144
-1 -1;
#X obj 1321 380 ==;
#X floatatom 1321 413 5 0 0 0 - - -;
#X obj 1321 443 &;
#X floatatom 1321 473 5 0 0 0 - - -;
#X obj 1321 501 moses 1;
#X obj 1324 528 bng 15 250 50 0 empty empty empty 17 7 0 10 -262144
-1 -1;
#X obj 1097 350 r BUTTON_OUT2A;
#X obj 1199 350 r BUTTON_OUT2B;
#X obj 1297 350 r BUTTON_OUT2C;
#X msg 850 543 0;
#X msg 950 543 1;
#X msg 1050 543 2;
#X msg 1148 543 0;
#X msg 1248 543 1;
#X msg 1348 543 2;
#X obj 1244 581 s r_out2;
#X obj 946 581 s r_out1;
#X connect 0 0 1 0;
#X connect 0 1 2 0;
#X connect 0 2 3 0;
#X connect 1 0 44 0;
#X connect 1 0 82 0;
#X connect 1 0 99 0;
#X connect 1 0 104 0;
#X connect 1 0 111 0;
#X connect 1 0 120 0;
#X connect 1 0 128 0;
#X connect 1 0 136 0;
#X connect 1 0 142 0;
#X connect 1 0 148 0;
#X connect 1 0 157 0;
#X connect 1 0 163 0;
#X connect 1 0 169 0;
#X connect 2 0 84 0;
#X connect 4 0 5 0;
#X connect 4 1 6 0;
#X connect 4 2 7 0;
#X connect 5 0 16 0;
#X connect 5 0 9 0;
#X connect 5 0 10 0;
#X connect 5 0 12 0;
#X connect 5 0 13 0;
#X connect 5 0 21 0;
#X connect 5 0 23 0;
#X connect 5 0 22 0;
#X connect 5 0 26 0;
#X connect 5 0 68 0;
#X connect 5 0 92 0;
#X connect 6 0 47 0;
#X connect 6 0 49 0;
#X connect 6 0 54 0;
#X connect 6 0 55 0;
#X connect 6 0 58 0;
#X connect 6 0 59 0;
#X connect 6 0 60 0;
#X connect 6 0 62 0;
#X connect 6 0 48 0;
#X connect 6 0 72 0;
#X connect 6 0 93 0;
#X connect 9 0 17 0;
#X connect 10 0 18 0;
#X connect 12 0 19 0;
#X connect 13 0 20 0;
#X connect 16 0 67 0;
#X connect 17 0 8 0;
#X connect 18 0 11 0;
#X connect 19 0 14 0;
#X connect 20 0 15 0;
#X connect 21 0 66 0;
#X connect 22 0 25 0;
#X connect 23 0 24 0;
#X connect 24 0 30 0;
#X connect 24 0 31 1;
#X connect 25 0 33 0;
#X connect 25 0 34 1;
#X connect 26 0 65 0;
#X connect 27 0 28 0;
#X connect 27 0 29 0;
#X connect 28 0 29 1;
#X connect 29 0 75 0;
#X connect 30 0 31 0;
#X connect 30 0 32 0;
#X connect 31 0 32 1;
#X connect 32 0 76 0;
#X connect 33 0 34 0;
#X connect 33 0 35 0;
#X connect 34 0 35 1;
#X connect 35 0 77 0;
#X connect 36 0 37 0;
#X connect 36 0 38 0;
#X connect 37 0 38 1;
#X connect 38 0 74 0;
#X connect 39 0 40 0;
#X connect 39 0 41 0;
#X connect 40 0 41 1;
#X connect 41 0 78 0;
#X connect 45 0 47 1;
#X connect 46 0 48 1;
#X connect 47 0 10 1;
#X connect 48 0 12 1;
#X connect 49 0 13 1;
#X connect 50 0 49 1;
#X connect 51 0 62 1;
#X connect 52 0 59 1;
#X connect 53 0 60 1;
#X connect 54 0 26 1;
#X connect 55 0 23 1;
#X connect 56 0 55 1;
#X connect 57 0 58 1;
#X connect 58 0 22 1;
#X connect 59 0 21 1;
#X connect 60 0 16 1;
#X connect 61 0 54 1;
#X connect 62 0 9 1;
#X connect 65 0 39 0;
#X connect 65 0 40 1;
#X connect 66 0 36 0;
#X connect 66 0 37 1;
#X connect 67 0 27 0;
#X connect 67 0 28 1;
#X connect 68 0 80 0;
#X connect 69 0 70 0;
#X connect 69 0 71 0;
#X connect 70 0 71 1;
#X connect 71 0 79 0;
#X connect 72 0 68 1;
#X connect 73 0 72 1;
#X connect 80 0 69 0;
#X connect 80 0 70 1;
#X connect 81 0 82 1;
#X connect 82 0 83 0;
#X connect 83 0 87 0;
#X connect 84 0 86 0;
#X connect 85 0 84 1;
#X connect 86 0 87 1;
#X connect 86 0 101 1;
#X connect 86 0 106 1;
#X connect 86 0 113 1;
#X connect 86 0 122 1;
#X connect 86 0 130 1;
#X connect 86 0 138 1;
#X connect 86 0 144 1;
#X connect 86 0 150 1;
#X connect 86 0 159 1;
#X connect 86 0 165 1;
#X connect 86 0 171 1;
#X connect 87 0 88 0;
#X connect 88 0 89 0;
#X connect 89 1 90 0;
#X connect 91 0 93 1;
#X connect 92 0 95 0;
#X connect 93 0 92 1;
#X connect 95 0 96 0;
#X connect 96 0 94 0;
#X connect 97 0 99 1;
#X connect 98 0 104 1;
#X connect 99 0 100 0;
#X connect 100 0 101 0;
#X connect 101 0 102 0;
#X connect 102 0 103 0;
#X connect 103 1 109 0;
#X connect 104 0 105 0;
#X connect 105 0 106 0;
#X connect 106 0 107 0;
#X connect 107 0 108 0;
#X connect 108 1 110 0;
#X connect 111 0 112 0;
#X connect 112 0 113 0;
#X connect 113 0 114 0;
#X connect 114 0 115 0;
#X connect 115 1 118 0;
#X connect 116 0 111 1;
#X connect 118 0 119 0;
#X connect 119 0 117 0;
#X connect 120 0 121 0;
#X connect 121 0 122 0;
#X connect 122 0 123 0;
#X connect 123 0 124 0;
#X connect 124 1 125 0;
#X connect 125 0 127 0;
#X connect 126 0 120 1;
#X connect 127 0 117 0;
#X connect 128 0 129 0;
#X connect 129 0 130 0;
#X connect 130 0 131 0;
#X connect 131 0 132 0;
#X connect 132 1 133 0;
#X connect 133 0 134 0;
#X connect 134 0 117 0;
#X connect 135 0 128 1;
#X connect 136 0 137 0;
#X connect 137 0 138 0;
#X connect 138 0 139 0;
#X connect 139 0 140 0;
#X connect 140 1 141 0;
#X connect 141 0 178 0;
#X connect 142 0 143 0;
#X connect 143 0 144 0;
#X connect 144 0 145 0;
#X connect 145 0 146 0;
#X connect 146 1 147 0;
#X connect 147 0 179 0;
#X connect 148 0 149 0;
#X connect 149 0 150 0;
#X connect 150 0 151 0;
#X connect 151 0 152 0;
#X connect 152 1 153 0;
#X connect 153 0 180 0;
#X connect 154 0 136 1;
#X connect 155 0 142 1;
#X connect 156 0 148 1;
#X connect 157 0 158 0;
#X connect 158 0 159 0;
#X connect 159 0 160 0;
#X connect 160 0 161 0;
#X connect 161 1 162 0;
#X connect 162 0 181 0;
#X connect 163 0 164 0;
#X connect 164 0 165 0;
#X connect 165 0 166 0;
#X connect 166 0 167 0;
#X connect 167 1 168 0;
#X connect 168 0 182 0;
#X connect 169 0 170 0;
#X connect 170 0 171 0;
#X connect 171 0 172 0;
#X connect 172 0 173 0;
#X connect 173 1 174 0;
#X connect 174 0 183 0;
#X connect 175 0 157 1;
#X connect 176 0 163 1;
#X connect 177 0 169 1;
#X connect 178 0 185 0;
#X connect 179 0 185 0;
#X connect 180 0 185 0;
#X connect 181 0 184 0;
#X connect 182 0 184 0;
#X connect 183 0 184 0;
#X restore 578 537 pd midi;
#N canvas 75 115 1173 604 random 0;
#X msg 340 60 send RANDOM ON;
#X msg 340 87 send RANDOM OFF;
#X msg 340 36 send RANDOMIZE;
#X obj 50 50 cnv 15 140 85 empty empty //mode 20 12 0 14 -260097 -66577
0;
#X obj 120 74 bng 20 250 50 0 s_rnd_do r_rnd_do RNDM 22 12 0 10 -261682
-33289 -1;
#X obj 53 74 bng 20 250 50 0 s_rnd_on r_rnd_on RND_ON 22 11 0 10 -261682
-33289 -1;
#X obj 54 99 bng 20 250 50 0 s_rnd_iff r_rnd_off RND_OFF 22 11 0 10
-261682 -33289 -1;
#X obj 12 229 r s_rndsel_gen1;
#X floatatom 12 258 5 0 0 0 - - -;
#X floatatom 122 258 5 0 0 0 - - -;
#X obj 122 229 r s_rndsel_gen2;
#X floatatom 232 258 5 0 0 0 - - -;
#X floatatom 342 258 5 0 0 0 - - -;
#X obj 232 229 r s_rndsel_fx1;
#X obj 342 229 r s_rndsel_fx2;
#X floatatom 452 258 5 0 0 0 - - -;
#X floatatom 562 258 5 0 0 0 - - -;
#X obj 452 229 r s_rndsel_mix;
#X obj 562 229 r s_rndsel_mixout;
#X floatatom 682 258 5 0 0 0 - - -;
#X floatatom 812 258 5 0 0 0 - - -;
#X obj 682 229 r s_rndsel_faderout;
#X obj 812 229 r s_rndsel_out;
#X obj 122 293 bng 15 250 50 0 empty empty empty 17 7 0 10 -262144
-1 -1;
#X obj 85 314 delay 20;
#X obj 911 229 r s_rndsel_blinken;
#X obj 1038 229 r s_rndsel_image;
#X obj 908 300 r s_rndsel_tint;
#X floatatom 911 258 5 0 0 0 - - -;
#X floatatom 1038 258 5 0 0 0 - - -;
#X floatatom 908 328 5 0 0 0 - - -;
#X floatatom 1038 328 5 0 0 0 - - -;
#X obj 1038 300 r s_rndsel_textdef;
#X obj 766 300 r s_rndsel_threshold;
#X floatatom 766 328 5 0 0 0 - - -;
#X obj 62 516 send to_server;
#X obj 697 84 send to_server;
#X obj 62 441 pack i i i i i i i i i i i i i i;
#X msg 62 473 send CHANGE_SHUFFLER_SELECT \$1 \$2 \$3 \$4 \$5 \$6 \$7
\$8 \$9 \$10 \$11 \$12 \$13 \$14;
#X floatatom 631 328 5 0 0 0 - - -;
#X obj 631 300 r s_rndsel_rotozoom;
#X obj 120 99 bng 20 250 50 0 s_rnd_pres r_rnd_pres RND_PRES 22 12
0 10 -261682 -33289 -1;
#X msg 340 115 send PRESET_RANDOM;
#X connect 0 0 36 0;
#X connect 1 0 36 0;
#X connect 2 0 36 0;
#X connect 4 0 2 0;
#X connect 5 0 0 0;
#X connect 6 0 1 0;
#X connect 7 0 8 0;
#X connect 8 0 37 0;
#X connect 9 0 23 0;
#X connect 9 0 37 1;
#X connect 10 0 9 0;
#X connect 11 0 23 0;
#X connect 11 0 37 2;
#X connect 12 0 23 0;
#X connect 12 0 37 3;
#X connect 13 0 11 0;
#X connect 14 0 12 0;
#X connect 15 0 23 0;
#X connect 15 0 37 4;
#X connect 16 0 23 0;
#X connect 16 0 37 5;
#X connect 17 0 15 0;
#X connect 18 0 16 0;
#X connect 19 0 23 0;
#X connect 19 0 37 6;
#X connect 20 0 24 0;
#X connect 20 0 37 7;
#X connect 21 0 19 0;
#X connect 22 0 20 0;
#X connect 23 0 24 0;
#X connect 24 0 37 0;
#X connect 25 0 28 0;
#X connect 26 0 29 0;
#X connect 27 0 30 0;
#X connect 28 0 23 0;
#X connect 28 0 37 8;
#X connect 29 0 23 0;
#X connect 29 0 37 9;
#X connect 30 0 23 0;
#X connect 30 0 37 10;
#X connect 31 0 23 0;
#X connect 31 0 37 11;
#X connect 32 0 31 0;
#X connect 33 0 34 0;
#X connect 34 0 23 0;
#X connect 34 0 37 12;
#X connect 37 0 38 0;
#X connect 38 0 35 0;
#X connect 39 0 37 13;
#X connect 39 0 23 0;
#X connect 40 0 39 0;
#X connect 41 0 42 0;
#X connect 42 0 36 0;
#X coords 0 -1 1 1 140 85 1 50 50;
#X restore 682 388 pd random;
#N canvas 260 406 786 268 keyb 0;
#X obj 36 27 keyup;
#X obj 59 142 0;
#X obj 93 143 1;
#X obj 130 144 2;
#X obj 165 144 3;
#X obj 201 143 4;
#X obj 223 168 bng 15 250 50 0 empty empty empty 17 7 0 10 -262144
-1 -1;
#X obj 223 193 s r_rnd_do;
#X obj 31 186 s r_outall;
#X floatatom 29 84 5 0 0 0 - - -;
#X text 115 68 Keys: 1 2 3 4 5 R;
#X obj 459 85 route 177 8220 35 199 91;
#X obj 482 179 s r_current_visual;
#X obj 429 133 0;
#X obj 463 133 1;
#X obj 500 133 2;
#X obj 535 133 3;
#X obj 571 133 4;
#X text 469 64 Keys: ALT + 1 2 3 4 5;
#X obj 111 86 route 49 50 51 52 53 82 115;
#X obj 259 149 s r_tgl_emulate;
#X obj 259 122 0;
#X obj 64 210 s r_current_visual;
#X connect 0 0 9 0;
#X connect 0 0 19 0;
#X connect 1 0 8 0;
#X connect 1 0 22 0;
#X connect 2 0 8 0;
#X connect 2 0 22 0;
#X connect 3 0 8 0;
#X connect 3 0 22 0;
#X connect 4 0 8 0;
#X connect 4 0 22 0;
#X connect 5 0 8 0;
#X connect 5 0 22 0;
#X connect 6 0 7 0;
#X connect 11 0 13 0;
#X connect 11 1 14 0;
#X connect 11 2 15 0;
#X connect 11 3 16 0;
#X connect 11 4 17 0;
#X connect 13 0 12 0;
#X connect 14 0 12 0;
#X connect 15 0 12 0;
#X connect 16 0 12 0;
#X connect 17 0 12 0;
#X connect 19 0 1 0;
#X connect 19 1 2 0;
#X connect 19 2 3 0;
#X connect 19 3 4 0;
#X connect 19 4 5 0;
#X connect 19 5 6 0;
#X connect 19 6 21 0;
#X connect 19 7 11 0;
#X connect 21 0 20 0;
#X restore 628 537 pd keyb;
#N canvas 10 85 893 570 presentStuff 0;
#N canvas 212 92 899 611 presentSel 0;
#X obj 9 -75 r s_sel_01;
#X obj 429 -14 s r_sel;
#X msg 9 -51 1;
#X msg 79 -51 2;
#X msg 149 -51 3;
#X msg 219 -51 4;
#X msg 289 -51 5;
#X msg 359 -51 6;
#X obj 79 -75 r s_sel_02;
#X obj 149 -75 r s_sel_03;
#X obj 219 -75 r s_sel_04;
#X obj 289 -75 r s_sel_05;
#X obj 359 -75 r s_sel_06;
#X obj 429 -75 r s_sel_07;
#X msg 429 -51 7;
#X msg 499 -51 8;
#X obj 499 -75 r s_sel_08;
#X msg 569 -51 9;
#X obj 569 -75 r s_sel_09;
#X obj 639 -75 r s_sel_10;
#X msg 639 -51 10;
#X msg 709 -51 11;
#X msg 779 -51 12;
#X obj 709 -75 r s_sel_11;
#X obj 779 -75 r s_sel_12;
#X obj 429 86 s r_sel;
#X msg 9 49 13;
#X msg 79 49 14;
#X msg 149 49 15;
#X msg 219 49 16;
#X msg 289 49 17;
#X msg 359 49 18;
#X msg 429 49 19;
#X msg 499 49 20;
#X msg 569 49 21;
#X msg 639 49 22;
#X msg 709 49 23;
#X msg 779 49 24;
#X obj 779 25 r s_sel_24;
#X obj 709 25 r s_sel_23;
#X obj 639 25 r s_sel_22;
#X obj 569 25 r s_sel_21;
#X obj 499 25 r s_sel_20;
#X obj 429 25 r s_sel_19;
#X obj 359 25 r s_sel_18;
#X obj 289 25 r s_sel_17;
#X obj 219 25 r s_sel_16;
#X obj 149 25 r s_sel_15;
#X obj 79 25 r s_sel_14;
#X obj 9 25 r s_sel_13;
#X obj 429 186 s r_sel;
#X msg 9 149 25;
#X msg 79 149 26;
#X msg 149 149 27;
#X msg 219 149 28;
#X msg 289 149 29;
#X msg 359 149 30;
#X msg 429 149 31;
#X msg 499 149 32;
#X msg 569 149 33;
#X msg 639 149 34;
#X msg 709 149 35;
#X msg 779 149 36;
#X obj 779 125 r s_sel_36;
#X obj 709 125 r s_sel_35;
#X obj 639 125 r s_sel_34;
#X obj 569 125 r s_sel_33;
#X obj 499 125 r s_sel_32;
#X obj 429 125 r s_sel_31;
#X obj 359 125 r s_sel_30;
#X obj 289 125 r s_sel_29;
#X obj 219 125 r s_sel_28;
#X obj 149 125 r s_sel_27;
#X obj 79 125 r s_sel_26;
#X obj 9 125 r s_sel_25;
#X obj 429 286 s r_sel;
#X msg 9 249 37;
#X msg 79 249 38;
#X msg 149 249 39;
#X msg 219 249 40;
#X msg 289 249 41;
#X msg 359 249 42;
#X msg 429 249 43;
#X msg 499 249 44;
#X msg 569 249 45;
#X msg 639 249 46;
#X msg 709 249 47;
#X msg 779 249 48;
#X obj 9 225 r s_sel_37;
#X obj 79 225 r s_sel_38;
#X obj 149 225 r s_sel_39;
#X obj 219 225 r s_sel_40;
#X obj 289 225 r s_sel_41;
#X obj 359 225 r s_sel_42;
#X obj 429 225 r s_sel_43;
#X obj 499 225 r s_sel_44;
#X obj 569 225 r s_sel_45;
#X obj 639 225 r s_sel_46;
#X obj 779 225 r s_sel_48;
#X obj 709 225 r s_sel_47;
#X obj 429 376 s r_sel;
#X msg 9 339 49;
#X msg 79 339 50;
#X msg 149 339 51;
#X msg 219 339 52;
#X msg 289 339 53;
#X msg 359 339 54;
#X msg 429 339 55;
#X msg 499 339 56;
#X msg 569 339 57;
#X msg 639 339 58;
#X msg 709 339 59;
#X msg 779 339 60;
#X obj 779 315 r s_sel_60;
#X obj 709 315 r s_sel_59;
#X obj 639 315 r s_sel_58;
#X obj 569 315 r s_sel_57;
#X obj 499 315 r s_sel_56;
#X obj 429 315 r s_sel_55;
#X obj 359 315 r s_sel_54;
#X obj 289 315 r s_sel_53;
#X obj 219 315 r s_sel_52;
#X obj 149 315 r s_sel_51;
#X obj 79 315 r s_sel_50;
#X obj 9 315 r s_sel_49;
#X obj 429 476 s r_sel;
#X msg 9 439 61;
#X msg 79 439 62;
#X msg 149 439 63;
#X msg 219 439 64;
#X msg 289 439 65;
#X msg 359 439 66;
#X msg 429 439 67;
#X msg 499 439 68;
#X msg 569 439 69;
#X msg 639 439 70;
#X msg 709 439 71;
#X msg 779 439 72;
#X obj 779 415 r s_sel_72;
#X obj 709 415 r s_sel_71;
#X obj 639 415 r s_sel_70;
#X obj 569 415 r s_sel_69;
#X obj 499 415 r s_sel_68;
#X obj 429 415 r s_sel_67;
#X obj 359 415 r s_sel_66;
#X obj 289 415 r s_sel_65;
#X obj 219 415 r s_sel_64;
#X obj 149 415 r s_sel_63;
#X obj 79 415 r s_sel_62;
#X obj 9 415 r s_sel_61;
#X connect 0 0 2 0;
#X connect 2 0 1 0;
#X connect 3 0 1 0;
#X connect 4 0 1 0;
#X connect 5 0 1 0;
#X connect 6 0 1 0;
#X connect 7 0 1 0;
#X connect 8 0 3 0;
#X connect 9 0 4 0;
#X connect 10 0 5 0;
#X connect 11 0 6 0;
#X connect 12 0 7 0;
#X connect 13 0 14 0;
#X connect 14 0 1 0;
#X connect 15 0 1 0;
#X connect 16 0 15 0;
#X connect 17 0 1 0;
#X connect 18 0 17 0;
#X connect 19 0 20 0;
#X connect 20 0 1 0;
#X connect 21 0 1 0;
#X connect 22 0 1 0;
#X connect 23 0 21 0;
#X connect 24 0 22 0;
#X connect 26 0 25 0;
#X connect 27 0 25 0;
#X connect 28 0 25 0;
#X connect 29 0 25 0;
#X connect 30 0 25 0;
#X connect 31 0 25 0;
#X connect 32 0 25 0;
#X connect 33 0 25 0;
#X connect 34 0 25 0;
#X connect 35 0 25 0;
#X connect 36 0 25 0;
#X connect 37 0 25 0;
#X connect 38 0 37 0;
#X connect 39 0 36 0;
#X connect 40 0 35 0;
#X connect 41 0 34 0;
#X connect 42 0 33 0;
#X connect 43 0 32 0;
#X connect 44 0 31 0;
#X connect 45 0 30 0;
#X connect 46 0 29 0;
#X connect 47 0 28 0;
#X connect 48 0 27 0;
#X connect 49 0 26 0;
#X connect 51 0 50 0;
#X connect 52 0 50 0;
#X connect 53 0 50 0;
#X connect 54 0 50 0;
#X connect 55 0 50 0;
#X connect 56 0 50 0;
#X connect 57 0 50 0;
#X connect 58 0 50 0;
#X connect 59 0 50 0;
#X connect 60 0 50 0;
#X connect 61 0 50 0;
#X connect 62 0 50 0;
#X connect 63 0 62 0;
#X connect 64 0 61 0;
#X connect 65 0 60 0;
#X connect 66 0 59 0;
#X connect 67 0 58 0;
#X connect 68 0 57 0;
#X connect 69 0 56 0;
#X connect 70 0 55 0;
#X connect 71 0 54 0;
#X connect 72 0 53 0;
#X connect 73 0 52 0;
#X connect 74 0 51 0;
#X connect 76 0 75 0;
#X connect 77 0 75 0;
#X connect 78 0 75 0;
#X connect 79 0 75 0;
#X connect 80 0 75 0;
#X connect 81 0 75 0;
#X connect 82 0 75 0;
#X connect 83 0 75 0;
#X connect 84 0 75 0;
#X connect 85 0 75 0;
#X connect 86 0 75 0;
#X connect 87 0 75 0;
#X connect 88 0 76 0;
#X connect 89 0 77 0;
#X connect 90 0 78 0;
#X connect 91 0 79 0;
#X connect 92 0 80 0;
#X connect 93 0 81 0;
#X connect 94 0 82 0;
#X connect 95 0 83 0;
#X connect 96 0 84 0;
#X connect 97 0 85 0;
#X connect 98 0 87 0;
#X connect 99 0 86 0;
#X connect 101 0 100 0;
#X connect 102 0 100 0;
#X connect 103 0 100 0;
#X connect 104 0 100 0;
#X connect 105 0 100 0;
#X connect 106 0 100 0;
#X connect 107 0 100 0;
#X connect 108 0 100 0;
#X connect 109 0 100 0;
#X connect 110 0 100 0;
#X connect 111 0 100 0;
#X connect 112 0 100 0;
#X connect 113 0 112 0;
#X connect 114 0 111 0;
#X connect 115 0 110 0;
#X connect 116 0 109 0;
#X connect 117 0 108 0;
#X connect 118 0 107 0;
#X connect 119 0 106 0;
#X connect 120 0 105 0;
#X connect 121 0 104 0;
#X connect 122 0 103 0;
#X connect 123 0 102 0;
#X connect 124 0 101 0;
#X connect 126 0 125 0;
#X connect 127 0 125 0;
#X connect 128 0 125 0;
#X connect 129 0 125 0;
#X connect 130 0 125 0;
#X connect 131 0 125 0;
#X connect 132 0 125 0;
#X connect 133 0 125 0;
#X connect 134 0 125 0;
#X connect 135 0 125 0;
#X connect 136 0 125 0;
#X connect 137 0 125 0;
#X connect 138 0 137 0;
#X connect 139 0 136 0;
#X connect 140 0 135 0;
#X connect 141 0 134 0;
#X connect 142 0 133 0;
#X connect 143 0 132 0;
#X connect 144 0 131 0;
#X connect 145 0 130 0;
#X connect 146 0 129 0;
#X connect 147 0 128 0;
#X connect 148 0 127 0;
#X connect 149 0 126 0;
#X restore 582 13 pd presentSel;
#X obj 581 115 r s_save_preset;
#X msg 581 80 send LOAD_PRESENT;
#X obj 581 55 r s_load_preset;
#X msg 581 140 send SAVE_PRESENT;
#X obj 581 175 r s_sel;
#X msg 581 200 send CHANGE_PRESENT \$1;
#X obj 581 237 r s_threshold;
#X msg 581 287 send CHANGE_THRESHOLD_VALUE \$1;
#X obj 581 262 int;
#X obj 50 50 cnv 15 470 180 empty empty //Presents 20 12 0 14 -204786
-66577 0;
#X obj 61 76 cnv 15 150 25 empty empty empty 20 12 0 14 -262144 -66577
0;
#X obj 91 81 bng 15 250 50 0 s_sel_01 empty empty 17 7 0 10 -262144
-1 -1;
#X obj 111 81 bng 15 250 50 0 s_sel_02 empty empty 17 7 0 10 -262144
-1 -1;
#X obj 131 81 bng 15 250 50 0 s_sel_03 empty empty 17 7 0 10 -262144
-1 -1;
#X obj 151 81 bng 15 250 50 0 s_sel_04 empty empty 17 7 0 10 -262144
-1 -1;
#X obj 171 81 bng 15 250 50 0 s_sel_05 empty empty 17 7 0 10 -262144
-1 -1;
#X obj 191 81 bng 15 250 50 0 s_sel_06 empty empty 17 7 0 10 -262144
-1 -1;
#X obj 61 102 cnv 15 150 25 empty empty empty 20 12 0 14 -262144 -66577
0;
#X obj 91 107 bng 15 250 50 0 s_sel_07 empty empty 17 7 0 10 -262144
-1 -1;
#X obj 111 107 bng 15 250 50 0 s_sel_08 empty empty 17 7 0 10 -262144
-1 -1;
#X obj 131 107 bng 15 250 50 0 s_sel_09 empty empty 17 7 0 10 -262144
-1 -1;
#X obj 151 107 bng 15 250 50 0 s_sel_10 empty empty 17 7 0 10 -262144
-1 -1;
#X obj 171 107 bng 15 250 50 0 s_sel_11 empty empty 17 7 0 10 -262144
-1 -1;
#X obj 191 107 bng 15 250 50 0 s_sel_12 empty empty 17 7 0 10 -262144
-1 -1;
#X obj 61 128 cnv 15 150 25 empty empty empty 20 12 0 14 -228856 -66577
0;
#X obj 91 133 bng 15 250 50 0 s_sel_13 empty empty 17 7 0 10 -262144
-1 -1;
#X obj 111 133 bng 15 250 50 0 s_sel_14 empty empty 17 7 0 10 -262144
-1 -1;
#X obj 131 133 bng 15 250 50 0 s_sel_15 empty empty 17 7 0 10 -262144
-1 -1;
#X obj 151 133 bng 15 250 50 0 s_sel_16 empty empty 17 7 0 10 -262144
-1 -1;
#X obj 171 133 bng 15 250 50 0 s_sel_17 empty empty 17 7 0 10 -262144
-1 -1;
#X obj 191 133 bng 15 250 50 0 s_sel_18 empty empty 17 7 0 10 -262144
-1 -1;
#X obj 61 154 cnv 15 150 25 empty empty empty 20 12 0 14 -228856 -66577
0;
#X obj 91 159 bng 15 250 50 0 s_sel_19 empty empty 17 7 0 10 -262144
-1 -1;
#X obj 111 159 bng 15 250 50 0 s_sel_20 empty empty 17 7 0 10 -262144
-1 -1;
#X obj 131 159 bng 15 250 50 0 s_sel_21 empty empty 17 7 0 10 -262144
-1 -1;
#X obj 151 159 bng 15 250 50 0 s_sel_22 empty empty 17 7 0 10 -262144
-1 -1;
#X obj 171 159 bng 15 250 50 0 s_sel_23 empty empty 17 7 0 10 -262144
-1 -1;
#X obj 191 159 bng 15 250 50 0 s_sel_24 empty empty 17 7 0 10 -262144
-1 -1;
#X obj 212 76 cnv 15 150 25 empty empty empty 20 12 0 14 -191407 -66577
0;
#X obj 242 81 bng 15 250 50 0 s_sel_25 empty empty 17 7 0 10 -262144
-1 -1;
#X obj 262 81 bng 15 250 50 0 s_sel_26 empty empty 17 7 0 10 -262144
-1 -1;
#X obj 282 81 bng 15 250 50 0 s_sel_27 empty empty 17 7 0 10 -262144
-1 -1;
#X obj 302 81 bng 15 250 50 0 s_sel_28 empty empty 17 7 0 10 -262144
-1 -1;
#X obj 322 81 bng 15 250 50 0 s_sel_29 empty empty 17 7 0 10 -262144
-1 -1;
#X obj 342 81 bng 15 250 50 0 s_sel_30 empty empty 17 7 0 10 -262144
-1 -1;
#X obj 212 102 cnv 15 150 25 empty empty empty 20 12 0 14 -191407 -66577
0;
#X obj 242 107 bng 15 250 50 0 s_sel_31 empty empty 17 7 0 10 -262144
-1 -1;
#X obj 262 107 bng 15 250 50 0 s_sel_32 empty empty 17 7 0 10 -262144
-1 -1;
#X obj 282 107 bng 15 250 50 0 s_sel_33 empty empty 17 7 0 10 -262144
-1 -1;
#X obj 302 107 bng 15 250 50 0 s_sel_34 empty empty 17 7 0 10 -262144
-1 -1;
#X obj 322 107 bng 15 250 50 0 s_sel_35 empty empty 17 7 0 10 -262144
-1 -1;
#X obj 342 107 bng 15 250 50 0 s_sel_36 empty empty 17 7 0 10 -262144
-1 -1;
#X obj 212 128 cnv 15 150 25 empty empty empty 20 12 0 14 -162280 -66577
0;
#X obj 242 133 bng 15 250 50 0 s_sel_37 empty empty 17 7 0 10 -262144
-1 -1;
#X obj 262 133 bng 15 250 50 0 s_sel_38 empty empty 17 7 0 10 -262144
-1 -1;
#X obj 282 133 bng 15 250 50 0 s_sel_39 empty empty 17 7 0 10 -262144
-1 -1;
#X obj 302 133 bng 15 250 50 0 s_sel_40 empty empty 17 7 0 10 -262144
-1 -1;
#X obj 322 133 bng 15 250 50 0 s_sel_41 empty empty 17 7 0 10 -262144
-1 -1;
#X obj 342 133 bng 15 250 50 0 s_sel_42 empty empty 17 7 0 10 -262144
-1 -1;
#X obj 212 154 cnv 15 150 25 empty empty empty 20 12 0 14 -162280 -66577
0;
#X obj 242 159 bng 15 250 50 0 s_sel_43 empty empty 17 7 0 10 -262144
-1 -1;
#X obj 262 159 bng 15 250 50 0 s_sel_44 empty empty 17 7 0 10 -262144
-1 -1;
#X obj 282 159 bng 15 250 50 0 s_sel_45 empty empty 17 7 0 10 -262144
-1 -1;
#X obj 302 159 bng 15 250 50 0 s_sel_46 empty empty 17 7 0 10 -262144
-1 -1;
#X obj 322 159 bng 15 250 50 0 s_sel_47 empty empty 17 7 0 10 -262144
-1 -1;
#X obj 342 159 bng 15 250 50 0 s_sel_48 empty empty 17 7 0 10 -262144
-1 -1;
#X obj 363 76 cnv 15 150 25 empty empty empty 20 12 0 14 -128992 -66577
0;
#X obj 393 81 bng 15 250 50 0 s_sel_49 empty empty 17 7 0 10 -262144
-1 -1;
#X obj 413 81 bng 15 250 50 0 s_sel_50 empty empty 17 7 0 10 -262144
-1 -1;
#X obj 433 81 bng 15 250 50 0 s_sel_51 empty empty 17 7 0 10 -262144
-1 -1;
#X obj 453 81 bng 15 250 50 0 s_sel_52 empty empty 17 7 0 10 -262144
-1 -1;
#X obj 473 81 bng 15 250 50 0 s_sel_53 empty empty 17 7 0 10 -262144
-1 -1;
#X obj 493 81 bng 15 250 50 0 s_sel_54 empty empty 17 7 0 10 -262144
-1 -1;
#X obj 261 197 bng 30 250 50 0 s_save_preset r_save_preset save_preset
-30 -8 0 15 -257985 -1 -1;
#X obj 123 196 bng 30 250 50 0 s_load_preset r_load_preset load_preset
-30 -8 0 15 -257985 -1 -1;
#X floatatom 360 203 5 1 48 2 current_slot r_sel s_sel;
#X obj 581 327 s to_server;
#X obj 363 102 cnv 15 150 25 empty empty empty 20 12 0 14 -128992 -66577
0;
#X obj 393 107 bng 15 250 50 0 s_sel_55 empty empty 17 7 0 10 -262144
-1 -1;
#X obj 413 107 bng 15 250 50 0 s_sel_56 empty empty 17 7 0 10 -262144
-1 -1;
#X obj 433 107 bng 15 250 50 0 s_sel_57 empty empty 17 7 0 10 -262144
-1 -1;
#X obj 453 107 bng 15 250 50 0 s_sel_58 empty empty 17 7 0 10 -262144
-1 -1;
#X obj 473 107 bng 15 250 50 0 s_sel_59 empty empty 17 7 0 10 -262144
-1 -1;
#X obj 493 107 bng 15 250 50 0 s_sel_60 empty empty 17 7 0 10 -262144
-1 -1;
#X obj 363 128 cnv 15 150 25 empty empty empty 20 12 0 14 -99865 -66577
0;
#X obj 393 133 bng 15 250 50 0 s_sel_61 empty empty 17 7 0 10 -262144
-1 -1;
#X obj 413 133 bng 15 250 50 0 s_sel_62 empty empty 17 7 0 10 -262144
-1 -1;
#X obj 433 133 bng 15 250 50 0 s_sel_63 empty empty 17 7 0 10 -262144
-1 -1;
#X obj 453 133 bng 15 250 50 0 s_sel_64 empty empty 17 7 0 10 -262144
-1 -1;
#X obj 473 133 bng 15 250 50 0 s_sel_65 empty empty 17 7 0 10 -262144
-1 -1;
#X obj 493 133 bng 15 250 50 0 s_sel_66 empty empty 17 7 0 10 -262144
-1 -1;
#X obj 363 154 cnv 15 150 25 empty empty empty 20 12 0 14 -99865 -66577
0;
#X obj 393 159 bng 15 250 50 0 s_sel_67 empty empty 17 7 0 10 -262144
-1 -1;
#X obj 413 159 bng 15 250 50 0 s_sel_68 empty empty 17 7 0 10 -262144
-1 -1;
#X obj 433 159 bng 15 250 50 0 s_sel_69 empty empty 17 7 0 10 -262144
-1 -1;
#X obj 453 159 bng 15 250 50 0 s_sel_70 empty empty 17 7 0 10 -262144
-1 -1;
#X obj 473 159 bng 15 250 50 0 s_sel_71 empty empty 17 7 0 10 -262144
-1 -1;
#X obj 493 159 bng 15 250 50 0 s_sel_72 empty empty 17 7 0 10 -262144
-1 -1;
#X connect 1 0 4 0;
#X connect 2 0 77 0;
#X connect 3 0 2 0;
#X connect 4 0 77 0;
#X connect 5 0 6 0;
#X connect 6 0 77 0;
#X connect 7 0 9 0;
#X connect 8 0 77 0;
#X connect 9 0 8 0;
#X coords 0 -1 1 1 470 180 1 50 50;
#X restore 4 388 pd presentStuff;
#N canvas 175 313 953 523 network 0;
#N canvas 136 263 1126 428 basicGui 0;
#X obj 18 23 inlet;
#X obj 18 150 s r_gen1;
#X obj 145 150 s r_gen_b1;
#X obj 382 150 s r_fx1;
#X obj 491 151 s r_fx_b1;
#X obj 18 320 s r_mix1;
#X obj 18 390 s r_fader1;
#X obj 92 390 s r_fader2;
#X obj 229 355 s r_out1;
#X obj 293 355 s r_out2;
#X obj 18 79 route CHANGE_GENERATOR_A CHANGE_GENERATOR_B;
#X obj 382 80 route CHANGE_EFFECT_A CHANGE_EFFECT_B;
#X obj 662 80 route CHANGE_OUTPUT_EFFECT;
#X floatatom 662 163 5 0 0 0 - - -;
#X floatatom 766 164 5 0 0 0 - - -;
#X obj 662 190 s r_fx_output1;
#X obj 766 190 s r_fx_output2;
#X obj 18 356 unpack i i i i;
#X obj 168 390 s r_fader3;
#X obj 242 390 s r_fader4;
#X obj 229 321 unpack i i i i;
#X obj 359 355 s r_out3;
#X obj 423 355 s r_out4;
#X floatatom 862 163 5 0 0 0 - - -;
#X floatatom 966 164 5 0 0 0 - - -;
#X obj 862 190 s r_fx_output3;
#X obj 966 190 s r_fx_output4;
#X obj 662 116 unpack i i i i;
#X obj 285 287 s r_sel;
#X obj 514 315 unpack i i i;
#X obj 514 354 s r_tint_r;
#X obj 594 354 s r_tint_g;
#X obj 674 354 s r_tint_b;
#X obj 771 325 unpack i;
#X obj 771 355 s r_threshold;
#X obj 18 207 route CHANGE_MIXER CHANGE_FADER CHANGE_OUTPUT CHANGE_PRESENT
CHANGE_TINT CHANGE_THRESHOLD_VALUE CHANGE_ROTOZOOM;
#X obj 871 325 unpack i;
#X obj 871 355 s r_rotozoom_angle;
#X obj 18 286 unpack i;
#X obj 491 117 unpack i;
#X obj 382 116 unpack i;
#X obj 18 116 unpack i;
#X obj 145 116 unpack i;
#X obj 878 110 unpack i;
#X obj 977 116 s r_current_visual;
#X obj 878 82 route CURRENT_VISUAL;
#X msg 1022 79 0;
#X connect 0 0 10 0;
#X connect 0 0 35 0;
#X connect 10 0 41 0;
#X connect 10 1 42 0;
#X connect 10 2 11 0;
#X connect 11 0 40 0;
#X connect 11 1 39 0;
#X connect 11 2 12 0;
#X connect 12 0 27 0;
#X connect 12 1 45 0;
#X connect 13 0 15 0;
#X connect 14 0 16 0;
#X connect 17 0 6 0;
#X connect 17 1 7 0;
#X connect 17 2 18 0;
#X connect 17 3 19 0;
#X connect 20 0 8 0;
#X connect 20 1 9 0;
#X connect 20 2 21 0;
#X connect 20 3 22 0;
#X connect 23 0 25 0;
#X connect 24 0 26 0;
#X connect 27 0 13 0;
#X connect 27 1 14 0;
#X connect 27 2 23 0;
#X connect 27 3 24 0;
#X connect 29 0 30 0;
#X connect 29 1 31 0;
#X connect 29 2 32 0;
#X connect 33 0 34 0;
#X connect 35 0 38 0;
#X connect 35 1 17 0;
#X connect 35 2 20 0;
#X connect 35 3 28 0;
#X connect 35 4 29 0;
#X connect 35 5 33 0;
#X connect 35 6 36 0;
#X connect 36 0 37 0;
#X connect 38 0 5 0;
#X connect 39 0 4 0;
#X connect 40 0 3 0;
#X connect 41 0 1 0;
#X connect 42 0 2 0;
#X connect 43 0 44 0;
#X connect 45 0 43 0;
#X connect 46 0 44 0;
#X restore 410 151 pd basicGui;
#N canvas 0 22 1229 498 shuffler 0;
#X obj 42 56 inlet;
#X obj 42 99 route CHANGE_SHUFFLER_SELECT;
#X obj 41 436 s r_rndsel_gen1;
#X obj 151 436 s r_rndsel_gen2;
#X obj 261 436 s r_rndsel_fx1;
#X obj 371 436 s r_rndsel_fx2;
#X obj 481 436 s r_rndsel_mix;
#X obj 591 436 s r_rndsel_mixout;
#X obj 711 436 s r_rndsel_faderout;
#X obj 841 436 s r_rndsel_out;
#X obj 940 436 s r_rndsel_blinken;
#X obj 1067 436 s r_rndsel_image;
#X obj 1065 387 s r_rndsel_tint;
#X obj 1065 337 s r_rndsel_textdef;
#X obj 1052 290 s r_rndsel_threshold;
#X obj 1050 241 s r_rndsel_rotozoom;
#X obj 422 36 unpack i i i i i i i i i i i i i i;
#X connect 0 0 1 0;
#X connect 1 0 16 0;
#X connect 16 0 2 0;
#X connect 16 1 3 0;
#X connect 16 2 4 0;
#X connect 16 3 5 0;
#X connect 16 4 6 0;
#X connect 16 5 7 0;
#X connect 16 6 8 0;
#X connect 16 7 9 0;
#X connect 16 8 10 0;
#X connect 16 9 11 0;
#X connect 16 10 12 0;
#X connect 16 11 13 0;
#X connect 16 12 14 0;
#X connect 16 13 15 0;
#X restore 410 191 pd shuffler;
#X obj 732 397 netsend;
#X obj 640 347 metro 1000;
#X obj 640 321 tgl 15 0 empty empty empty 17 7 0 10 -262144 -1 -1 0
1;
#X msg 640 380 send STATUS;
#X obj 641 413 route 1;
#N canvas 111 22 1169 645 basicGui 0;
#X obj 84 -21 receive s_gen1;
#X floatatom 84 5 5 0 0 0 - - -;
#X floatatom 342 3 5 0 0 0 - - -;
#X obj 342 -23 receive s_gen_b1;
#X floatatom 82 135 5 0 0 0 - - -;
#X obj 82 109 receive s_fx1;
#X floatatom 342 135 5 0 0 0 - - -;
#X obj 342 109 receive s_fx_b1;
#X floatatom 339 273 5 0 0 0 - - -;
#X obj 339 247 receive s_mix1;
#X floatatom 652 126 5 0 0 0 - - -;
#X floatatom 761 126 5 0 0 0 - - -;
#X obj 653 99 receive s_out1;
#X obj 761 100 receive s_out2;
#X obj 627 142 bng 15 250 50 0 empty empty empty 17 7 0 10 -262144
-1 -1;
#X obj 591 163 delay 20;
#X floatatom 652 246 5 0 0 0 - - -;
#X floatatom 761 246 5 0 0 0 - - -;
#X obj 630 263 bng 15 250 50 0 empty empty empty 17 7 0 10 -262144
-1 -1;
#X obj 593 284 delay 20;
#X obj 652 220 receive s_fader1;
#X obj 761 220 receive s_fader2;
#X floatatom 653 366 5 0 0 0 - - -;
#X floatatom 762 366 5 0 0 0 - - -;
#X obj 631 383 bng 15 250 50 0 empty empty empty 17 7 0 10 -262144
-1 -1;
#X obj 594 404 delay 20;
#X obj 653 340 receive s_tint_r;
#X obj 762 340 receive s_tint_g;
#X floatatom 872 366 5 0 0 0 - - -;
#X obj 872 340 receive s_tint_b;
#X obj 653 391 pack i i i;
#X msg 653 415 send CHANGE_TINT \$1 \$2 \$3;
#X floatatom 614 9 5 0 0 0 - - -;
#X floatatom 753 9 5 0 0 0 - - -;
#X obj 592 26 bng 15 250 50 0 empty empty empty 17 7 0 10 -262144 -1
-1;
#X obj 555 47 delay 20;
#X obj 614 -17 receive s_fx_output1;
#X obj 753 -17 receive s_fx_output2;
#X msg 652 173 send CHANGE_OUTPUT \$1 \$2 \$3 \$4;
#X floatatom 862 126 5 0 0 0 - - -;
#X floatatom 971 126 5 0 0 0 - - -;
#X obj 863 99 receive s_out3;
#X obj 971 100 receive s_out4;
#X obj 652 150 pack i i i i;
#X floatatom 872 246 5 0 0 0 - - -;
#X floatatom 981 246 5 0 0 0 - - -;
#X obj 652 271 pack i i i i;
#X obj 872 220 receive s_fader3;
#X obj 981 220 receive s_fader4;
#X msg 652 295 send CHANGE_FADER \$1 \$2 \$3 \$4;
#X obj 614 34 pack i i i i;
#X floatatom 894 9 5 0 0 0 - - -;
#X floatatom 1033 9 5 0 0 0 - - -;
#X obj 894 -17 receive s_fx_output3;
#X obj 1033 -17 receive s_fx_output4;
#X msg 614 58 send CHANGE_OUTPUT_EFFECT \$1 \$2 \$3 \$4;
#X obj 560 592 outlet;
#X floatatom 90 435 5 0 0 0 - - -;
#X obj 90 409 receive s_rotozoom_angle;
#X msg 90 484 send CHANGE_ROTOZOOM \$1;
#X obj 90 459 pack f;
#X obj 339 298 pack i;
#X msg 339 322 send CHANGE_MIXER \$1;
#X obj 84 27 pack i;
#X obj 342 26 pack i;
#X obj 82 158 pack i;
#X obj 342 158 pack i;
#X msg 342 181 send CHANGE_EFFECT_B \$1;
#X msg 82 181 send CHANGE_EFFECT_A \$1;
#X msg 342 50 send CHANGE_GENERATOR_B \$1;
#X msg 84 52 send CHANGE_GENERATOR_A \$1;
#X floatatom 81 285 5 0 0 0 - - -;
#X obj 81 308 pack i;
#X obj 81 259 receive s_current_visual;
#X msg 81 331 send CURRENT_VISUAL \$1;
#X connect 0 0 1 0;
#X connect 1 0 63 0;
#X connect 2 0 64 0;
#X connect 3 0 2 0;
#X connect 4 0 65 0;
#X connect 5 0 4 0;
#X connect 6 0 66 0;
#X connect 7 0 6 0;
#X connect 8 0 61 0;
#X connect 9 0 8 0;
#X connect 10 0 43 0;
#X connect 11 0 14 0;
#X connect 11 0 43 1;
#X connect 12 0 10 0;
#X connect 13 0 11 0;
#X connect 14 0 15 0;
#X connect 15 0 43 0;
#X connect 16 0 46 0;
#X connect 17 0 18 0;
#X connect 17 0 46 1;
#X connect 18 0 19 0;
#X connect 19 0 46 0;
#X connect 20 0 16 0;
#X connect 21 0 17 0;
#X connect 22 0 30 0;
#X connect 23 0 24 0;
#X connect 23 0 30 1;
#X connect 24 0 25 0;
#X connect 25 0 30 0;
#X connect 26 0 22 0;
#X connect 27 0 23 0;
#X connect 28 0 30 2;
#X connect 28 0 24 0;
#X connect 29 0 28 0;
#X connect 30 0 31 0;
#X connect 31 0 56 0;
#X connect 32 0 50 0;
#X connect 33 0 34 0;
#X connect 33 0 50 1;
#X connect 34 0 35 0;
#X connect 35 0 50 0;
#X connect 36 0 32 0;
#X connect 37 0 33 0;
#X connect 38 0 56 0;
#X connect 39 0 43 2;
#X connect 39 0 14 0;
#X connect 40 0 43 3;
#X connect 40 0 14 0;
#X connect 41 0 39 0;
#X connect 42 0 40 0;
#X connect 43 0 38 0;
#X connect 44 0 46 2;
#X connect 44 0 18 0;
#X connect 45 0 46 3;
#X connect 45 0 18 0;
#X connect 46 0 49 0;
#X connect 47 0 44 0;
#X connect 48 0 45 0;
#X connect 49 0 56 0;
#X connect 50 0 55 0;
#X connect 51 0 50 2;
#X connect 51 0 34 0;
#X connect 52 0 50 3;
#X connect 52 0 34 0;
#X connect 53 0 51 0;
#X connect 54 0 52 0;
#X connect 55 0 56 0;
#X connect 57 0 60 0;
#X connect 58 0 57 0;
#X connect 59 0 56 0;
#X connect 60 0 59 0;
#X connect 61 0 62 0;
#X connect 62 0 56 0;
#X connect 63 0 70 0;
#X connect 64 0 69 0;
#X connect 65 0 68 0;
#X connect 66 0 67 0;
#X connect 67 0 56 0;
#X connect 68 0 56 0;
#X connect 69 0 56 0;
#X connect 70 0 56 0;
#X connect 71 0 72 0;
#X connect 72 0 74 0;
#X connect 73 0 71 0;
#X connect 74 0 56 0;
#X restore 768 322 pd basicGui;
#N canvas 0 22 729 300 textureDeformation 0;
#X obj 346 226 outlet;
#X obj 37 58 r s_td_5;
#X msg 37 93 send TEXTDEF 5;
#X obj 147 58 r s_td_7;
#X msg 147 93 send TEXTDEF 7;
#X msg 257 93 send TEXTDEF 9;
#X obj 257 58 r s_td_9;
#X obj 367 58 r s_td_10;
#X msg 367 93 send TEXTDEF 10;
#X obj 487 58 r s_td_11;
#X msg 487 93 send TEXTDEF 11;
#X obj 597 58 r s_td_4;
#X msg 597 93 send TEXTDEF 4;
#X connect 1 0 2 0;
#X connect 2 0 0 0;
#X connect 3 0 4 0;
#X connect 4 0 0 0;
#X connect 5 0 0 0;
#X connect 6 0 5 0;
#X connect 7 0 8 0;
#X connect 8 0 0 0;
#X connect 9 0 10 0;
#X connect 10 0 0 0;
#X connect 11 0 12 0;
#X connect 12 0 0 0;
#X restore 770 221 pd textureDeformation;
#N canvas 607 166 673 328 generator 0;
#X obj 167 45 r blinkenfile;
#X obj 49 47 r textwriter;
#X msg 49 101 send TEXTWR \$1;
#X obj 49 74 symbol;
#X obj 167 72 symbol;
#X msg 167 102 send BLINKEN \$1;
#X obj 277 194 outlet;
#X obj 311 45 r image;
#X obj 311 72 symbol;
#X msg 311 102 send IMAGE \$1;
#X obj 433 45 r change_lut;
#X obj 433 72 symbol;
#X msg 433 103 send TEXTDEF_FILE \$1;
#X connect 0 0 4 0;
#X connect 1 0 3 0;
#X connect 2 0 6 0;
#X connect 3 0 2 0;
#X connect 4 0 5 0;
#X connect 5 0 6 0;
#X connect 7 0 8 0;
#X connect 8 0 9 0;
#X connect 9 0 6 0;
#X connect 10 0 11 0;
#X connect 11 0 12 0;
#X connect 12 0 6 0;
#X restore 771 270 pd generator;
#X obj 50 50 cnv 15 200 140 empty empty //network 20 12 0 14 -233017
-1 0;
#X floatatom 196 115 5 0 0 3 clients - -;
#X obj 536 8 r s_connect;
#X obj 516 43 cnv 15 200 100 empty empty send_to_server 20 12 0 14
-258113 -66577 0;
#X msg 536 88 connect 127.0.0.1 3448;
#X obj 289 43 cnv 15 200 100 empty empty receive_from_server 20 12
0 14 -258113 -66577 0;
#X obj 317 89 netreceive 3449;
#X obj 54 76 bng 30 250 50 0 s_connect r_connect Connect 35 15 0 15
-257985 -1 -1;
#X obj 54 113 bng 30 250 50 0 s_disconnect r_disconnect Disconnect
35 15 0 15 -257985 -1 -1;
#X floatatom 195 75 5 0 0 3 server - -;
#X obj 32 404 cnv 15 240 80 empty empty sound_display 20 12 0 14 -257985
-66577 0;
#X obj 55 432 route SND_HAT SND_SNARE SND_KICK;
#X obj 50 320 cnv 15 200 70 empty empty //beat_detect 20 12 0 14 -233017
-33289 0;
#X obj 85 342 tgl 20 0 empty r_snd_kick kick 0 30 0 10 -257985 -1 -1
0 1;
#X obj 136 342 tgl 20 0 empty r_snd_hat hat 0 30 0 10 -257985 -1 -1
0 1;
#X obj 186 342 tgl 20 0 empty r_snd_snare snare 0 30 0 10 -257985 -1
-1 0 1;
#X obj 732 89 r to_server;
#X msg 763 166 disconnect;
#X obj 763 143 r s_disconnect;
#X obj 287 327 cnv 15 220 150 empty empty autoconnect 20 12 0 14 -257985
-66577 0;
#X obj 301 396 bng 15 250 50 0 empty empty Connect -13 22 0 10 -262144
-1 -1;
#X obj 340 396 bng 15 250 50 0 empty empty Disconnect 0 22 0 10 -262144
-1 -1;
#X obj 301 438 s r_connect;
#X obj 301 363 route 1 2;
#X obj 398 440 s s_disconnect;
#X obj 408 231 send s_core_msg;
#X floatatom 94 156 5 0 0 3 osc_server - -;
#X floatatom 163 155 5 0 0 3 osc_client - -;
#X obj 45 239 cnv 15 200 60 empty empty OSC_processing 20 12 0 14 -260097
-66577 0;
#N canvas 429 282 1170 718 osc 0;
#X obj 6 6 import mrpeach;
#X obj 39 119 unpackOSC;
#X msg 680 78 disconnect;
#X obj 679 54 r s_disconnect;
#X obj 668 290 outlet;
#N canvas 449 22 831 620 sendToOsc 0;
#X obj 608 545 outlet;
#X obj 28 89 route CHANGE_GENERATOR_A CHANGE_GENERATOR_B;
#X obj 355 90 route CHANGE_EFFECT_A CHANGE_EFFECT_B;
#X obj 643 92 route CHANGE_OUTPUT_EFFECT;
#X obj 28 277 route CHANGE_MIXER CHANGE_FADER CHANGE_OUTPUT CHANGE_PRESENT
CHANGE_TINT CHANGE_THRESHOLD_VALUE;
#X msg 472 399 send /1/fader1 \$1;
#X obj 222 497 / 256;
#X obj 303 497 / 256;
#X obj 382 496 / 256;
#X msg 303 554 send /1/fader3 \$1;
#X msg 382 524 send /1/fader4 \$1;
#X msg 222 528 send /1/fader2 \$1;
#X obj 430 333 unpack f;
#X obj 430 372 / 256;
#X obj 222 332 unpack f f f;
#X obj 498 332 r s_threshold;
#X text 135 28 Messages from Server;
#X obj 151 476 r s_tint_r;
#X obj 151 444 r s_tint_g;
#X obj 151 412 r s_tint_b;
#X obj 28 28 r s_core_msg;
#X connect 1 2 2 0;
#X connect 2 2 3 0;
#X connect 3 1 4 0;
#X connect 4 4 14 0;
#X connect 4 5 12 0;
#X connect 5 0 0 0;
#X connect 6 0 11 0;
#X connect 7 0 9 0;
#X connect 8 0 10 0;
#X connect 9 0 0 0;
#X connect 10 0 0 0;
#X connect 11 0 0 0;
#X connect 12 0 13 0;
#X connect 13 0 5 0;
#X connect 14 0 6 0;
#X connect 14 1 7 0;
#X connect 14 2 8 0;
#X connect 15 0 13 0;
#X connect 17 0 6 0;
#X connect 18 0 7 0;
#X connect 19 0 8 0;
#X connect 20 0 1 0;
#X restore 746 109 pd sendToOsc;
#X floatatom 616 292 5 0 0 0 - - -;
#X obj 616 246 udpsend;
#X obj 746 177 packOSC;
#X obj 801 151 print;
#X obj 39 88 udpreceive 4443;
#X floatatom 109 145 3 0 0 0 - - -;
#X floatatom 136 145 3 0 0 0 - - -;
#X floatatom 163 145 3 0 0 0 - - -;
#X floatatom 190 145 3 0 0 0 - - -;
#X text 66 144 from;
#X floatatom 218 145 5 0 0 0 - - -;
#X obj 109 119 unpack 0 0 0 0 0;
#X obj 218 171 > 0;
#X floatatom 218 199 5 0 0 0 - - -;
#X obj 218 251 outlet;
#X obj 308 13 bng 15 250 50 0 empty empty autoconnect 17 7 0 10 -262144
-1 -1;
#X obj 260 415 routeOSC /fx;
#X obj 522 432 routeOSC /rnd;
#X obj 765 621 print NOT;
#X obj 39 398 routeOSC /gen;
#X obj 523 526 routeOSC /visual;
#X obj 353 133 delay 800;
#X obj 523 642 s r_current_visual;
#X obj 523 547 unpack i;
#X text 52 367 //FROM OSC MESSAGE;
#X floatatom 523 571 5 0 0 0 - - -;
#X obj 523 617 spigot;
#X floatatom 573 571 5 0 0 0 - - -;
#X obj 556 595 !=;
#X obj 39 453 routeOSC /1;
#X obj 39 477 unpack i;
#X floatatom 39 501 5 0 0 0 - - -;
#X obj 39 547 spigot;
#X floatatom 89 501 5 0 0 0 - - -;
#X obj 72 525 !=;
#X obj 127 574 unpack i;
#X floatatom 127 598 5 0 0 0 - - -;
#X obj 127 644 spigot;
#X floatatom 177 598 5 0 0 0 - - -;
#X obj 160 622 !=;
#X obj 127 453 routeOSC /2;
#X obj 39 572 s r_gen1;
#X obj 127 669 s r_gen_b1;
#X obj 522 456 s r_rnd_do;
#X obj 260 454 routeOSC /1;
#X obj 260 478 unpack i;
#X floatatom 260 502 5 0 0 0 - - -;
#X obj 260 548 spigot;
#X floatatom 310 502 5 0 0 0 - - -;
#X obj 293 526 !=;
#X obj 348 575 unpack i;
#X floatatom 348 599 5 0 0 0 - - -;
#X obj 348 645 spigot;
#X floatatom 398 599 5 0 0 0 - - -;
#X obj 381 623 !=;
#X obj 348 454 routeOSC /2;
#X obj 260 573 s r_fx1;
#X obj 348 670 s r_fx_b1;
#X obj 684 453 unpack i;
#X floatatom 684 477 5 0 0 0 - - -;
#X obj 684 523 spigot;
#X floatatom 734 477 5 0 0 0 - - -;
#X obj 717 501 !=;
#X obj 684 548 s r_mix1;
#X obj 684 432 routeOSC /mixer;
#X obj 344 174 cnv 15 250 60 empty empty create_kontroleur_gui 20 12
0 14 -4034 -66577 0;
#N canvas 53 260 781 425 kkontrolleur 0;
#X msg 398 204 sendtyped /k/add sssfffff /aaa param Slider 2 0 12 1
2;
#X obj 269 274 packOSC;
#X obj 162 95 delay 150;
#X obj 162 115 delay 200;
#X obj 162 135 delay 250;
#X obj 162 155 delay 300;
#X obj 270 359 outlet;
#X obj 16 33 inlet;
#X obj 83 31 bng 15 250 50 0 empty empty empty 17 7 0 10 -262144 -1
-1;
#X msg 316 90 sendtyped /k/add sssfffff /fx/1 fx1 Slider 0 0 8 1 0
;
#X msg 267 31 sendtyped /k/add sssfffff /visual visual Slider 0 0 4
1 0;
#X msg 284 51 sendtyped /k/add sssfffff /rnd/all rnd Bang 0 0 11 1
1;
#X msg 301 71 sendtyped /k/add sssfffff /gen/1 gen1 Slider 0 0 13 1
1;
#X msg 326 110 sendtyped /k/add sssfffff /gen/2 gen2 Slider 0 0 13
1 0;
#X msg 348 131 sendtyped /k/add sssfffff /fx/2 fx2 Slider 0 0 8 1 0
;
#X msg 358 151 sendtyped /k/add sssfffff /mixer mix Slider 0 0 8 1
0;
#X obj 162 75 delay 100;
#X obj 162 55 delay 350;
#X connect 1 0 6 0;
#X connect 2 0 9 0;
#X connect 3 0 13 0;
#X connect 4 0 14 0;
#X connect 5 0 15 0;
#X connect 7 0 8 0;
#X connect 8 0 10 0;
#X connect 8 0 2 0;
#X connect 8 0 3 0;
#X connect 8 0 4 0;
#X connect 8 0 5 0;
#X connect 8 0 16 0;
#X connect 8 0 17 0;
#X connect 9 0 1 0;
#X connect 10 0 1 0;
#X connect 11 0 1 0;
#X connect 12 0 1 0;
#X connect 13 0 1 0;
#X connect 14 0 1 0;
#X connect 15 0 1 0;
#X connect 16 0 12 0;
#X connect 17 0 11 0;
#X restore 355 201 pd kkontrolleur;
#X obj 279 342 routeOSC /init;
#X msg 616 28 connect 192.168.111.17 4444;
#X obj 69 197 print;
#X obj 829 266 cnv 15 300 300 empty empty touchOSC 20 12 0 14 -203904
-66577 0;
#X obj 850 498 s xypad_x;
#X obj 850 351 unpack f f;
#X floatatom 850 443 5 0 0 0 - - -;
#X obj 39 318 routeOSC /k /3;
#X obj 849 326 routeOSC /xy2;
#X obj 850 408 int;
#X obj 850 384 * 255;
#X obj 907 408 int;
#X obj 936 516 s xypad_y;
#X floatatom 936 494 5 0 0 0 - - -;
#X obj 907 431 bng 15 250 50 0 empty empty empty 17 7 0 10 -262144
-1 -1;
#X floatatom 936 446 5 0 0 0 - - -;
#X floatatom 982 448 5 0 0 0 - - -;
#X obj 936 471 -;
#X obj 907 384 * 50;
#X obj 652 208 cnv 15 360 25 empty empty //OSC_Disabled_connect_oackOSC_to_SEND
20 12 0 14 -258113 -66577 0;
#X connect 1 0 80 0;
#X connect 2 0 7 0;
#X connect 3 0 2 0;
#X connect 5 0 8 0;
#X connect 7 0 4 0;
#X connect 7 0 6 0;
#X connect 10 0 17 0;
#X connect 10 0 1 0;
#X connect 16 0 18 0;
#X connect 17 0 11 0;
#X connect 17 1 12 0;
#X connect 17 2 13 0;
#X connect 17 3 14 0;
#X connect 17 4 16 0;
#X connect 18 0 19 0;
#X connect 19 0 20 0;
#X connect 21 0 74 0;
#X connect 21 0 27 0;
#X connect 22 0 50 0;
#X connect 22 1 73 0;
#X connect 23 0 49 0;
#X connect 23 1 26 0;
#X connect 25 0 35 0;
#X connect 25 1 22 0;
#X connect 26 0 29 0;
#X connect 26 1 70 0;
#X connect 27 0 72 0;
#X connect 29 0 31 0;
#X connect 31 0 32 0;
#X connect 31 0 34 0;
#X connect 32 0 28 0;
#X connect 32 0 33 0;
#X connect 33 0 34 1;
#X connect 34 0 32 1;
#X connect 35 0 36 0;
#X connect 35 1 46 0;
#X connect 36 0 37 0;
#X connect 37 0 38 0;
#X connect 37 0 40 0;
#X connect 38 0 39 0;
#X connect 38 0 47 0;
#X connect 39 0 40 1;
#X connect 40 0 38 1;
#X connect 41 0 42 0;
#X connect 42 0 43 0;
#X connect 42 0 45 0;
#X connect 43 0 44 0;
#X connect 43 0 48 0;
#X connect 44 0 45 1;
#X connect 45 0 43 1;
#X connect 46 0 41 0;
#X connect 50 0 51 0;
#X connect 50 1 61 0;
#X connect 51 0 52 0;
#X connect 52 0 53 0;
#X connect 52 0 55 0;
#X connect 53 0 54 0;
#X connect 53 0 62 0;
#X connect 54 0 55 1;
#X connect 55 0 53 1;
#X connect 56 0 57 0;
#X connect 57 0 58 0;
#X connect 57 0 60 0;
#X connect 58 0 59 0;
#X connect 58 0 63 0;
#X connect 59 0 60 1;
#X connect 60 0 58 1;
#X connect 61 0 56 0;
#X connect 64 0 65 0;
#X connect 65 0 66 0;
#X connect 65 0 68 0;
#X connect 66 0 67 0;
#X connect 66 0 69 0;
#X connect 67 0 68 1;
#X connect 68 0 66 1;
#X connect 70 0 64 0;
#X connect 70 1 24 0;
#X connect 72 0 7 0;
#X connect 73 0 21 0;
#X connect 73 1 23 0;
#X connect 74 0 7 0;
#X connect 78 0 83 0;
#X connect 78 1 91 0;
#X connect 79 0 77 0;
#X connect 80 0 25 0;
#X connect 80 1 81 0;
#X connect 81 0 78 0;
#X connect 82 0 79 0;
#X connect 83 0 82 0;
#X connect 84 0 89 0;
#X connect 84 0 87 0;
#X connect 86 0 85 0;
#X connect 87 0 88 0;
#X connect 88 0 90 0;
#X connect 89 0 90 1;
#X connect 90 0 86 0;
#X connect 91 0 84 0;
#X restore 82 268 pd osc;
#X connect 2 0 19 0;
#X connect 2 0 6 0;
#X connect 3 0 5 0;
#X connect 4 0 3 0;
#X connect 5 0 2 0;
#X connect 6 0 5 0;
#X connect 7 0 2 0;
#X connect 8 0 2 0;
#X connect 9 0 2 0;
#X connect 11 0 33 0;
#X connect 12 0 14 0;
#X connect 14 0 2 0;
#X connect 16 0 0 0;
#X connect 16 0 1 0;
#X connect 16 0 35 0;
#X connect 16 1 11 0;
#X connect 21 0 24 0;
#X connect 21 1 25 0;
#X connect 21 2 23 0;
#X connect 26 0 2 0;
#X connect 27 0 2 0;
#X connect 28 0 27 0;
#X connect 30 0 32 0;
#X connect 31 0 34 0;
#X connect 33 0 30 0;
#X connect 33 1 30 0;
#X connect 33 2 31 0;
#X connect 39 0 37 0;
#X connect 39 1 36 0;
#X coords 0 -1 1 1 200 140 1 50 50;
#X restore 478 388 pd network;
#N canvas 60 38 815 243 output4all 0;
#X obj 424 167 s r_out1;
#X obj 532 168 s r_out2;
#X obj 634 167 s r_out3;
#X obj 742 168 s r_out4;
#X obj 401 127 s r_fader1;
#X obj 510 127 s r_fader2;
#X obj 621 127 s r_fader3;
#X obj 730 127 s r_fader4;
#X obj 292 96 s r_fx_output1;
#X obj 431 96 s r_fx_output2;
#X obj 572 96 s r_fx_output3;
#X obj 711 96 s r_fx_output4;
#X obj 50 50 cnv 15 160 110 empty empty //output_map 20 12 0 14 -204786
-66577 0;
#X obj 59 120 hradio 15 1 0 5 empty r_outall empty 0 -8 0 10 -228856
-1 -1 2;
#X obj 59 98 hradio 15 1 0 4 empty empty empty 0 -8 0 10 -228856 -1
-1 0;
#X obj 59 76 hradio 15 1 0 9 empty empty empty 0 -8 0 10 -228856 -1
-1 0;
#X connect 13 0 0 0;
#X connect 13 0 1 0;
#X connect 13 0 2 0;
#X connect 13 0 3 0;
#X connect 14 0 4 0;
#X connect 14 0 5 0;
#X connect 14 0 6 0;
#X connect 14 0 7 0;
#X connect 15 0 8 0;
#X connect 15 0 9 0;
#X connect 15 0 10 0;
#X connect 15 0 11 0;
#X coords 0 -1 1 1 160 110 1 50 50;
#X restore 733 274 pd output4all;
#X text 57 106 Effects: Off \, Inverter \, Rotozoom \, Beat horizontal
shift \, Beat vertical shift \, Voluminize \, Tint \, Threshold \,
Emboss;
#X text 79 365 Fader: Off \, Crossfade \, UpsideDown \, LeftToRight
;
#X obj 342 -17 hradio 15 1 0 5 s_current_visual r_current_visual VisualNr
-60 8 0 10 -262144 -1 -1 2;
#X text 58 6 Generators: Off \, Blinken \, ImagePlasma \, Simplecolors
\, Fire \, Metaballs \, PixelimgTexturedeformation \, Textwriter \,
Cell \, Plasma2 \, Frequency \, Drops;
#X text 60 190 Mixer: Off \, AddSat \, Multiply \, Mix \, Neg \, Multiply
\, Checkb \, Xor \, MinusHalf \, Either;
#N canvas 90 22 1046 592 xypad 0;
#X floatatom 223 65 5 0 0 3 x_pos - -;
#X floatatom 222 108 5 0 0 3 y_pos - -;
#X obj 308 255 int;
#X floatatom 574 206 5 0 0 0 - - -;
#X obj 574 182 int;
#X text 559 119 generator;
#X floatatom 697 206 5 0 0 0 - - -;
#X obj 697 182 int;
#X text 698 120 fx;
#X obj 697 158 / 30;
#X obj 574 158 / 18;
#X floatatom 437 359 5 0 0 0 - - -;
#X obj 437 293 > 89;
#X text 437 264 gen1;
#X text 547 259 fx1;
#X obj 529 289 > 79;
#X floatatom 529 312 5 0 0 0 - - -;
#X floatatom 568 312 5 0 0 0 - - -;
#X obj 568 289 < 90;
#X obj 546 333 &;
#X floatatom 545 361 5 0 0 0 - - -;
#X floatatom 663 312 5 0 0 0 - - -;
#X floatatom 702 312 5 0 0 0 - - -;
#X obj 680 333 &;
#X floatatom 679 361 5 0 0 0 - - -;
#X text 681 259 gen2;
#X obj 702 289 < 80;
#X obj 663 289 > 69;
#X floatatom 784 312 5 0 0 0 - - -;
#X floatatom 823 312 5 0 0 0 - - -;
#X obj 801 333 &;
#X floatatom 800 361 5 0 0 0 - - -;
#X obj 777 333 bng 15 250 50 0 empty empty empty 17 7 0 10 -262144
-1 -1;
#X text 802 259 fx2;
#X obj 784 289 > 59;
#X obj 823 289 < 70;
#X obj 512 391 spigot;
#X obj 404 390 spigot;
#X obj 404 416 s r_gen1;
#X obj 512 417 s r_fx1;
#X obj 767 390 spigot;
#X obj 767 416 s r_fx_b1;
#X obj 646 390 spigot;
#X obj 646 415 s r_gen_b1;
#X floatatom 917 312 5 0 0 0 - - -;
#X floatatom 956 312 5 0 0 0 - - -;
#X obj 934 333 &;
#X floatatom 933 361 5 0 0 0 - - -;
#X obj 910 333 bng 15 250 50 0 empty empty empty 17 7 0 10 -262144
-1 -1;
#X obj 900 390 spigot;
#X obj 956 289 < 60;
#X obj 917 289 > 49;
#X text 935 259 mixer;
#X obj 900 416 s r_mix1;
#X floatatom 889 210 5 0 0 0 - - -;
#X obj 889 186 int;
#X text 890 124 mixer;
#X obj 889 162 / 26;
#X obj 139 321 cursor;
#X obj 139 347 route motion;
#X obj 139 378 route x y;
#X obj 29 218 tgl 15 0 empty r_tgl_emulate emulate_xy_pad_with_mouse
17 7 0 10 -262144 -1 -1 0 1;
#X obj 139 443 mod 256;
#X obj 10 10 grid grid1 200 0 255 200 0 99 1 1 1 10 10 482 54;
#X obj 164 414 mod 100;
#X obj 656 333 bng 15 250 50 0 empty empty empty 17 7 0 10 -262144
-1 -1;
#X obj 516 334 bng 15 250 50 0 empty empty empty 17 7 0 10 -262144
-1 -1;
#X obj 240 257 int;
#X obj 307 15 r xypad_x;
#X obj 307 45 r xypad_y;
#X connect 0 0 9 0;
#X connect 0 0 10 0;
#X connect 0 0 57 0;
#X connect 1 0 12 0;
#X connect 1 0 15 0;
#X connect 1 0 18 0;
#X connect 1 0 26 0;
#X connect 1 0 27 0;
#X connect 1 0 34 0;
#X connect 1 0 35 0;
#X connect 1 0 51 0;
#X connect 1 0 50 0;
#X connect 2 0 1 0;
#X connect 3 0 42 0;
#X connect 3 0 37 0;
#X connect 4 0 3 0;
#X connect 6 0 36 0;
#X connect 6 0 40 0;
#X connect 7 0 6 0;
#X connect 9 0 7 0;
#X connect 10 0 4 0;
#X connect 11 0 37 1;
#X connect 12 0 11 0;
#X connect 15 0 16 0;
#X connect 16 0 19 0;
#X connect 17 0 19 1;
#X connect 17 0 66 0;
#X connect 18 0 17 0;
#X connect 19 0 20 0;
#X connect 20 0 36 1;
#X connect 21 0 23 0;
#X connect 22 0 23 1;
#X connect 22 0 65 0;
#X connect 23 0 24 0;
#X connect 24 0 42 1;
#X connect 26 0 22 0;
#X connect 27 0 21 0;
#X connect 28 0 30 0;
#X connect 29 0 30 1;
#X connect 29 0 32 0;
#X connect 30 0 31 0;
#X connect 31 0 40 1;
#X connect 32 0 30 0;
#X connect 34 0 28 0;
#X connect 35 0 29 0;
#X connect 36 0 39 0;
#X connect 37 0 38 0;
#X connect 40 0 41 0;
#X connect 42 0 43 0;
#X connect 44 0 46 0;
#X connect 45 0 46 1;
#X connect 45 0 48 0;
#X connect 46 0 47 0;
#X connect 47 0 49 1;
#X connect 48 0 46 0;
#X connect 49 0 53 0;
#X connect 50 0 45 0;
#X connect 51 0 44 0;
#X connect 54 0 49 0;
#X connect 55 0 54 0;
#X connect 57 0 55 0;
#X connect 58 0 59 0;
#X connect 59 0 60 0;
#X connect 60 0 62 0;
#X connect 60 1 64 0;
#X connect 61 0 58 0;
#X connect 62 0 0 0;
#X connect 63 0 67 0;
#X connect 63 1 2 0;
#X connect 64 0 1 0;
#X connect 65 0 23 0;
#X connect 66 0 19 0;
#X connect 67 0 0 0;
#X connect 68 0 0 0;
#X connect 69 0 1 0;
#X coords 0 -1 1 1 250 230 1 10 10;
#X restore 439 22 pd xypad;
