#N canvas 198 22 1082 662 10;
#X declare -lib mrpeach;
#X obj 4 -3 cnv 15 1020 174 empty empty visuals 20 12 0 14 -204786
-66577 0;
#X obj 63 32 hradio 15 1 0 13 s_gen1 r_gen1 empty 0 -8 0 10 -203904
-1 -1 12;
#X obj 264 32 hradio 15 1 0 13 s_gen2 r_gen2 empty 0 -8 0 10 -203904
-1 -1 6;
#X obj 465 32 hradio 15 1 0 13 s_gen3 r_gen3 empty 0 -8 0 10 -203904
-1 -1 4;
#X obj 63 54 hradio 15 1 0 9 s_fx1 r_fx1 empty 0 -8 0 10 -262130 -1
-1 0;
#X obj 264 54 hradio 15 1 0 9 s_fx2 r_fx2 empty 0 -8 0 10 -262130 -1
-1 0;
#X obj 465 54 hradio 15 1 0 9 s_fx3 r_fx3 empty 0 -8 0 10 -262130 -1
-1 0;
#X obj 64 87 hradio 15 1 0 13 s_gen_b1 r_gen_b1 empty 0 -8 0 10 -203904
-1 -1 0;
#X obj 264 87 hradio 15 1 0 13 s_gen_b2 r_gen_b2 empty 0 -8 0 10 -203904
-1 -1 0;
#X obj 465 87 hradio 15 1 0 13 s_gen_b3 r_gen_b3 empty 0 -8 0 10 -203904
-1 -1 0;
#X obj 64 109 hradio 15 1 0 9 s_fx_b1 r_fx_b1 empty 0 -8 0 10 -262130
-1 -1 0;
#X obj 264 109 hradio 15 1 0 9 s_fx_b2 r_fx_b2 empty 0 -8 0 10 -262130
-1 -1 0;
#X obj 465 109 hradio 15 1 0 9 s_fx_b3 r_fx_b3 empty 0 -8 0 10 -262130
-1 -1 0;
#X obj 65 140 hradio 15 1 0 9 s_mix1 r_mix1 empty 0 -8 0 10 -262144
-1 -1 0;
#X obj 264 140 hradio 15 1 0 9 s_mix2 r_mix2 empty 0 -8 0 10 -262144
-1 -1 0;
#X obj 465 140 hradio 15 1 0 9 s_mix3 r_mix3 empty 0 -8 0 10 -262144
-1 -1 0;
#X obj 667 32 hradio 15 1 0 13 s_gen4 r_gen4 empty 0 -8 0 10 -203904
-1 -1 3;
#X obj 667 54 hradio 15 1 0 9 s_fx4 r_fx4 empty 0 -8 0 10 -262130 -1
-1 0;
#X obj 667 87 hradio 15 1 0 13 s_gen_b4 r_gen_b4 empty 0 -8 0 10 -203904
-1 -1 0;
#X obj 667 109 hradio 15 1 0 9 s_fx_b4 r_fx_b4 empty 0 -8 0 10 -262130
-1 -1 0;
#X obj 667 140 hradio 15 1 0 9 s_mix4 r_mix4 empty 0 -8 0 10 -262144
-1 -1 0;
#X obj 4 -79 cnv 15 1020 70 empty empty empty 20 12 0 14 -228856 -66577
0;
#X obj 17 32 tgl 15 0 s_rndsel_gen1 r_rndsel_gen1 empty 17 7 0 10 -260097
-1 -1 1 1;
#X obj 17 54 tgl 15 0 s_rndsel_fx1 r_rndsel_fx1 empty 17 7 0 10 -260097
-1 -1 1 1;
#X obj 17 87 tgl 15 0 s_rndsel_gen2 r_rndsel_gen2 empty 17 7 0 10 -260097
-1 -1 1 1;
#X obj 17 109 tgl 15 0 s_rndsel_fx2 r_rndsel_fx2 empty 17 7 0 10 -260097
-1 -1 1 1;
#X obj 17 140 tgl 15 0 s_rndsel_mix r_rndsel_mix empty 17 7 0 10 -260097
-1 -1 1 1;
#X obj 4 177 cnv 15 730 100 empty empty output 20 12 0 14 -204786 -66577
0;
#X obj 106 251 hradio 15 1 0 5 s_out1 r_out1 empty 0 -8 0 10 -262144
-1 -1 0;
#X obj 268 251 hradio 15 1 0 5 s_out2 r_out2 empty 0 -8 0 10 -262144
-1 -1 1;
#X text 38 227 Fader;
#X obj 106 229 hradio 15 1 0 4 s_fader1 r_fader1 empty 0 -8 0 10 -262144
-1 -1 0;
#X obj 268 229 hradio 15 1 0 4 s_fader2 r_fader2 empty 0 -8 0 10 -262144
-1 -1 0;
#X obj 106 207 hradio 15 1 0 9 s_fx_output1 r_fx_output1 empty 0 -8
0 10 -262130 -1 -1 0;
#X obj 268 207 hradio 15 1 0 9 s_fx_output2 r_fx_output2 empty 0 -8
0 10 -262130 -1 -1 0;
#X text 38 204 Effect;
#X obj 429 251 hradio 15 1 0 5 s_out3 r_out3 empty 0 -8 0 10 -262144
-1 -1 2;
#X obj 591 251 hradio 15 1 0 5 s_out4 r_out4 empty 0 -8 0 10 -262144
-1 -1 3;
#X obj 429 229 hradio 15 1 0 4 s_fader3 r_fader3 empty 0 -8 0 10 -262144
-1 -1 0;
#X obj 591 229 hradio 15 1 0 4 s_fader4 r_fader4 empty 0 -8 0 10 -262144
-1 -1 0;
#X obj 429 207 hradio 15 1 0 9 s_fx_output3 r_fx_output3 empty 0 -8
0 10 -262130 -1 -1 0;
#X obj 591 207 hradio 15 1 0 9 s_fx_output4 r_fx_output4 empty 0 -8
0 10 -262130 -1 -1 0;
#X obj 17 207 tgl 15 0 s_rndsel_mixout r_rndsel_mixout empty 17 7 0
10 -260097 -1 -1 1 1;
#X obj 17 228 tgl 15 0 s_rndsel_faderout r_rndsel_faderout empty 17
7 0 10 -260097 -1 -1 1 1;
#X obj 17 250 tgl 15 0 s_rndsel_out r_rndsel_out empty 17 7 0 10 -260097
-1 -1 1 1;
#X text 105 188 output #1;
#X text 269 188 output #2;
#X text 429 188 output #3;
#X text 589 188 output #4;
#X text 74 14 visual #1;
#X text 265 14 visual #2;
#X text 465 14 visual #3;
#X text 665 14 visual #4;
#X text 38 248 Visual;
#X text 32 53 FX1;
#X text 32 31 GEN1;
#X text 32 86 GEN2;
#X text 32 108 FX2;
#X text 32 139 MIX;
#X obj 358 282 cnv 15 140 140 empty empty Misc 20 12 0 14 -203904 -66577
0;
#N canvas 332 128 821 306 gen 0;
#X obj 10 13 cnv 15 150 266 empty empty blinken 20 12 0 14 -203904
-66577 0;
#X obj 22 250 send blinkenfile;
#X obj 166 13 cnv 15 150 266 empty empty image 20 12 0 14 -203904 -66577
0;
#X obj 178 249 send image;
#X obj 141 17 tgl 15 0 s_rndsel_blinken r_rndsel_blinken empty 17 7
0 10 -260097 -1 -1 1 1;
#X obj 296 18 tgl 15 0 s_rndsel_image r_rndsel_image empty 17 7 0 10
-260097 -1 -1 1 1;
#X obj 322 13 cnv 15 180 266 empty empty texturedeform 20 12 0 14 -203904
-66577 0;
#X obj 332 246 send change_lut;
#X obj 326 43 bng 15 250 50 0 s_td_5 empty tunnel 17 7 0 10 -262144
-1 -1;
#X obj 326 64 bng 15 250 50 0 s_td_7 empty cloud 17 7 0 10 -262144
-1 -1;
#X obj 390 43 bng 15 250 50 0 s_td_9 empty circle 17 7 0 10 -262144
-1 -1;
#X obj 390 64 bng 15 250 50 0 s_td_10 empty spiral 17 7 0 10 -262144
-1 -1;
#X obj 456 43 bng 15 250 50 0 s_td_4 empty star 17 7 0 10 -262144 -1
-1;
#X obj 456 64 bng 15 250 50 0 s_td_11 empty 3d 17 7 0 10 -262144 -1
-1;
#X obj 483 18 tgl 15 0 s_rndsel_textdef r_rndsel_textdef empty 17 7
0 10 -260097 -1 -1 1 1;
#X obj 508 14 cnv 15 306 80 empty empty textwriter 20 12 0 14 -203904
-66577 0;
#X obj 523 66 send textwriter;
#X msg 22 37 torus.bml;
#X msg 22 58 bnf_auge.bml;
#X msg 22 79 bb-frogskin2.bml;
#X msg 22 100 bb-rauten2.bml;
#X msg 22 121 bb-spiral2fast.bml;
#X msg 178 43 circle.jpg;
#X msg 178 67 half.jpg;
#X msg 178 92 gradient.jpg;
#X msg 178 116 check.jpg;
#X msg 332 87 ceiling.jpg;
#X msg 332 127 circle.jpg;
#X msg 332 148 gradient.jpg;
#X msg 332 107 1316.jpg;
#X msg 178 142 hsv.jpg;
#X msg 178 168 hls.jpg;
#X msg 21 142 flatter_flatter.bml;
#X msg 22 163 badtv.bml;
#X msg 178 197 right.jpg;
#X msg 332 170 check.jpg;
#X msg 423 145 hsv.jpg;
#X msg 423 171 hls.jpg;
#X msg 22 185 kreise-versetzt.bml;
#X msg 46 216 blender.bml;
#X msg 199 222 ff-logo-small.jpg;
#X msg 523 41 NEOPHOB.COM;
#X connect 17 0 1 0;
#X connect 18 0 1 0;
#X connect 19 0 1 0;
#X connect 20 0 1 0;
#X connect 21 0 1 0;
#X connect 22 0 3 0;
#X connect 23 0 3 0;
#X connect 24 0 3 0;
#X connect 25 0 3 0;
#X connect 26 0 7 0;
#X connect 27 0 7 0;
#X connect 28 0 7 0;
#X connect 29 0 7 0;
#X connect 30 0 3 0;
#X connect 31 0 3 0;
#X connect 32 0 1 0;
#X connect 33 0 1 0;
#X connect 34 0 3 0;
#X connect 35 0 7 0;
#X connect 36 0 7 0;
#X connect 37 0 7 0;
#X connect 38 0 1 0;
#X connect 39 0 1 0;
#X connect 40 0 3 0;
#X connect 41 0 16 0;
#X restore 365 312 pd gen;
#N canvas 169 88 565 357 fx 0;
#X obj 33 33 cnv 15 140 70 empty empty //threshold 20 12 0 14 -262130
-66577 0;
#X floatatom 116 68 5 0 0 0 - - s_threshold;
#X obj 89 67 int;
#X obj 154 37 tgl 15 0 s_rndsel_threshold r_rndsel_threshold empty
17 7 0 10 -260097 -1 -1 1 1;
#X obj 49 61 knob 32 32 0 255 0 0 empty r_threshold empty 0 -8 64 8
-262144 -1 -1 1556 1;
#X obj 33 104 cnv 15 140 160 empty empty //colorize 20 12 0 14 -262130
-66577 0;
#X obj 49 137 knob 32 32 0 255 0 0 empty r_tint_r R 38 16 64 12 -262144
-33289 -1 3100 1;
#X floatatom 116 145 5 0 255 0 - - s_tint_r;
#X obj 89 144 int;
#X obj 49 177 knob 32 32 0 255 0 0 empty r_tint_g G 38 16 64 12 -262144
-33289 -1 3100 1;
#X floatatom 116 184 5 0 255 0 - - s_tint_g;
#X obj 89 184 int;
#X obj 49 217 knob 32 32 0 255 0 0 empty r_tint_b B 38 16 64 12 -262144
-33289 -1 3100 1;
#X floatatom 116 224 5 0 255 0 - - s_tint_b;
#X obj 89 224 int;
#X obj 153 110 tgl 15 0 s_rndsel_tint r_rndsel_tint empty 17 7 0 10
-260097 -1 -1 1 1;
#X obj 33 259 cnv 15 140 70 empty empty //rotozoom 20 12 0 14 -262130
-66577 0;
#X obj 47 285 knob 32 32 -127 127 0 0 empty r_rotozoom_angle ° 38
16 64 12 -262144 -33289 -1 1550 1;
#X floatatom 114 292 5 0 255 0 - - s_rotozoom_angle;
#X obj 87 292 int;
#X obj 153 263 tgl 15 0 s_rndsel_rotozoom r_rndsel_rotozoom empty 17
7 0 10 -260097 -1 -1 1 1;
#X connect 2 0 1 0;
#X connect 4 0 2 0;
#X connect 6 0 8 0;
#X connect 8 0 7 0;
#X connect 9 0 11 0;
#X connect 11 0 10 0;
#X connect 12 0 14 0;
#X connect 14 0 13 0;
#X connect 17 0 19 0;
#X connect 19 0 18 0;
#X coords 0 -1 1 1 140 290 1 33 33;
#X restore 211 283 pd fx;
#N canvas 234 204 994 557 midi 0;
#X obj 55 340 notein;
#X floatatom 55 374 5 0 0 0 - - -;
#X floatatom 71 404 5 0 0 0 - - -;
#X floatatom 88 434 5 0 0 0 - - -;
#X obj 38 22 ctlin;
#X floatatom 38 124 5 0 0 0 - - -;
#X floatatom 51 73 5 0 0 0 - - -;
#X floatatom 65 49 5 0 0 0 - - -;
#X obj 565 212 send r_threshold;
#X obj 565 156 spigot;
#X obj 678 156 spigot;
#X obj 678 212 send r_tint_r;
#X obj 779 155 spigot;
#X obj 879 155 spigot;
#X obj 779 211 send r_tint_g;
#X obj 879 211 send r_tint_b;
#X obj 476 156 spigot;
#X obj 565 183 * 2;
#X obj 678 183 * 2;
#X obj 779 183 * 2;
#X obj 879 183 * 2;
#X obj 375 157 spigot;
#X obj 286 156 spigot;
#X obj 196 156 spigot;
#X obj 196 183 div 15;
#X obj 286 183 div 15;
#X obj 108 156 spigot;
#X floatatom 476 210 5 0 0 0 - - -;
#X obj 499 234 !=;
#X obj 476 256 spigot;
#X floatatom 196 210 5 0 0 0 - - -;
#X obj 219 234 !=;
#X obj 196 256 spigot;
#X floatatom 286 210 5 0 0 0 - - -;
#X obj 309 234 !=;
#X obj 286 256 spigot;
#X floatatom 375 211 5 0 0 0 - - -;
#X obj 398 235 !=;
#X obj 375 257 spigot;
#X floatatom 108 210 5 0 0 0 - - -;
#X obj 131 234 !=;
#X obj 108 256 spigot;
#X text 93 20 controller value // controller number // channel number
;
#X text 113 335 midi note // velocity // midi channel number;
#N canvas 0 22 927 558 sendFxA 0;
#X obj 88 257 r change_fx1;
#X obj 181 340 spigot;
#X obj 241 340 spigot;
#X floatatom 53 274 5 0 0 0 - - -;
#X floatatom 287 241 5 0 0 0 - - -;
#X floatatom 226 240 5 0 0 0 - - -;
#X obj 88 84 bng 15 250 50 0 empty empty empty 17 7 0 10 -262144 -1
-1;
#X floatatom 293 24 5 0 0 0 - - -;
#X obj 214 7 r midiNote;
#X obj 391 340 spigot;
#X obj 321 340 spigot;
#X floatatom 367 241 5 0 0 0 - - -;
#X floatatom 437 241 5 0 0 0 - - -;
#X obj 471 340 spigot;
#X floatatom 517 241 5 0 0 0 - - -;
#X obj 424 203 ==;
#X obj 439 63 r BUTTON4;
#X obj 504 203 ==;
#X obj 369 89 r BUTTON3;
#X obj 519 89 r BUTTON5;
#X obj 289 63 r BUTTON2;
#X obj 229 89 r BUTTON1;
#X obj 354 203 ==;
#X obj 274 203 ==;
#X obj 214 203 ==;
#X obj 182 442 send r_fx1;
#X obj 242 414 send r_fx2;
#X obj 322 442 send r_fx3;
#X obj 392 414 send r_fx4;
#X obj 472 442 send r_fx5;
#X connect 0 0 3 0;
#X connect 0 0 1 0;
#X connect 0 0 2 0;
#X connect 0 0 6 0;
#X connect 0 0 10 0;
#X connect 0 0 9 0;
#X connect 0 0 13 0;
#X connect 1 0 25 0;
#X connect 2 0 26 0;
#X connect 6 0 15 0;
#X connect 6 0 17 0;
#X connect 6 0 22 0;
#X connect 6 0 23 0;
#X connect 6 0 24 0;
#X connect 8 0 7 0;
#X connect 8 0 15 0;
#X connect 8 0 17 0;
#X connect 8 0 22 0;
#X connect 8 0 23 0;
#X connect 8 0 24 0;
#X connect 9 0 28 0;
#X connect 10 0 27 0;
#X connect 13 0 29 0;
#X connect 15 0 12 0;
#X connect 15 0 9 1;
#X connect 16 0 15 1;
#X connect 17 0 14 0;
#X connect 17 0 13 1;
#X connect 18 0 22 1;
#X connect 19 0 17 1;
#X connect 20 0 23 1;
#X connect 21 0 24 1;
#X connect 22 0 11 0;
#X connect 22 0 10 1;
#X connect 23 0 2 1;
#X connect 23 0 4 0;
#X connect 24 0 1 1;
#X connect 24 0 5 0;
#X restore 374 371 pd sendFxA;
#X obj 55 470 s midiNote;
#X obj 726 57 r FADE_R;
#X obj 796 57 r FADE_G;
#X text 862 70 comment;
#X obj 711 98 ==;
#X obj 812 98 ==;
#X obj 912 98 ==;
#X obj 866 57 r FADE_B;
#X obj 619 57 r THRESHOLD;
#N canvas 310 168 927 558 sendFxB 0;
#X obj 182 442 send r_fx_b1;
#X obj 181 340 spigot;
#X obj 241 340 spigot;
#X obj 242 414 send r_fx_b2;
#X floatatom 53 274 5 0 0 0 - - -;
#X floatatom 287 241 5 0 0 0 - - -;
#X floatatom 226 240 5 0 0 0 - - -;
#X obj 88 84 bng 15 250 50 0 empty empty empty 17 7 0 10 -262144 -1
-1;
#X floatatom 293 24 5 0 0 0 - - -;
#X obj 214 7 r midiNote;
#X obj 391 340 spigot;
#X obj 321 340 spigot;
#X obj 322 442 send r_fx_b3;
#X obj 392 414 send r_fx_b4;
#X floatatom 367 241 5 0 0 0 - - -;
#X floatatom 437 241 5 0 0 0 - - -;
#X obj 471 340 spigot;
#X floatatom 517 241 5 0 0 0 - - -;
#X obj 472 442 send r_fx_b5;
#X obj 424 203 ==;
#X obj 439 63 r BUTTON4;
#X obj 504 203 ==;
#X obj 369 89 r BUTTON3;
#X obj 519 89 r BUTTON5;
#X obj 289 63 r BUTTON2;
#X obj 229 89 r BUTTON1;
#X obj 354 203 ==;
#X obj 274 203 ==;
#X obj 214 203 ==;
#X obj 88 257 r change_fx2;
#X connect 1 0 0 0;
#X connect 2 0 3 0;
#X connect 7 0 19 0;
#X connect 7 0 21 0;
#X connect 7 0 26 0;
#X connect 7 0 27 0;
#X connect 7 0 28 0;
#X connect 9 0 8 0;
#X connect 9 0 19 0;
#X connect 9 0 21 0;
#X connect 9 0 26 0;
#X connect 9 0 27 0;
#X connect 9 0 28 0;
#X connect 10 0 13 0;
#X connect 11 0 12 0;
#X connect 16 0 18 0;
#X connect 19 0 15 0;
#X connect 19 0 10 1;
#X connect 20 0 19 1;
#X connect 21 0 17 0;
#X connect 21 0 16 1;
#X connect 22 0 26 1;
#X connect 23 0 21 1;
#X connect 24 0 27 1;
#X connect 25 0 28 1;
#X connect 26 0 14 0;
#X connect 26 0 11 1;
#X connect 27 0 2 1;
#X connect 27 0 5 0;
#X connect 28 0 1 1;
#X connect 28 0 6 0;
#X connect 29 0 4 0;
#X connect 29 0 1 0;
#X connect 29 0 2 0;
#X connect 29 0 7 0;
#X connect 29 0 11 0;
#X connect 29 0 10 0;
#X connect 29 0 16 0;
#X restore 374 403 pd sendFxB;
#X obj 196 282 s change_fx1;
#X obj 286 282 s change_fx2;
#X obj 423 57 r SLIDER_GEN_A;
#X obj 524 57 r SLIDER_GEN_B;
#X obj 141 98 ==;
#X obj 229 98 ==;
#X obj 244 57 r SLIDER_FX_A;
#X obj 334 57 r SLIDER_FX_B;
#X obj 319 98 ==;
#X obj 408 98 ==;
#X obj 509 98 ==;
#X obj 156 57 r SLIDER_MIX;
#X obj 598 98 ==;
#N canvas 0 22 927 558 sendGenA 0;
#X obj 181 340 spigot;
#X obj 241 340 spigot;
#X floatatom 53 274 5 0 0 0 - - -;
#X floatatom 287 241 5 0 0 0 - - -;
#X floatatom 226 240 5 0 0 0 - - -;
#X obj 88 84 bng 15 250 50 0 empty empty empty 17 7 0 10 -262144 -1
-1;
#X floatatom 293 24 5 0 0 0 - - -;
#X obj 214 7 r midiNote;
#X obj 391 340 spigot;
#X obj 321 340 spigot;
#X floatatom 367 241 5 0 0 0 - - -;
#X floatatom 437 241 5 0 0 0 - - -;
#X obj 471 340 spigot;
#X floatatom 517 241 5 0 0 0 - - -;
#X obj 424 203 ==;
#X obj 439 63 r BUTTON4;
#X obj 504 203 ==;
#X obj 369 89 r BUTTON3;
#X obj 519 89 r BUTTON5;
#X obj 289 63 r BUTTON2;
#X obj 229 89 r BUTTON1;
#X obj 354 203 ==;
#X obj 274 203 ==;
#X obj 214 203 ==;
#X obj 182 442 send r_gen1;
#X obj 242 414 send r_gen2;
#X obj 322 442 send r_gen3;
#X obj 392 414 send r_gen4;
#X obj 472 442 send r_gen5;
#X obj 88 257 r chng_gen1;
#X connect 0 0 24 0;
#X connect 1 0 25 0;
#X connect 5 0 14 0;
#X connect 5 0 16 0;
#X connect 5 0 21 0;
#X connect 5 0 22 0;
#X connect 5 0 23 0;
#X connect 7 0 6 0;
#X connect 7 0 14 0;
#X connect 7 0 16 0;
#X connect 7 0 21 0;
#X connect 7 0 22 0;
#X connect 7 0 23 0;
#X connect 8 0 27 0;
#X connect 9 0 26 0;
#X connect 12 0 28 0;
#X connect 14 0 11 0;
#X connect 14 0 8 1;
#X connect 15 0 14 1;
#X connect 16 0 13 0;
#X connect 16 0 12 1;
#X connect 17 0 21 1;
#X connect 18 0 16 1;
#X connect 19 0 22 1;
#X connect 20 0 23 1;
#X connect 21 0 10 0;
#X connect 21 0 9 1;
#X connect 22 0 1 1;
#X connect 22 0 3 0;
#X connect 23 0 0 1;
#X connect 23 0 4 0;
#X connect 29 0 2 0;
#X connect 29 0 0 0;
#X connect 29 0 1 0;
#X connect 29 0 5 0;
#X connect 29 0 9 0;
#X connect 29 0 8 0;
#X connect 29 0 12 0;
#X restore 374 433 pd sendGenA;
#X obj 375 283 send chng_gen1;
#N canvas 0 22 927 558 sendGenB 0;
#X obj 181 340 spigot;
#X obj 241 340 spigot;
#X floatatom 53 274 5 0 0 0 - - -;
#X floatatom 287 241 5 0 0 0 - - -;
#X floatatom 226 240 5 0 0 0 - - -;
#X obj 88 84 bng 15 250 50 0 empty empty empty 17 7 0 10 -262144 -1
-1;
#X floatatom 293 24 5 0 0 0 - - -;
#X obj 214 7 r midiNote;
#X obj 391 340 spigot;
#X obj 321 340 spigot;
#X floatatom 367 241 5 0 0 0 - - -;
#X floatatom 437 241 5 0 0 0 - - -;
#X obj 471 340 spigot;
#X floatatom 517 241 5 0 0 0 - - -;
#X obj 424 203 ==;
#X obj 439 63 r BUTTON4;
#X obj 504 203 ==;
#X obj 369 89 r BUTTON3;
#X obj 519 89 r BUTTON5;
#X obj 289 63 r BUTTON2;
#X obj 229 89 r BUTTON1;
#X obj 354 203 ==;
#X obj 274 203 ==;
#X obj 214 203 ==;
#X obj 88 257 r chng_gen2;
#X obj 182 442 send r_gen_b1;
#X obj 242 414 send r_gen_b2;
#X obj 322 442 send r_gen_b3;
#X obj 392 414 send r_gen_b4;
#X obj 472 442 send r_gen_b5;
#X connect 0 0 25 0;
#X connect 1 0 26 0;
#X connect 5 0 14 0;
#X connect 5 0 16 0;
#X connect 5 0 21 0;
#X connect 5 0 22 0;
#X connect 5 0 23 0;
#X connect 7 0 6 0;
#X connect 7 0 14 0;
#X connect 7 0 16 0;
#X connect 7 0 21 0;
#X connect 7 0 22 0;
#X connect 7 0 23 0;
#X connect 8 0 28 0;
#X connect 9 0 27 0;
#X connect 12 0 29 0;
#X connect 14 0 11 0;
#X connect 14 0 8 1;
#X connect 15 0 14 1;
#X connect 16 0 13 0;
#X connect 16 0 12 1;
#X connect 17 0 21 1;
#X connect 18 0 16 1;
#X connect 19 0 22 1;
#X connect 20 0 23 1;
#X connect 21 0 10 0;
#X connect 21 0 9 1;
#X connect 22 0 1 1;
#X connect 22 0 3 0;
#X connect 23 0 0 1;
#X connect 23 0 4 0;
#X connect 24 0 2 0;
#X connect 24 0 0 0;
#X connect 24 0 1 0;
#X connect 24 0 5 0;
#X connect 24 0 9 0;
#X connect 24 0 8 0;
#X connect 24 0 12 0;
#X restore 374 463 pd sendGenB;
#X obj 476 283 send chng_gen2;
#N canvas 0 22 927 558 sendMixer 0;
#X obj 181 340 spigot;
#X obj 241 340 spigot;
#X floatatom 53 274 5 0 0 0 - - -;
#X floatatom 287 241 5 0 0 0 - - -;
#X floatatom 226 240 5 0 0 0 - - -;
#X obj 88 84 bng 15 250 50 0 empty empty empty 17 7 0 10 -262144 -1
-1;
#X floatatom 293 24 5 0 0 0 - - -;
#X obj 214 7 r midiNote;
#X obj 391 340 spigot;
#X obj 321 340 spigot;
#X floatatom 367 241 5 0 0 0 - - -;
#X floatatom 437 241 5 0 0 0 - - -;
#X obj 471 340 spigot;
#X floatatom 517 241 5 0 0 0 - - -;
#X obj 424 203 ==;
#X obj 439 63 r BUTTON4;
#X obj 504 203 ==;
#X obj 369 89 r BUTTON3;
#X obj 519 89 r BUTTON5;
#X obj 289 63 r BUTTON2;
#X obj 229 89 r BUTTON1;
#X obj 354 203 ==;
#X obj 274 203 ==;
#X obj 214 203 ==;
#X obj 182 442 send r_mix1;
#X obj 88 257 r chng_mix;
#X obj 242 414 send r_mix2;
#X obj 322 442 send r_mix3;
#X obj 392 414 send r_mix4;
#X obj 472 442 send r_mix5;
#X connect 0 0 24 0;
#X connect 1 0 26 0;
#X connect 5 0 14 0;
#X connect 5 0 16 0;
#X connect 5 0 21 0;
#X connect 5 0 22 0;
#X connect 5 0 23 0;
#X connect 7 0 6 0;
#X connect 7 0 14 0;
#X connect 7 0 16 0;
#X connect 7 0 21 0;
#X connect 7 0 22 0;
#X connect 7 0 23 0;
#X connect 8 0 28 0;
#X connect 9 0 27 0;
#X connect 12 0 29 0;
#X connect 14 0 11 0;
#X connect 14 0 8 1;
#X connect 15 0 14 1;
#X connect 16 0 13 0;
#X connect 16 0 12 1;
#X connect 17 0 21 1;
#X connect 18 0 16 1;
#X connect 19 0 22 1;
#X connect 20 0 23 1;
#X connect 21 0 10 0;
#X connect 21 0 9 1;
#X connect 22 0 1 1;
#X connect 22 0 3 0;
#X connect 23 0 0 1;
#X connect 23 0 4 0;
#X connect 25 0 2 0;
#X connect 25 0 0 0;
#X connect 25 0 1 0;
#X connect 25 0 5 0;
#X connect 25 0 9 0;
#X connect 25 0 8 0;
#X connect 25 0 12 0;
#X restore 374 493 pd sendMixer;
#X obj 108 282 send chng_mix;
#X obj 495 363 cnv 15 130 100 empty empty MIDI_SETUP 20 12 0 14 -257985
-66577 0;
#N canvas 64 369 1171 288 midiSetup 0;
#X obj 99 44 loadbang;
#X obj 29 79 bng 15 250 50 0 empty empty empty 17 7 0 10 -262144 -1
-1;
#X obj 239 187 s BUTTON4;
#X msg 239 151 51;
#X obj 29 187 s BUTTON1;
#X obj 99 187 s BUTTON2;
#X obj 169 187 s BUTTON3;
#X msg 29 151 48;
#X msg 99 151 49;
#X msg 169 151 50;
#X msg 309 151 44;
#X obj 309 187 s BUTTON5;
#X obj 379 187 s FADE_R;
#X obj 449 187 s FADE_G;
#X msg 379 151 1;
#X msg 449 151 2;
#X msg 519 151 3;
#X obj 519 187 s FADE_B;
#X obj 589 187 s THRESHOLD;
#X msg 589 151 6;
#X obj 669 187 s SLIDER_GEN_A;
#X msg 669 151 11;
#X msg 769 151 12;
#X obj 769 187 s SLIDER_GEN_B;
#X obj 869 187 s SLIDER_FX_A;
#X obj 969 187 s SLIDER_FX_B;
#X msg 869 151 13;
#X msg 969 151 14;
#X obj 1059 187 s SLIDER_MIX;
#X msg 1059 151 15;
#X connect 0 0 8 0;
#X connect 0 0 7 0;
#X connect 0 0 9 0;
#X connect 0 0 3 0;
#X connect 0 0 10 0;
#X connect 0 0 14 0;
#X connect 0 0 15 0;
#X connect 0 0 16 0;
#X connect 0 0 19 0;
#X connect 0 0 22 0;
#X connect 0 0 21 0;
#X connect 0 0 27 0;
#X connect 0 0 26 0;
#X connect 0 0 29 0;
#X connect 1 0 8 0;
#X connect 1 0 7 0;
#X connect 1 0 9 0;
#X connect 1 0 3 0;
#X connect 1 0 10 0;
#X connect 1 0 14 0;
#X connect 1 0 15 0;
#X connect 1 0 16 0;
#X connect 1 0 19 0;
#X connect 1 0 21 0;
#X connect 1 0 22 0;
#X connect 1 0 26 0;
#X connect 1 0 27 0;
#X connect 1 0 29 0;
#X connect 3 0 2 0;
#X connect 7 0 4 0;
#X connect 8 0 5 0;
#X connect 9 0 6 0;
#X connect 10 0 11 0;
#X connect 14 0 12 0;
#X connect 15 0 13 0;
#X connect 16 0 17 0;
#X connect 19 0 18 0;
#X connect 21 0 20 0;
#X connect 22 0 23 0;
#X connect 26 0 24 0;
#X connect 27 0 25 0;
#X connect 29 0 28 0;
#X restore 520 404 pd midiSetup;
#X obj 375 184 div 11;
#X obj 108 183 div 15;
#X obj 476 183 div 11;
#X connect 0 0 1 0;
#X connect 0 1 2 0;
#X connect 0 2 3 0;
#X connect 1 0 45 0;
#X connect 4 0 5 0;
#X connect 4 1 6 0;
#X connect 4 2 7 0;
#X connect 5 0 16 0;
#X connect 5 0 9 0;
#X connect 5 0 10 0;
#X connect 5 0 12 0;
#X connect 5 0 13 0;
#X connect 5 0 21 0;
#X connect 5 0 23 0;
#X connect 5 0 22 0;
#X connect 5 0 26 0;
#X connect 6 0 49 0;
#X connect 6 0 51 0;
#X connect 6 0 59 0;
#X connect 6 0 60 0;
#X connect 6 0 63 0;
#X connect 6 0 64 0;
#X connect 6 0 65 0;
#X connect 6 0 67 0;
#X connect 6 0 50 0;
#X connect 9 0 17 0;
#X connect 10 0 18 0;
#X connect 12 0 19 0;
#X connect 13 0 20 0;
#X connect 16 0 78 0;
#X connect 17 0 8 0;
#X connect 18 0 11 0;
#X connect 19 0 14 0;
#X connect 20 0 15 0;
#X connect 21 0 76 0;
#X connect 22 0 25 0;
#X connect 23 0 24 0;
#X connect 24 0 30 0;
#X connect 24 0 31 1;
#X connect 25 0 33 0;
#X connect 25 0 34 1;
#X connect 26 0 77 0;
#X connect 27 0 28 0;
#X connect 27 0 29 0;
#X connect 28 0 29 1;
#X connect 29 0 71 0;
#X connect 30 0 31 0;
#X connect 30 0 32 0;
#X connect 31 0 32 1;
#X connect 32 0 55 0;
#X connect 33 0 34 0;
#X connect 33 0 35 0;
#X connect 34 0 35 1;
#X connect 35 0 56 0;
#X connect 36 0 37 0;
#X connect 36 0 38 0;
#X connect 37 0 38 1;
#X connect 38 0 69 0;
#X connect 39 0 40 0;
#X connect 39 0 41 0;
#X connect 40 0 41 1;
#X connect 41 0 73 0;
#X connect 46 0 49 1;
#X connect 47 0 50 1;
#X connect 49 0 10 1;
#X connect 50 0 12 1;
#X connect 51 0 13 1;
#X connect 52 0 51 1;
#X connect 53 0 67 1;
#X connect 57 0 64 1;
#X connect 58 0 65 1;
#X connect 59 0 26 1;
#X connect 60 0 23 1;
#X connect 61 0 60 1;
#X connect 62 0 63 1;
#X connect 63 0 22 1;
#X connect 64 0 21 1;
#X connect 65 0 16 1;
#X connect 66 0 59 1;
#X connect 67 0 9 1;
#X connect 76 0 36 0;
#X connect 76 0 37 1;
#X connect 77 0 39 0;
#X connect 77 0 40 1;
#X connect 78 0 27 0;
#X connect 78 0 28 1;
#X restore 366 337 pd midi;
#X text 652 -77 Fader: Off // Crossfade // UpsideDown // LeftToRight
;
#X text 655 -55 Mixer: Off // AddSat // Multiply // Mix // Neg Multiply
// Checkb // XOR // MinusHalf;
#N canvas 409 22 871 556 osc 0;
#X obj 6 6 import mrpeach;
#X obj 39 121 unpackOSC;
#X msg 591 179 disconnect;
#X obj 590 155 r s_disconnect;
#X obj 645 396 outlet;
#N canvas 0 59 502 620 oscProcessPage1 0;
#X obj 54 37 inlet;
#X obj 116 231 hsl 100 25 0 1 0 0 empty empty empty -2 -8 0 10 -257985
-1 -1 619 1;
#X obj 57 269 hsl 100 25 0 1 0 0 empty empty empty -2 -8 0 10 -257985
-1 -1 0 1;
#X obj 175 193 hsl 100 25 0 1 0 0 empty empty empty -2 -8 0 10 -257985
-1 -1 1779 1;
#X obj 234 154 hsl 100 25 0 1 0 0 empty empty empty -2 -8 0 10 -257985
-1 -1 657 1;
#X obj 54 125 routeOSC /fader1 /fader2 /fader3 /fader4;
#X obj 54 335 send r_threshold;
#X obj 188 362 send r_tint_r;
#X obj 288 360 send r_tint_g;
#X obj 388 360 send r_tint_b;
#X obj 54 306 * 256;
#X obj 188 309 * 256;
#X obj 288 309 * 256;
#X obj 388 309 * 256;
#X obj 188 335 int;
#X obj 288 335 int;
#X obj 388 335 int;
#X floatatom 399 450 5 0 0 0 - - -;
#X connect 0 0 5 0;
#X connect 1 0 11 0;
#X connect 2 0 10 0;
#X connect 3 0 12 0;
#X connect 4 0 13 0;
#X connect 5 0 2 0;
#X connect 5 1 1 0;
#X connect 5 2 3 0;
#X connect 5 3 4 0;
#X connect 10 0 6 0;
#X connect 11 0 14 0;
#X connect 12 0 15 0;
#X connect 13 0 16 0;
#X connect 14 0 7 0;
#X connect 15 0 8 0;
#X connect 16 0 9 0;
#X connect 16 0 17 0;
#X restore 60 207 pd oscProcessPage1;
#N canvas 449 22 831 620 sendToOsc 0;
#X obj 608 545 outlet;
#X obj 28 89 route CHANGE_GENERATOR_A CHANGE_GENERATOR_B;
#X obj 355 90 route CHANGE_EFFECT_A CHANGE_EFFECT_B;
#X obj 643 92 route CHANGE_OUTPUT_EFFECT;
#X obj 28 277 route CHANGE_MIXER CHANGE_FADER CHANGE_OUTPUT CHANGE_PRESENT
CHANGE_TINT CHANGE_THRESHOLD_VALUE;
#X msg 472 399 send /1/fader1 \$1;
#X obj 222 497 / 256;
#X obj 303 497 / 256;
#X obj 382 496 / 256;
#X msg 303 554 send /1/fader3 \$1;
#X msg 382 524 send /1/fader4 \$1;
#X msg 222 528 send /1/fader2 \$1;
#X obj 430 333 unpack f;
#X obj 430 372 / 256;
#X obj 222 332 unpack f f f;
#X obj 498 332 r s_threshold;
#X text 135 28 Messages from Server;
#X obj 151 476 r s_tint_r;
#X obj 151 444 r s_tint_g;
#X obj 151 412 r s_tint_b;
#X obj 28 28 r s_core_msg;
#X connect 1 2 2 0;
#X connect 2 2 3 0;
#X connect 3 1 4 0;
#X connect 4 4 14 0;
#X connect 4 5 12 0;
#X connect 5 0 0 0;
#X connect 6 0 11 0;
#X connect 7 0 9 0;
#X connect 8 0 10 0;
#X connect 9 0 0 0;
#X connect 10 0 0 0;
#X connect 11 0 0 0;
#X connect 12 0 13 0;
#X connect 13 0 5 0;
#X connect 14 0 6 0;
#X connect 14 1 7 0;
#X connect 14 2 8 0;
#X connect 15 0 13 0;
#X connect 17 0 6 0;
#X connect 18 0 7 0;
#X connect 19 0 8 0;
#X connect 20 0 1 0;
#X restore 657 210 pd sendToOsc;
#X floatatom 527 393 5 0 0 0 - - -;
#X obj 527 347 udpsend;
#X obj 657 278 packOSC;
#X obj 712 252 print;
#X obj 39 155 routeOSC /1;
#X msg 527 112 connect 192.168.111.19 4444;
#X obj 39 88 udpreceive 4443;
#X floatatom 219 152 3 0 0 0 - - -;
#X floatatom 246 152 3 0 0 0 - - -;
#X floatatom 273 152 3 0 0 0 - - -;
#X floatatom 300 152 3 0 0 0 - - -;
#X text 176 151 from;
#X floatatom 328 152 5 0 0 0 - - -;
#X obj 219 126 unpack 0 0 0 0 0;
#X obj 328 178 > 0;
#X floatatom 328 206 5 0 0 0 - - -;
#X obj 328 408 outlet;
#X obj 391 222 bng 15 250 50 0 empty empty empty 17 7 0 10 -262144
-1 -1;
#X text 367 245 autoconnect;
#X connect 1 0 11 0;
#X connect 2 0 8 0;
#X connect 3 0 2 0;
#X connect 6 0 9 0;
#X connect 6 0 10 0;
#X connect 8 0 4 0;
#X connect 8 0 7 0;
#X connect 9 0 8 0;
#X connect 11 0 5 0;
#X connect 12 0 8 0;
#X connect 13 0 1 0;
#X connect 13 1 20 0;
#X connect 19 0 21 0;
#X connect 20 0 14 0;
#X connect 20 1 15 0;
#X connect 20 2 16 0;
#X connect 20 3 17 0;
#X connect 20 4 19 0;
#X connect 21 0 22 0;
#X connect 22 0 23 0;
#X connect 22 0 24 0;
#X connect 24 0 12 0;
#X restore 368 362 pd osc;
#X floatatom 432 391 5 0 0 3 server - -;
#N canvas 75 115 1173 604 random 0;
#X msg 340 60 send RANDOM ON;
#X msg 340 87 send RANDOM OFF;
#X msg 340 36 send RANDOMIZE;
#X obj 50 50 cnv 15 140 80 empty empty //mode 20 12 0 14 -260097 -66577
0;
#X obj 120 74 bng 20 250 50 0 s_rnd_do r_rnd_do RNDM 22 12 0 10 -261682
-33289 -1;
#X obj 53 74 bng 20 250 50 0 s_rnd_on empty RND_ON 22 11 0 10 -261682
-33289 -1;
#X obj 54 99 bng 20 250 50 0 s_rnd_iff empty RND_OFF 22 11 0 10 -261682
-33289 -1;
#X obj 12 229 r s_rndsel_gen1;
#X floatatom 12 258 5 0 0 0 - - -;
#X floatatom 122 258 5 0 0 0 - - -;
#X obj 122 229 r s_rndsel_gen2;
#X floatatom 232 258 5 0 0 0 - - -;
#X floatatom 342 258 5 0 0 0 - - -;
#X obj 232 229 r s_rndsel_fx1;
#X obj 342 229 r s_rndsel_fx2;
#X floatatom 452 258 5 0 0 0 - - -;
#X floatatom 562 258 5 0 0 0 - - -;
#X obj 452 229 r s_rndsel_mix;
#X obj 562 229 r s_rndsel_mixout;
#X floatatom 682 258 5 0 0 0 - - -;
#X floatatom 812 258 5 0 0 0 - - -;
#X obj 682 229 r s_rndsel_faderout;
#X obj 812 229 r s_rndsel_out;
#X obj 122 293 bng 15 250 50 0 empty empty empty 17 7 0 10 -262144
-1 -1;
#X obj 85 314 delay 20;
#X obj 911 229 r s_rndsel_blinken;
#X obj 1038 229 r s_rndsel_image;
#X obj 908 300 r s_rndsel_tint;
#X floatatom 911 258 5 0 0 0 - - -;
#X floatatom 1038 258 5 0 0 0 - - -;
#X floatatom 908 328 5 0 0 0 - - -;
#X floatatom 1038 328 5 0 0 0 - - -;
#X obj 1038 300 r s_rndsel_textdef;
#X obj 766 300 r s_rndsel_threshold;
#X floatatom 766 328 5 0 0 0 - - -;
#X obj 62 516 send to_server;
#X obj 697 84 send to_server;
#X obj 62 441 pack i i i i i i i i i i i i i i;
#X msg 62 473 send CHANGE_SHUFFLER_SELECT \$1 \$2 \$3 \$4 \$5 \$6 \$7
\$8 \$9 \$10 \$11 \$12 \$13 \$14;
#X floatatom 631 328 5 0 0 0 - - -;
#X obj 631 300 r s_rndsel_rotozoom;
#X obj 120 99 bng 20 250 50 0 s_rnd_do r_rnd_do RND_PRES 22 12 0 10
-261682 -33289 -1;
#X msg 340 115 send PRESET_RANDOM;
#X connect 0 0 36 0;
#X connect 1 0 36 0;
#X connect 2 0 36 0;
#X connect 4 0 2 0;
#X connect 5 0 0 0;
#X connect 6 0 1 0;
#X connect 7 0 8 0;
#X connect 8 0 37 0;
#X connect 9 0 23 0;
#X connect 9 0 37 1;
#X connect 10 0 9 0;
#X connect 11 0 23 0;
#X connect 11 0 37 2;
#X connect 12 0 23 0;
#X connect 12 0 37 3;
#X connect 13 0 11 0;
#X connect 14 0 12 0;
#X connect 15 0 23 0;
#X connect 15 0 37 4;
#X connect 16 0 23 0;
#X connect 16 0 37 5;
#X connect 17 0 15 0;
#X connect 18 0 16 0;
#X connect 19 0 23 0;
#X connect 19 0 37 6;
#X connect 20 0 24 0;
#X connect 20 0 37 7;
#X connect 21 0 19 0;
#X connect 22 0 20 0;
#X connect 23 0 24 0;
#X connect 24 0 37 0;
#X connect 25 0 28 0;
#X connect 26 0 29 0;
#X connect 27 0 30 0;
#X connect 28 0 23 0;
#X connect 28 0 37 8;
#X connect 29 0 23 0;
#X connect 29 0 37 9;
#X connect 30 0 23 0;
#X connect 30 0 37 10;
#X connect 31 0 23 0;
#X connect 31 0 37 11;
#X connect 32 0 31 0;
#X connect 33 0 34 0;
#X connect 34 0 23 0;
#X connect 34 0 37 12;
#X connect 37 0 38 0;
#X connect 38 0 35 0;
#X connect 39 0 37 13;
#X connect 39 0 23 0;
#X connect 40 0 39 0;
#X connect 41 0 42 0;
#X connect 42 0 36 0;
#X coords 0 -1 1 1 140 80 1 50 50;
#X restore 358 428 pd random;
#N canvas 713 61 450 300 keyb 0;
#X obj 96 57 keyup;
#X obj 136 172 0;
#X obj 170 173 1;
#X obj 207 174 2;
#X obj 242 174 3;
#X obj 278 173 4;
#X obj 344 158 bng 15 250 50 0 empty empty empty 17 7 0 10 -262144
-1 -1;
#X obj 356 196 s r_rnd_do;
#X obj 151 216 s r_outall;
#X floatatom 89 114 5 0 0 0 - - -;
#X obj 171 116 route 49 50 51 52 53 82;
#X connect 0 0 9 0;
#X connect 0 0 10 0;
#X connect 1 0 8 0;
#X connect 2 0 8 0;
#X connect 3 0 8 0;
#X connect 4 0 8 0;
#X connect 5 0 8 0;
#X connect 6 0 7 0;
#X connect 10 0 1 0;
#X connect 10 1 2 0;
#X connect 10 2 3 0;
#X connect 10 3 4 0;
#X connect 10 4 5 0;
#X connect 10 5 6 0;
#X restore 420 311 pd keyb;
#N canvas 10 85 893 570 presentStuff 0;
#N canvas 212 92 899 611 presentSel 0;
#X obj 9 -75 r s_sel_01;
#X obj 429 -14 s r_sel;
#X msg 9 -51 1;
#X msg 79 -51 2;
#X msg 149 -51 3;
#X msg 219 -51 4;
#X msg 289 -51 5;
#X msg 359 -51 6;
#X obj 79 -75 r s_sel_02;
#X obj 149 -75 r s_sel_03;
#X obj 219 -75 r s_sel_04;
#X obj 289 -75 r s_sel_05;
#X obj 359 -75 r s_sel_06;
#X obj 429 -75 r s_sel_07;
#X msg 429 -51 7;
#X msg 499 -51 8;
#X obj 499 -75 r s_sel_08;
#X msg 569 -51 9;
#X obj 569 -75 r s_sel_09;
#X obj 639 -75 r s_sel_10;
#X msg 639 -51 10;
#X msg 709 -51 11;
#X msg 779 -51 12;
#X obj 709 -75 r s_sel_11;
#X obj 779 -75 r s_sel_12;
#X obj 429 86 s r_sel;
#X msg 9 49 13;
#X msg 79 49 14;
#X msg 149 49 15;
#X msg 219 49 16;
#X msg 289 49 17;
#X msg 359 49 18;
#X msg 429 49 19;
#X msg 499 49 20;
#X msg 569 49 21;
#X msg 639 49 22;
#X msg 709 49 23;
#X msg 779 49 24;
#X obj 779 25 r s_sel_24;
#X obj 709 25 r s_sel_23;
#X obj 639 25 r s_sel_22;
#X obj 569 25 r s_sel_21;
#X obj 499 25 r s_sel_20;
#X obj 429 25 r s_sel_19;
#X obj 359 25 r s_sel_18;
#X obj 289 25 r s_sel_17;
#X obj 219 25 r s_sel_16;
#X obj 149 25 r s_sel_15;
#X obj 79 25 r s_sel_14;
#X obj 9 25 r s_sel_13;
#X obj 429 186 s r_sel;
#X msg 9 149 25;
#X msg 79 149 26;
#X msg 149 149 27;
#X msg 219 149 28;
#X msg 289 149 29;
#X msg 359 149 30;
#X msg 429 149 31;
#X msg 499 149 32;
#X msg 569 149 33;
#X msg 639 149 34;
#X msg 709 149 35;
#X msg 779 149 36;
#X obj 779 125 r s_sel_36;
#X obj 709 125 r s_sel_35;
#X obj 639 125 r s_sel_34;
#X obj 569 125 r s_sel_33;
#X obj 499 125 r s_sel_32;
#X obj 429 125 r s_sel_31;
#X obj 359 125 r s_sel_30;
#X obj 289 125 r s_sel_29;
#X obj 219 125 r s_sel_28;
#X obj 149 125 r s_sel_27;
#X obj 79 125 r s_sel_26;
#X obj 9 125 r s_sel_25;
#X obj 429 286 s r_sel;
#X msg 9 249 37;
#X msg 79 249 38;
#X msg 149 249 39;
#X msg 219 249 40;
#X msg 289 249 41;
#X msg 359 249 42;
#X msg 429 249 43;
#X msg 499 249 44;
#X msg 569 249 45;
#X msg 639 249 46;
#X msg 709 249 47;
#X msg 779 249 48;
#X obj 9 225 r s_sel_37;
#X obj 79 225 r s_sel_38;
#X obj 149 225 r s_sel_39;
#X obj 219 225 r s_sel_40;
#X obj 289 225 r s_sel_41;
#X obj 359 225 r s_sel_42;
#X obj 429 225 r s_sel_43;
#X obj 499 225 r s_sel_44;
#X obj 569 225 r s_sel_45;
#X obj 639 225 r s_sel_46;
#X obj 779 225 r s_sel_48;
#X obj 709 225 r s_sel_47;
#X obj 429 376 s r_sel;
#X msg 9 339 49;
#X msg 79 339 50;
#X msg 149 339 51;
#X msg 219 339 52;
#X msg 289 339 53;
#X msg 359 339 54;
#X msg 429 339 55;
#X msg 499 339 56;
#X msg 569 339 57;
#X msg 639 339 58;
#X msg 709 339 59;
#X msg 779 339 60;
#X obj 779 315 r s_sel_60;
#X obj 709 315 r s_sel_59;
#X obj 639 315 r s_sel_58;
#X obj 569 315 r s_sel_57;
#X obj 499 315 r s_sel_56;
#X obj 429 315 r s_sel_55;
#X obj 359 315 r s_sel_54;
#X obj 289 315 r s_sel_53;
#X obj 219 315 r s_sel_52;
#X obj 149 315 r s_sel_51;
#X obj 79 315 r s_sel_50;
#X obj 9 315 r s_sel_49;
#X connect 0 0 2 0;
#X connect 2 0 1 0;
#X connect 3 0 1 0;
#X connect 4 0 1 0;
#X connect 5 0 1 0;
#X connect 6 0 1 0;
#X connect 7 0 1 0;
#X connect 8 0 3 0;
#X connect 9 0 4 0;
#X connect 10 0 5 0;
#X connect 11 0 6 0;
#X connect 12 0 7 0;
#X connect 13 0 14 0;
#X connect 14 0 1 0;
#X connect 15 0 1 0;
#X connect 16 0 15 0;
#X connect 17 0 1 0;
#X connect 18 0 17 0;
#X connect 19 0 20 0;
#X connect 20 0 1 0;
#X connect 21 0 1 0;
#X connect 22 0 1 0;
#X connect 23 0 21 0;
#X connect 24 0 22 0;
#X connect 26 0 25 0;
#X connect 27 0 25 0;
#X connect 28 0 25 0;
#X connect 29 0 25 0;
#X connect 30 0 25 0;
#X connect 31 0 25 0;
#X connect 32 0 25 0;
#X connect 33 0 25 0;
#X connect 34 0 25 0;
#X connect 35 0 25 0;
#X connect 36 0 25 0;
#X connect 37 0 25 0;
#X connect 38 0 37 0;
#X connect 39 0 36 0;
#X connect 40 0 35 0;
#X connect 41 0 34 0;
#X connect 42 0 33 0;
#X connect 43 0 32 0;
#X connect 44 0 31 0;
#X connect 45 0 30 0;
#X connect 46 0 29 0;
#X connect 47 0 28 0;
#X connect 48 0 27 0;
#X connect 49 0 26 0;
#X connect 51 0 50 0;
#X connect 52 0 50 0;
#X connect 53 0 50 0;
#X connect 54 0 50 0;
#X connect 55 0 50 0;
#X connect 56 0 50 0;
#X connect 57 0 50 0;
#X connect 58 0 50 0;
#X connect 59 0 50 0;
#X connect 60 0 50 0;
#X connect 61 0 50 0;
#X connect 62 0 50 0;
#X connect 63 0 62 0;
#X connect 64 0 61 0;
#X connect 65 0 60 0;
#X connect 66 0 59 0;
#X connect 67 0 58 0;
#X connect 68 0 57 0;
#X connect 69 0 56 0;
#X connect 70 0 55 0;
#X connect 71 0 54 0;
#X connect 72 0 53 0;
#X connect 73 0 52 0;
#X connect 74 0 51 0;
#X connect 76 0 75 0;
#X connect 77 0 75 0;
#X connect 78 0 75 0;
#X connect 79 0 75 0;
#X connect 80 0 75 0;
#X connect 81 0 75 0;
#X connect 82 0 75 0;
#X connect 83 0 75 0;
#X connect 84 0 75 0;
#X connect 85 0 75 0;
#X connect 86 0 75 0;
#X connect 87 0 75 0;
#X connect 88 0 76 0;
#X connect 89 0 77 0;
#X connect 90 0 78 0;
#X connect 91 0 79 0;
#X connect 92 0 80 0;
#X connect 93 0 81 0;
#X connect 94 0 82 0;
#X connect 95 0 83 0;
#X connect 96 0 84 0;
#X connect 97 0 85 0;
#X connect 98 0 87 0;
#X connect 99 0 86 0;
#X connect 101 0 100 0;
#X connect 102 0 100 0;
#X connect 103 0 100 0;
#X connect 104 0 100 0;
#X connect 105 0 100 0;
#X connect 106 0 100 0;
#X connect 107 0 100 0;
#X connect 108 0 100 0;
#X connect 109 0 100 0;
#X connect 110 0 100 0;
#X connect 111 0 100 0;
#X connect 112 0 100 0;
#X connect 113 0 112 0;
#X connect 114 0 111 0;
#X connect 115 0 110 0;
#X connect 116 0 109 0;
#X connect 117 0 108 0;
#X connect 118 0 107 0;
#X connect 119 0 106 0;
#X connect 120 0 105 0;
#X connect 121 0 104 0;
#X connect 122 0 103 0;
#X connect 123 0 102 0;
#X connect 124 0 101 0;
#X restore 582 13 pd presentSel;
#X obj 581 115 r s_save_preset;
#X msg 581 80 send LOAD_PRESENT;
#X obj 581 55 r s_load_preset;
#X msg 581 140 send SAVE_PRESENT;
#X obj 581 175 r s_sel;
#X msg 581 200 send CHANGE_PRESENT \$1;
#X obj 581 237 r s_threshold;
#X msg 581 287 send CHANGE_THRESHOLD_VALUE \$1;
#X obj 581 262 int;
#X obj 50 50 cnv 15 280 280 empty empty //Presents 20 12 0 14 -204786
-66577 0;
#X obj 68 87 cnv 15 150 25 empty empty empty 20 12 0 14 -262144 -66577
0;
#X obj 98 92 bng 15 250 50 0 s_sel_01 empty empty 17 7 0 10 -262144
-1 -1;
#X obj 118 92 bng 15 250 50 0 s_sel_02 empty empty 17 7 0 10 -262144
-1 -1;
#X obj 138 92 bng 15 250 50 0 s_sel_03 empty empty 17 7 0 10 -262144
-1 -1;
#X obj 158 92 bng 15 250 50 0 s_sel_04 empty empty 17 7 0 10 -262144
-1 -1;
#X obj 178 92 bng 15 250 50 0 s_sel_05 empty empty 17 7 0 10 -262144
-1 -1;
#X obj 198 92 bng 15 250 50 0 s_sel_06 empty empty 17 7 0 10 -262144
-1 -1;
#X obj 68 113 cnv 15 150 25 empty empty empty 20 12 0 14 -262144 -66577
0;
#X obj 98 118 bng 15 250 50 0 s_sel_07 empty empty 17 7 0 10 -262144
-1 -1;
#X obj 118 118 bng 15 250 50 0 s_sel_08 empty empty 17 7 0 10 -262144
-1 -1;
#X obj 138 118 bng 15 250 50 0 s_sel_09 empty empty 17 7 0 10 -262144
-1 -1;
#X obj 158 118 bng 15 250 50 0 s_sel_10 empty empty 17 7 0 10 -262144
-1 -1;
#X obj 178 118 bng 15 250 50 0 s_sel_11 empty empty 17 7 0 10 -262144
-1 -1;
#X obj 198 118 bng 15 250 50 0 s_sel_12 empty empty 17 7 0 10 -262144
-1 -1;
#X obj 68 139 cnv 15 150 25 empty empty empty 20 12 0 14 -228856 -66577
0;
#X obj 98 144 bng 15 250 50 0 s_sel_13 empty empty 17 7 0 10 -262144
-1 -1;
#X obj 118 144 bng 15 250 50 0 s_sel_14 empty empty 17 7 0 10 -262144
-1 -1;
#X obj 138 144 bng 15 250 50 0 s_sel_15 empty empty 17 7 0 10 -262144
-1 -1;
#X obj 158 144 bng 15 250 50 0 s_sel_16 empty empty 17 7 0 10 -262144
-1 -1;
#X obj 178 144 bng 15 250 50 0 s_sel_17 empty empty 17 7 0 10 -262144
-1 -1;
#X obj 198 144 bng 15 250 50 0 s_sel_18 empty empty 17 7 0 10 -262144
-1 -1;
#X obj 68 165 cnv 15 150 25 empty empty empty 20 12 0 14 -228856 -66577
0;
#X obj 98 170 bng 15 250 50 0 s_sel_19 empty empty 17 7 0 10 -262144
-1 -1;
#X obj 118 170 bng 15 250 50 0 s_sel_20 empty empty 17 7 0 10 -262144
-1 -1;
#X obj 138 170 bng 15 250 50 0 s_sel_21 empty empty 17 7 0 10 -262144
-1 -1;
#X obj 158 170 bng 15 250 50 0 s_sel_22 empty empty 17 7 0 10 -262144
-1 -1;
#X obj 178 170 bng 15 250 50 0 s_sel_23 empty empty 17 7 0 10 -262144
-1 -1;
#X obj 198 170 bng 15 250 50 0 s_sel_24 empty empty 17 7 0 10 -262144
-1 -1;
#X obj 68 191 cnv 15 150 25 empty empty empty 20 12 0 14 -191407 -66577
0;
#X obj 98 196 bng 15 250 50 0 s_sel_25 empty empty 17 7 0 10 -262144
-1 -1;
#X obj 118 196 bng 15 250 50 0 s_sel_26 empty empty 17 7 0 10 -262144
-1 -1;
#X obj 138 196 bng 15 250 50 0 s_sel_27 empty empty 17 7 0 10 -262144
-1 -1;
#X obj 158 196 bng 15 250 50 0 s_sel_28 empty empty 17 7 0 10 -262144
-1 -1;
#X obj 178 196 bng 15 250 50 0 s_sel_29 empty empty 17 7 0 10 -262144
-1 -1;
#X obj 198 196 bng 15 250 50 0 s_sel_30 empty empty 17 7 0 10 -262144
-1 -1;
#X obj 68 217 cnv 15 150 25 empty empty empty 20 12 0 14 -191407 -66577
0;
#X obj 98 222 bng 15 250 50 0 s_sel_31 empty empty 17 7 0 10 -262144
-1 -1;
#X obj 118 222 bng 15 250 50 0 s_sel_32 empty empty 17 7 0 10 -262144
-1 -1;
#X obj 138 222 bng 15 250 50 0 s_sel_33 empty empty 17 7 0 10 -262144
-1 -1;
#X obj 158 222 bng 15 250 50 0 s_sel_34 empty empty 17 7 0 10 -262144
-1 -1;
#X obj 178 222 bng 15 250 50 0 s_sel_35 empty empty 17 7 0 10 -262144
-1 -1;
#X obj 198 222 bng 15 250 50 0 s_sel_36 empty empty 17 7 0 10 -262144
-1 -1;
#X obj 68 243 cnv 15 150 25 empty empty empty 20 12 0 14 -162280 -66577
0;
#X obj 98 248 bng 15 250 50 0 s_sel_37 empty empty 17 7 0 10 -262144
-1 -1;
#X obj 118 248 bng 15 250 50 0 s_sel_38 empty empty 17 7 0 10 -262144
-1 -1;
#X obj 138 248 bng 15 250 50 0 s_sel_39 empty empty 17 7 0 10 -262144
-1 -1;
#X obj 158 248 bng 15 250 50 0 s_sel_40 empty empty 17 7 0 10 -262144
-1 -1;
#X obj 178 248 bng 15 250 50 0 s_sel_41 empty empty 17 7 0 10 -262144
-1 -1;
#X obj 198 248 bng 15 250 50 0 s_sel_42 empty empty 17 7 0 10 -262144
-1 -1;
#X obj 68 269 cnv 15 150 25 empty empty empty 20 12 0 14 -162280 -66577
0;
#X obj 98 274 bng 15 250 50 0 s_sel_43 empty empty 17 7 0 10 -262144
-1 -1;
#X obj 118 274 bng 15 250 50 0 s_sel_44 empty empty 17 7 0 10 -262144
-1 -1;
#X obj 138 274 bng 15 250 50 0 s_sel_45 empty empty 17 7 0 10 -262144
-1 -1;
#X obj 158 274 bng 15 250 50 0 s_sel_46 empty empty 17 7 0 10 -262144
-1 -1;
#X obj 178 274 bng 15 250 50 0 s_sel_47 empty empty 17 7 0 10 -262144
-1 -1;
#X obj 198 274 bng 15 250 50 0 s_sel_48 empty empty 17 7 0 10 -262144
-1 -1;
#X obj 68 295 cnv 15 150 25 empty empty empty 20 12 0 14 -261234 -66577
0;
#X obj 98 300 bng 15 250 50 0 s_sel_49 empty empty 17 7 0 10 -262144
-1 -1;
#X obj 118 300 bng 15 250 50 0 s_sel_50 empty empty 17 7 0 10 -262144
-1 -1;
#X obj 138 300 bng 15 250 50 0 s_sel_51 empty empty 17 7 0 10 -262144
-1 -1;
#X obj 158 300 bng 15 250 50 0 s_sel_52 empty empty 17 7 0 10 -262144
-1 -1;
#X obj 178 300 bng 15 250 50 0 s_sel_53 empty empty 17 7 0 10 -262144
-1 -1;
#X obj 198 300 bng 15 250 50 0 s_sel_54 empty empty 17 7 0 10 -262144
-1 -1;
#X obj 258 244 bng 30 250 50 0 s_save_preset r_save_preset save_preset
-30 -8 0 15 -257985 -1 -1;
#X obj 258 174 bng 30 250 50 0 s_load_preset r_load_preset load_preset
-30 -8 0 15 -257985 -1 -1;
#X floatatom 236 112 5 1 48 2 current_slot r_sel s_sel;
#X obj 581 327 s to_server;
#X connect 1 0 4 0;
#X connect 2 0 77 0;
#X connect 3 0 2 0;
#X connect 4 0 77 0;
#X connect 5 0 6 0;
#X connect 6 0 77 0;
#X connect 7 0 9 0;
#X connect 8 0 77 0;
#X connect 9 0 8 0;
#X coords 0 -1 1 1 280 280 1 50 50;
#X restore 503 282 pd presentStuff;
#N canvas 308 38 953 523 network 0;
#N canvas 35 84 1148 593 basicGui 0;
#X obj 18 23 inlet;
#X obj 18 116 unpack i i i i i;
#X obj 18 150 s r_gen1;
#X obj 82 150 s r_gen2;
#X obj 143 150 s r_gen3;
#X obj 202 149 s r_gen4;
#X obj 263 150 s r_gen5;
#X obj 18 187 unpack i i i i i;
#X obj 18 221 s r_gen_b1;
#X obj 92 221 s r_gen_b2;
#X obj 165 221 s r_gen_b3;
#X obj 236 221 s r_gen_b4;
#X obj 307 221 s r_gen_b5;
#X obj 382 116 unpack i i i i i;
#X obj 382 150 s r_fx1;
#X obj 446 150 s r_fx2;
#X obj 507 150 s r_fx3;
#X obj 566 149 s r_fx4;
#X obj 627 150 s r_fx5;
#X obj 382 186 unpack i i i i i;
#X obj 382 220 s r_fx_b1;
#X obj 446 220 s r_fx_b2;
#X obj 507 220 s r_fx_b3;
#X obj 569 220 s r_fx_b4;
#X obj 630 220 s r_fx_b5;
#X obj 18 380 s r_mix1;
#X obj 82 380 s r_mix2;
#X obj 143 380 s r_mix3;
#X obj 202 380 s r_mix4;
#X obj 18 450 s r_fader1;
#X obj 92 450 s r_fader2;
#X obj 363 420 s r_out1;
#X obj 427 420 s r_out2;
#X obj 18 79 route CHANGE_GENERATOR_A CHANGE_GENERATOR_B;
#X obj 382 80 route CHANGE_EFFECT_A CHANGE_EFFECT_B;
#X obj 712 80 route CHANGE_OUTPUT_EFFECT;
#X floatatom 712 163 5 0 0 0 - - -;
#X floatatom 816 164 5 0 0 0 - - -;
#X obj 712 190 s r_fx_output1;
#X obj 816 190 s r_fx_output2;
#X obj 18 416 unpack i i i i;
#X obj 168 450 s r_fader3;
#X obj 242 450 s r_fader4;
#X obj 363 386 unpack i i i i;
#X obj 493 420 s r_out3;
#X obj 557 420 s r_out4;
#X floatatom 912 163 5 0 0 0 - - -;
#X floatatom 1016 164 5 0 0 0 - - -;
#X obj 912 190 s r_fx_output3;
#X obj 1016 190 s r_fx_output4;
#X obj 712 116 unpack i i i i;
#X obj 18 346 unpack i i i i i;
#X obj 262 380 s r_mix5;
#X obj 285 347 s r_sel;
#X obj 644 385 unpack i i i;
#X obj 644 424 s r_tint_r;
#X obj 724 424 s r_tint_g;
#X obj 804 424 s r_tint_b;
#X obj 894 395 unpack i;
#X obj 894 425 s r_threshold;
#X obj 18 267 route CHANGE_MIXER CHANGE_FADER CHANGE_OUTPUT CHANGE_PRESENT
CHANGE_TINT CHANGE_THRESHOLD_VALUE CHANGE_ROTOZOOM;
#X obj 994 395 unpack i;
#X obj 994 425 s r_rotozoom_angle;
#X connect 0 0 33 0;
#X connect 0 0 60 0;
#X connect 1 0 2 0;
#X connect 1 1 3 0;
#X connect 1 2 4 0;
#X connect 1 3 5 0;
#X connect 1 4 6 0;
#X connect 7 0 8 0;
#X connect 7 1 9 0;
#X connect 7 2 10 0;
#X connect 7 3 11 0;
#X connect 7 4 12 0;
#X connect 13 0 14 0;
#X connect 13 1 15 0;
#X connect 13 2 16 0;
#X connect 13 3 17 0;
#X connect 13 4 18 0;
#X connect 19 0 20 0;
#X connect 19 1 21 0;
#X connect 19 2 22 0;
#X connect 19 3 23 0;
#X connect 19 4 24 0;
#X connect 33 0 1 0;
#X connect 33 1 7 0;
#X connect 33 2 34 0;
#X connect 34 0 13 0;
#X connect 34 1 19 0;
#X connect 34 2 35 0;
#X connect 35 0 50 0;
#X connect 36 0 38 0;
#X connect 37 0 39 0;
#X connect 40 0 29 0;
#X connect 40 1 30 0;
#X connect 40 2 41 0;
#X connect 40 3 42 0;
#X connect 43 0 31 0;
#X connect 43 1 32 0;
#X connect 43 2 44 0;
#X connect 43 3 45 0;
#X connect 46 0 48 0;
#X connect 47 0 49 0;
#X connect 50 0 36 0;
#X connect 50 1 37 0;
#X connect 50 2 46 0;
#X connect 50 3 47 0;
#X connect 51 0 25 0;
#X connect 51 1 26 0;
#X connect 51 2 27 0;
#X connect 51 3 28 0;
#X connect 51 4 52 0;
#X connect 54 0 55 0;
#X connect 54 1 56 0;
#X connect 54 2 57 0;
#X connect 58 0 59 0;
#X connect 60 0 51 0;
#X connect 60 1 40 0;
#X connect 60 2 43 0;
#X connect 60 3 53 0;
#X connect 60 4 54 0;
#X connect 60 5 58 0;
#X connect 60 6 61 0;
#X connect 61 0 62 0;
#X restore 410 151 pd basicGui;
#N canvas 0 22 1229 498 shuffler 0;
#X obj 42 56 inlet;
#X obj 42 99 route CHANGE_SHUFFLER_SELECT;
#X obj 41 436 s r_rndsel_gen1;
#X obj 151 436 s r_rndsel_gen2;
#X obj 261 436 s r_rndsel_fx1;
#X obj 371 436 s r_rndsel_fx2;
#X obj 481 436 s r_rndsel_mix;
#X obj 591 436 s r_rndsel_mixout;
#X obj 711 436 s r_rndsel_faderout;
#X obj 841 436 s r_rndsel_out;
#X obj 940 436 s r_rndsel_blinken;
#X obj 1067 436 s r_rndsel_image;
#X obj 1065 387 s r_rndsel_tint;
#X obj 1065 337 s r_rndsel_textdef;
#X obj 1052 290 s r_rndsel_threshold;
#X obj 1050 241 s r_rndsel_rotozoom;
#X obj 422 36 unpack i i i i i i i i i i i i i i;
#X connect 0 0 1 0;
#X connect 1 0 16 0;
#X connect 16 0 2 0;
#X connect 16 1 3 0;
#X connect 16 2 4 0;
#X connect 16 3 5 0;
#X connect 16 4 6 0;
#X connect 16 5 7 0;
#X connect 16 6 8 0;
#X connect 16 7 9 0;
#X connect 16 8 10 0;
#X connect 16 9 11 0;
#X connect 16 10 12 0;
#X connect 16 11 13 0;
#X connect 16 12 14 0;
#X connect 16 13 15 0;
#X restore 410 191 pd shuffler;
#X obj 732 397 netsend;
#X obj 640 347 metro 1000;
#X obj 640 321 tgl 15 0 empty empty empty 17 7 0 10 -262144 -1 -1 0
1;
#X msg 640 380 send STATUS;
#X obj 641 413 route 1;
#N canvas 111 118 1169 645 basicGui 0;
#X obj 84 -21 receive s_gen1;
#X obj 183 -21 receive s_gen2;
#X obj 282 -21 receive s_gen3;
#X floatatom 84 5 5 0 0 0 - - -;
#X floatatom 282 5 5 0 0 0 - - -;
#X floatatom 183 5 5 0 0 0 - - -;
#X obj 57 21 bng 15 250 50 0 empty empty empty 17 7 0 10 -262144 -1
-1;
#X floatatom 82 123 5 0 0 0 - - -;
#X floatatom 300 123 5 0 0 0 - - -;
#X floatatom 191 123 5 0 0 0 - - -;
#X obj 58 139 bng 15 250 50 0 empty empty empty 17 7 0 10 -262144 -1
-1;
#X obj 82 97 receive s_gen_b1;
#X obj 191 97 receive s_gen_b2;
#X obj 300 97 receive s_gen_b3;
#X floatatom 82 245 5 0 0 0 - - -;
#X floatatom 300 245 5 0 0 0 - - -;
#X floatatom 191 245 5 0 0 0 - - -;
#X obj 56 261 bng 15 250 50 0 empty empty empty 17 7 0 10 -262144 -1
-1;
#X obj 82 219 receive s_fx1;
#X obj 191 219 receive s_fx2;
#X obj 300 219 receive s_fx3;
#X floatatom 82 371 5 0 0 0 - - -;
#X floatatom 300 371 5 0 0 0 - - -;
#X floatatom 191 371 5 0 0 0 - - -;
#X obj 56 387 bng 15 250 50 0 empty empty empty 17 7 0 10 -262144 -1
-1;
#X obj 82 345 receive s_fx_b1;
#X obj 191 345 receive s_fx_b2;
#X obj 300 345 receive s_fx_b3;
#X floatatom 652 6 5 0 0 0 - - -;
#X floatatom 870 6 5 0 0 0 - - -;
#X floatatom 761 6 5 0 0 0 - - -;
#X obj 605 22 bng 15 250 50 0 empty empty empty 17 7 0 10 -262144 -1
-1;
#X obj 652 -20 receive s_mix1;
#X obj 761 -20 receive s_mix2;
#X obj 870 -20 receive s_mix3;
#X floatatom 652 126 5 0 0 0 - - -;
#X floatatom 761 126 5 0 0 0 - - -;
#X obj 653 99 receive s_out1;
#X obj 761 100 receive s_out2;
#X obj 627 142 bng 15 250 50 0 empty empty empty 17 7 0 10 -262144
-1 -1;
#X floatatom 970 6 5 0 0 0 - - -;
#X floatatom 1073 6 5 0 0 0 - - -;
#X obj 970 -21 receive s_mix4;
#X obj 1073 -20 receive s_mix5;
#X obj 652 31 pack i i i i i;
#X msg 652 55 send CHANGE_MIXER \$1 \$2 \$3 \$4 \$5;
#X floatatom 481 5 5 0 0 0 - - -;
#X floatatom 382 5 5 0 0 0 - - -;
#X obj 382 -22 receive s_gen4;
#X obj 481 -21 receive s_gen5;
#X obj 84 27 pack i i i i i;
#X msg 84 52 send CHANGE_GENERATOR_A \$1 \$2 \$3 \$4 \$5;
#X floatatom 520 123 5 0 0 0 - - -;
#X floatatom 411 123 5 0 0 0 - - -;
#X obj 411 97 receive s_gen_b4;
#X obj 521 97 receive s_gen_b5;
#X obj 82 146 pack i i i i i;
#X msg 82 170 send CHANGE_GENERATOR_B \$1 \$2 \$3 \$4 \$5;
#X floatatom 510 245 5 0 0 0 - - -;
#X floatatom 401 245 5 0 0 0 - - -;
#X obj 401 219 receive s_fx4;
#X obj 510 219 receive s_fx5;
#X obj 82 268 pack i i i i i;
#X msg 82 291 send CHANGE_EFFECT_A \$1 \$2 \$3 \$4 \$5;
#X msg 82 417 send CHANGE_EFFECT_B \$1 \$2 \$3 \$4 \$5;
#X obj 82 394 pack i i i i i;
#X floatatom 517 371 5 0 0 0 - - -;
#X floatatom 408 371 5 0 0 0 - - -;
#X obj 408 345 receive s_fx_b4;
#X obj 517 345 receive s_fx_b5;
#X obj 568 43 delay 20;
#X obj 591 163 delay 20;
#X obj 22 41 delay 20;
#X obj 20 163 delay 20;
#X obj 19 282 delay 20;
#X obj 20 410 delay 20;
#X floatatom 652 246 5 0 0 0 - - -;
#X floatatom 761 246 5 0 0 0 - - -;
#X obj 630 263 bng 15 250 50 0 empty empty empty 17 7 0 10 -262144
-1 -1;
#X obj 593 284 delay 20;
#X obj 652 220 receive s_fader1;
#X obj 761 220 receive s_fader2;
#X floatatom 653 366 5 0 0 0 - - -;
#X floatatom 762 366 5 0 0 0 - - -;
#X obj 631 383 bng 15 250 50 0 empty empty empty 17 7 0 10 -262144
-1 -1;
#X obj 594 404 delay 20;
#X obj 653 340 receive s_tint_r;
#X obj 762 340 receive s_tint_g;
#X floatatom 872 366 5 0 0 0 - - -;
#X obj 872 340 receive s_tint_b;
#X obj 653 391 pack i i i;
#X msg 653 415 send CHANGE_TINT \$1 \$2 \$3;
#X floatatom 82 486 5 0 0 0 - - -;
#X floatatom 221 486 5 0 0 0 - - -;
#X obj 60 503 bng 15 250 50 0 empty empty empty 17 7 0 10 -262144 -1
-1;
#X obj 23 524 delay 20;
#X obj 82 460 receive s_fx_output1;
#X obj 221 460 receive s_fx_output2;
#X msg 652 173 send CHANGE_OUTPUT \$1 \$2 \$3 \$4;
#X floatatom 862 126 5 0 0 0 - - -;
#X floatatom 971 126 5 0 0 0 - - -;
#X obj 863 99 receive s_out3;
#X obj 971 100 receive s_out4;
#X obj 652 150 pack i i i i;
#X floatatom 872 246 5 0 0 0 - - -;
#X floatatom 981 246 5 0 0 0 - - -;
#X obj 652 271 pack i i i i;
#X obj 872 220 receive s_fader3;
#X obj 981 220 receive s_fader4;
#X msg 652 295 send CHANGE_FADER \$1 \$2 \$3 \$4;
#X obj 82 511 pack i i i i;
#X floatatom 362 486 5 0 0 0 - - -;
#X floatatom 501 486 5 0 0 0 - - -;
#X obj 362 460 receive s_fx_output3;
#X obj 501 460 receive s_fx_output4;
#X msg 82 535 send CHANGE_OUTPUT_EFFECT \$1 \$2 \$3 \$4;
#X obj 560 592 outlet;
#X floatatom 652 486 5 0 0 0 - - -;
#X obj 652 460 receive s_rotozoom_angle;
#X obj 611 502 bng 15 250 50 0 empty empty empty 17 7 0 10 -262144
-1 -1;
#X obj 574 523 delay 20;
#X msg 652 535 send CHANGE_ROTOZOOM \$1;
#X obj 652 510 pack f;
#X connect 0 0 3 0;
#X connect 1 0 5 0;
#X connect 2 0 4 0;
#X connect 3 0 50 0;
#X connect 4 0 6 0;
#X connect 4 0 50 2;
#X connect 5 0 6 0;
#X connect 5 0 50 1;
#X connect 6 0 72 0;
#X connect 7 0 56 0;
#X connect 8 0 10 0;
#X connect 8 0 56 2;
#X connect 9 0 10 0;
#X connect 9 0 56 1;
#X connect 10 0 73 0;
#X connect 11 0 7 0;
#X connect 12 0 9 0;
#X connect 13 0 8 0;
#X connect 14 0 62 0;
#X connect 15 0 17 0;
#X connect 15 0 62 2;
#X connect 16 0 17 0;
#X connect 16 0 62 1;
#X connect 17 0 74 0;
#X connect 18 0 14 0;
#X connect 19 0 16 0;
#X connect 20 0 15 0;
#X connect 21 0 65 0;
#X connect 22 0 24 0;
#X connect 22 0 65 2;
#X connect 23 0 24 0;
#X connect 23 0 65 1;
#X connect 24 0 75 0;
#X connect 25 0 21 0;
#X connect 26 0 23 0;
#X connect 27 0 22 0;
#X connect 28 0 44 0;
#X connect 29 0 31 0;
#X connect 29 0 44 2;
#X connect 30 0 31 0;
#X connect 30 0 44 1;
#X connect 31 0 70 0;
#X connect 32 0 28 0;
#X connect 33 0 30 0;
#X connect 34 0 29 0;
#X connect 35 0 103 0;
#X connect 36 0 39 0;
#X connect 36 0 103 1;
#X connect 37 0 35 0;
#X connect 38 0 36 0;
#X connect 39 0 71 0;
#X connect 40 0 44 3;
#X connect 40 0 31 0;
#X connect 41 0 44 4;
#X connect 41 0 31 0;
#X connect 42 0 40 0;
#X connect 43 0 41 0;
#X connect 44 0 45 0;
#X connect 45 0 116 0;
#X connect 46 0 6 0;
#X connect 46 0 50 4;
#X connect 47 0 6 0;
#X connect 47 0 50 3;
#X connect 48 0 47 0;
#X connect 49 0 46 0;
#X connect 50 0 51 0;
#X connect 51 0 116 0;
#X connect 52 0 10 0;
#X connect 52 0 56 4;
#X connect 53 0 10 0;
#X connect 53 0 56 3;
#X connect 54 0 53 0;
#X connect 55 0 52 0;
#X connect 56 0 57 0;
#X connect 57 0 116 0;
#X connect 58 0 17 0;
#X connect 58 0 62 4;
#X connect 59 0 17 0;
#X connect 59 0 62 3;
#X connect 60 0 59 0;
#X connect 61 0 58 0;
#X connect 62 0 63 0;
#X connect 63 0 116 0;
#X connect 64 0 116 0;
#X connect 65 0 64 0;
#X connect 66 0 24 0;
#X connect 66 0 65 4;
#X connect 67 0 24 0;
#X connect 67 0 65 3;
#X connect 68 0 67 0;
#X connect 69 0 66 0;
#X connect 70 0 44 0;
#X connect 71 0 103 0;
#X connect 72 0 50 0;
#X connect 73 0 56 0;
#X connect 74 0 62 0;
#X connect 75 0 65 0;
#X connect 76 0 106 0;
#X connect 77 0 78 0;
#X connect 77 0 106 1;
#X connect 78 0 79 0;
#X connect 79 0 106 0;
#X connect 80 0 76 0;
#X connect 81 0 77 0;
#X connect 82 0 90 0;
#X connect 83 0 84 0;
#X connect 83 0 90 1;
#X connect 84 0 85 0;
#X connect 85 0 90 0;
#X connect 86 0 82 0;
#X connect 87 0 83 0;
#X connect 88 0 90 2;
#X connect 88 0 84 0;
#X connect 89 0 88 0;
#X connect 90 0 91 0;
#X connect 91 0 116 0;
#X connect 92 0 110 0;
#X connect 93 0 94 0;
#X connect 93 0 110 1;
#X connect 94 0 95 0;
#X connect 95 0 110 0;
#X connect 96 0 92 0;
#X connect 97 0 93 0;
#X connect 98 0 116 0;
#X connect 99 0 103 2;
#X connect 99 0 39 0;
#X connect 100 0 103 3;
#X connect 100 0 39 0;
#X connect 101 0 99 0;
#X connect 102 0 100 0;
#X connect 103 0 98 0;
#X connect 104 0 106 2;
#X connect 104 0 78 0;
#X connect 105 0 106 3;
#X connect 105 0 78 0;
#X connect 106 0 109 0;
#X connect 107 0 104 0;
#X connect 108 0 105 0;
#X connect 109 0 116 0;
#X connect 110 0 115 0;
#X connect 111 0 110 2;
#X connect 111 0 94 0;
#X connect 112 0 110 3;
#X connect 112 0 94 0;
#X connect 113 0 111 0;
#X connect 114 0 112 0;
#X connect 115 0 116 0;
#X connect 117 0 119 0;
#X connect 117 0 122 0;
#X connect 118 0 117 0;
#X connect 119 0 120 0;
#X connect 121 0 116 0;
#X connect 122 0 121 0;
#X restore 768 322 pd basicGui;
#N canvas 0 22 729 300 textureDeformation 0;
#X obj 346 226 outlet;
#X obj 37 58 r s_td_5;
#X msg 37 93 send TEXTDEF 5;
#X obj 147 58 r s_td_7;
#X msg 147 93 send TEXTDEF 7;
#X msg 257 93 send TEXTDEF 9;
#X obj 257 58 r s_td_9;
#X obj 367 58 r s_td_10;
#X msg 367 93 send TEXTDEF 10;
#X obj 487 58 r s_td_11;
#X msg 487 93 send TEXTDEF 11;
#X obj 597 58 r s_td_4;
#X msg 597 93 send TEXTDEF 4;
#X connect 1 0 2 0;
#X connect 2 0 0 0;
#X connect 3 0 4 0;
#X connect 4 0 0 0;
#X connect 5 0 0 0;
#X connect 6 0 5 0;
#X connect 7 0 8 0;
#X connect 8 0 0 0;
#X connect 9 0 10 0;
#X connect 10 0 0 0;
#X connect 11 0 12 0;
#X connect 12 0 0 0;
#X restore 770 221 pd textureDeformation;
#N canvas 607 166 673 328 generator 0;
#X obj 167 45 r blinkenfile;
#X obj 49 47 r textwriter;
#X msg 49 101 send TEXTWR \$1;
#X obj 49 74 symbol;
#X obj 167 72 symbol;
#X msg 167 102 send BLINKEN \$1;
#X obj 277 194 outlet;
#X obj 311 45 r image;
#X obj 311 72 symbol;
#X msg 311 102 send IMAGE \$1;
#X obj 433 45 r change_lut;
#X obj 433 72 symbol;
#X msg 433 103 send TEXTDEF_FILE \$1;
#X connect 0 0 4 0;
#X connect 1 0 3 0;
#X connect 2 0 6 0;
#X connect 3 0 2 0;
#X connect 4 0 5 0;
#X connect 5 0 6 0;
#X connect 7 0 8 0;
#X connect 8 0 9 0;
#X connect 9 0 6 0;
#X connect 10 0 11 0;
#X connect 11 0 12 0;
#X connect 12 0 6 0;
#X restore 771 270 pd generator;
#X obj 50 50 cnv 15 200 110 empty empty //network 20 12 0 14 -233017
-1 0;
#X floatatom 196 115 5 0 0 3 clients - -;
#X obj 536 8 r s_connect;
#X obj 516 43 cnv 15 200 100 empty empty send_to_server 20 12 0 14
-258113 -66577 0;
#X msg 536 88 connect 127.0.0.1 3448;
#X obj 289 43 cnv 15 200 100 empty empty receive_from_server 20 12
0 14 -258113 -66577 0;
#X obj 317 89 netreceive 3449;
#X obj 54 76 bng 30 250 50 0 s_connect r_connect Connect 35 15 0 15
-257985 -1 -1;
#X obj 54 113 bng 30 250 50 0 s_disconnect r_disconnect Disconnect
35 15 0 15 -257985 -1 -1;
#X floatatom 195 75 5 0 0 3 server - -;
#X obj 32 284 cnv 15 240 80 empty empty sound_display 20 12 0 14 -257985
-66577 0;
#X obj 55 312 route SND_HAT SND_SNARE SND_KICK;
#X obj 50 160 cnv 15 200 70 empty empty //beat_detect 20 12 0 14 -233017
-33289 0;
#X obj 85 182 tgl 20 0 empty r_snd_kick kick 0 30 0 10 -257985 -1 -1
0 1;
#X obj 136 182 tgl 20 0 empty r_snd_hat hat 0 30 0 10 -257985 -1 -1
0 1;
#X obj 186 182 tgl 20 0 empty r_snd_snare snare 0 30 0 10 -257985 -1
-1 0 1;
#X obj 732 89 r to_server;
#X msg 763 166 disconnect;
#X obj 763 143 r s_disconnect;
#X obj 287 327 cnv 15 220 150 empty empty autoconnect 20 12 0 14 -257985
-66577 0;
#X obj 301 396 bng 15 250 50 0 empty empty Connect -13 22 0 10 -262144
-1 -1;
#X obj 340 396 bng 15 250 50 0 empty empty Disconnect 0 22 0 10 -262144
-1 -1;
#X obj 301 438 s r_connect;
#X obj 301 363 route 1 2;
#X obj 398 440 s s_disconnect;
#X obj 408 231 send s_core_msg;
#X connect 2 0 19 0;
#X connect 2 0 6 0;
#X connect 3 0 5 0;
#X connect 4 0 3 0;
#X connect 5 0 2 0;
#X connect 6 0 5 0;
#X connect 7 0 2 0;
#X connect 8 0 2 0;
#X connect 9 0 2 0;
#X connect 11 0 33 0;
#X connect 12 0 14 0;
#X connect 14 0 2 0;
#X connect 16 0 0 0;
#X connect 16 0 1 0;
#X connect 16 0 21 0;
#X connect 16 0 35 0;
#X connect 16 1 11 0;
#X connect 21 0 24 0;
#X connect 21 1 25 0;
#X connect 21 2 23 0;
#X connect 26 0 2 0;
#X connect 27 0 2 0;
#X connect 28 0 27 0;
#X connect 30 0 32 0;
#X connect 31 0 34 0;
#X connect 33 0 30 0;
#X connect 33 1 30 0;
#X connect 33 2 31 0;
#X coords 0 -1 1 1 200 180 1 50 50;
#X restore 5 283 pd network;
#X text 306 -68 Effects: Off // Inverter // Rotozoom // Beat horizontal
shift // Beat vertical shift // Voluminize // Tint // Threshold //
Emboss;
#N canvas 60 38 815 243 output4all 0;
#X obj 424 167 s r_out1;
#X obj 532 168 s r_out2;
#X obj 634 167 s r_out3;
#X obj 742 168 s r_out4;
#X obj 401 127 s r_fader1;
#X obj 510 127 s r_fader2;
#X obj 621 127 s r_fader3;
#X obj 730 127 s r_fader4;
#X obj 292 96 s r_fx_output1;
#X obj 431 96 s r_fx_output2;
#X obj 572 96 s r_fx_output3;
#X obj 711 96 s r_fx_output4;
#X obj 50 50 cnv 15 150 100 empty empty //output_map 20 12 0 14 -204786
-66577 0;
#X obj 59 120 hradio 15 1 0 5 empty r_outall empty 0 -8 0 10 -228856
-1 -1 3;
#X obj 59 98 hradio 15 1 0 4 empty empty empty 0 -8 0 10 -228856 -1
-1 0;
#X obj 59 76 hradio 15 1 0 9 empty empty empty 0 -8 0 10 -228856 -1
-1 0;
#X connect 13 0 0 0;
#X connect 13 0 1 0;
#X connect 13 0 2 0;
#X connect 13 0 3 0;
#X connect 14 0 4 0;
#X connect 14 0 5 0;
#X connect 14 0 6 0;
#X connect 14 0 7 0;
#X connect 15 0 8 0;
#X connect 15 0 9 0;
#X connect 15 0 10 0;
#X connect 15 0 11 0;
#X coords 0 -1 1 1 150 100 1 50 50;
#X restore 740 177 pd output4all;
#X text 13 -69 Generators: Off // Blinkenlights // Image // Plasma
// Simplecolors Fire // Metaballs // Pixelimg // Texturedeformation
// Textwriter // Cell;
#X floatatom 368 391 5 0 0 3 client - -;
#X obj 870 32 hradio 15 1 0 13 s_gen5 r_gen5 empty 0 -8 0 10 -203904
-1 -1 0;
#X obj 870 54 hradio 15 1 0 9 s_fx5 r_fx5 empty 0 -8 0 10 -262130 -1
-1 0;
#X obj 870 87 hradio 15 1 0 13 s_gen_b5 r_gen_b5 empty 0 -8 0 10 -203904
-1 -1 0;
#X obj 870 109 hradio 15 1 0 9 s_fx_b5 r_fx_b5 empty 0 -8 0 10 -262130
-1 -1 0;
#X obj 870 140 hradio 15 1 0 9 s_mix5 r_mix5 empty 0 -8 0 10 -262144
-1 -1 0;
#X text 868 14 visual #5;
#X connect 65 0 74 0;
#X connect 65 1 66 0;
