#N canvas 632 98 1024 600 10;
#X declare -lib mrpeach;
#X obj -197 -30 cnv 15 400 490 empty empty //Visual 20 12 0 14 -204786
-66577 0;
#X obj 204 -31 cnv 15 320 200 empty empty //Single_Output 20 12 0 14
-257985 -66577 0;
#X obj 323 144 hradio 15 1 0 5 s_out1 r_out1 Visual_Nr. 0 -8 0 10 -261682
-1 -1 0;
#X obj 453 112 tgl 15 0 s_rndsel_mixout r_rndsel_mixout Effect 17 7
0 10 -260097 -1 -1 1 1;
#X obj 453 130 tgl 15 0 s_rndsel_faderout r_rndsel_faderout Fader 17
7 0 10 -260097 -1 -1 1 1;
#X obj 453 148 tgl 15 0 s_rndsel_out r_rndsel_out Visual 17 7 0 10
-260097 -1 -1 1 1;
#N canvas 465 363 565 357 fx 0;
#X obj 33 0 cnv 15 140 70 empty empty //Threshold 20 12 0 14 -262130
-66577 0;
#X floatatom 116 35 5 0 0 0 - - s_threshold;
#X obj 89 34 int;
#X obj 154 4 tgl 15 0 s_rndsel_threshold r_rndsel_threshold empty 17
7 0 10 -260097 -1 -1 1 1;
#X obj 49 28 knob 32 32 0 255 0 0 empty r_threshold empty 0 -8 0 8
-262144 -1 -1 500 1;
#X obj 33 71 cnv 15 140 160 empty empty //Tint 20 12 0 14 -262130 -66577
0;
#X obj 49 104 knob 32 32 0 255 0 0 empty r_tint_r R 38 16 0 12 -257985
-258113 -258113 3100 1;
#X floatatom 116 112 5 0 255 0 - - s_tint_r;
#X obj 89 111 int;
#X obj 49 144 knob 32 32 0 255 0 0 empty r_tint_g G 38 16 0 12 -262144
-4034 -4034 0 1;
#X floatatom 116 151 5 0 255 0 - - s_tint_g;
#X obj 89 151 int;
#X obj 49 184 knob 32 32 0 255 0 0 empty r_tint_b B 38 16 0 12 -262144
-4160 -4160 3100 1;
#X floatatom 116 191 5 0 255 0 - - s_tint_b;
#X obj 89 191 int;
#X obj 153 77 tgl 15 0 s_rndsel_tint r_rndsel_tint empty 17 7 0 10
-260097 -1 -1 1 1;
#X obj 33 221 cnv 15 140 70 empty empty //Rotozoom 20 12 0 14 -262130
-66577 0;
#X obj 47 252 knob 32 32 -127 127 0 0 empty r_rotozoom_angle ° 38
16 0 12 -262144 -33289 -1 1550 1;
#X floatatom 114 259 5 0 255 0 - - s_rotozoom_angle;
#X obj 87 259 int;
#X obj 153 230 tgl 15 0 s_rndsel_rotozoom r_rndsel_rotozoom empty 17
7 0 10 -260097 -1 -1 1 1;
#X connect 2 0 1 0;
#X connect 4 0 2 0;
#X connect 6 0 8 0;
#X connect 8 0 7 0;
#X connect 9 0 11 0;
#X connect 11 0 10 0;
#X connect 12 0 14 0;
#X connect 14 0 13 0;
#X connect 17 0 19 0;
#X connect 19 0 18 0;
#X coords 0 -1 1 1 140 290 1 33 0;
#X restore 205 172 pd fx;
#N canvas 527 374 1173 604 random 0;
#X msg 480 60 send RANDOM ON;
#X msg 480 87 send RANDOM OFF;
#X msg 480 36 send RANDOMIZE;
#X obj 50 50 cnv 15 205 100 empty empty //Mode 20 12 0 14 -260097 -66577
0;
#X obj 168 81 bng 20 250 50 0 s_rnd_do r_rnd_do RNDM 22 12 0 10 -261682
-33289 -1;
#X obj 75 81 bng 20 250 50 0 s_rnd_on r_rnd_on RANDOM_ON 22 11 0 10
-261682 -33289 -1;
#X obj 76 106 bng 20 250 50 0 s_rnd_off r_rnd_off RANDOM_OFF 22 11
0 10 -261682 -33289 -1;
#X obj 12 229 r s_rndsel_gen1;
#X floatatom 12 258 5 0 0 0 - - -;
#X floatatom 122 258 5 0 0 0 - - -;
#X obj 122 229 r s_rndsel_gen2;
#X floatatom 232 258 5 0 0 0 - - -;
#X floatatom 342 258 5 0 0 0 - - -;
#X obj 232 229 r s_rndsel_fx1;
#X obj 342 229 r s_rndsel_fx2;
#X floatatom 452 258 5 0 0 0 - - -;
#X floatatom 562 258 5 0 0 0 - - -;
#X obj 452 229 r s_rndsel_mix;
#X obj 562 229 r s_rndsel_mixout;
#X floatatom 682 258 5 0 0 0 - - -;
#X floatatom 812 258 5 0 0 0 - - -;
#X obj 682 229 r s_rndsel_faderout;
#X obj 812 229 r s_rndsel_out;
#X obj 122 293 bng 15 250 50 0 empty empty empty 17 7 0 10 -262144
-1 -1;
#X obj 85 314 delay 20;
#X obj 911 229 r s_rndsel_blinken;
#X obj 1038 229 r s_rndsel_image;
#X obj 908 300 r s_rndsel_tint;
#X floatatom 911 258 5 0 0 0 - - -;
#X floatatom 1038 258 5 0 0 0 - - -;
#X floatatom 908 328 5 0 0 0 - - -;
#X floatatom 1038 328 5 0 0 0 - - -;
#X obj 1038 300 r s_rndsel_textdef;
#X obj 766 300 r s_rndsel_threshold;
#X floatatom 766 328 5 0 0 0 - - -;
#X obj 62 516 send to_server;
#X obj 544 156 send to_server;
#X floatatom 631 328 5 0 0 0 - - -;
#X obj 631 300 r s_rndsel_rotozoom;
#X obj 168 106 bng 20 250 50 0 s_rnd_pres r_rnd_pres RND_PRES 22 12
0 10 -261682 -33289 -1;
#X msg 480 115 send PRESET_RANDOM;
#X obj 62 441 pack i i i i i i i i i i i i i i i;
#X msg 62 473 send CHANGE_SHUFFLER_SELECT \$1 \$2 \$3 \$4 \$5 \$6 \$7
\$8 \$9 \$10 \$11 \$12 \$13 \$14 \$15;
#X floatatom 483 330 5 0 0 0 - - -;
#X obj 483 302 r s_rndsel_colorscroll;
#X connect 0 0 36 0;
#X connect 1 0 36 0;
#X connect 2 0 36 0;
#X connect 4 0 2 0;
#X connect 5 0 0 0;
#X connect 6 0 1 0;
#X connect 7 0 8 0;
#X connect 8 0 41 0;
#X connect 9 0 23 0;
#X connect 9 0 41 1;
#X connect 10 0 9 0;
#X connect 11 0 23 0;
#X connect 11 0 41 2;
#X connect 12 0 23 0;
#X connect 12 0 41 3;
#X connect 13 0 11 0;
#X connect 14 0 12 0;
#X connect 15 0 23 0;
#X connect 15 0 41 4;
#X connect 16 0 23 0;
#X connect 16 0 41 5;
#X connect 17 0 15 0;
#X connect 18 0 16 0;
#X connect 19 0 23 0;
#X connect 19 0 41 6;
#X connect 20 0 24 0;
#X connect 20 0 41 7;
#X connect 21 0 19 0;
#X connect 22 0 20 0;
#X connect 23 0 24 0;
#X connect 24 0 41 0;
#X connect 25 0 28 0;
#X connect 26 0 29 0;
#X connect 27 0 30 0;
#X connect 28 0 23 0;
#X connect 28 0 41 8;
#X connect 29 0 23 0;
#X connect 29 0 41 9;
#X connect 30 0 23 0;
#X connect 30 0 41 10;
#X connect 31 0 23 0;
#X connect 31 0 41 11;
#X connect 32 0 31 0;
#X connect 33 0 34 0;
#X connect 34 0 23 0;
#X connect 34 0 41 12;
#X connect 37 0 23 0;
#X connect 37 0 41 13;
#X connect 38 0 37 0;
#X connect 39 0 40 0;
#X connect 40 0 36 0;
#X connect 41 0 42 0;
#X connect 42 0 35 0;
#X connect 43 0 41 14;
#X connect 43 0 23 0;
#X connect 44 0 43 0;
#X coords 0 -1 1 1 205 100 1 50 50;
#X restore 350 287 pd random;
#X obj 65 -4 hradio 22 1 0 5 s_current_visual r_current_visual current_visual
6 -8 0 12 -258113 -86277 -1 2;
#X obj 422 -4 hradio 22 1 0 4 s_current_output r_current_output select_output
0 -8 0 12 -4034 -86277 -1 0;
#N canvas 304 463 953 523 network 1;
#N canvas 42 183 1126 428 basicGui 0;
#X obj 18 23 inlet;
#X obj 28 150 s r_gen1;
#X obj 155 150 s r_gen_b1;
#X obj 312 130 s r_fx1;
#X obj 421 131 s r_fx_b1;
#X obj 18 320 s r_mix1;
#X obj 18 390 s r_fader1;
#X obj 109 355 s r_out1;
#X obj 28 79 route CHANGE_GENERATOR_A CHANGE_GENERATOR_B;
#X obj 312 80 route CHANGE_EFFECT_A CHANGE_EFFECT_B;
#X obj 592 80 route CHANGE_OUTPUT_EFFECT;
#X floatatom 592 156 5 0 0 0 - - -;
#X obj 592 183 s r_fx_output1;
#X obj 142 268 s r_sel;
#X obj 204 315 unpack i i i;
#X obj 204 354 s r_tint_r;
#X obj 284 354 s r_tint_g;
#X obj 364 354 s r_tint_b;
#X obj 501 325 unpack i;
#X obj 501 355 s r_threshold;
#X obj 601 325 unpack i;
#X obj 601 355 s r_rotozoom_angle;
#X obj 18 286 unpack i;
#X obj 421 107 unpack i;
#X obj 312 106 unpack i;
#X obj 28 116 unpack i;
#X obj 155 116 unpack i;
#X obj 808 110 unpack i;
#X obj 808 136 s r_current_visual;
#X obj 808 82 route CURRENT_VISUAL;
#X obj 958 110 unpack i;
#X obj 958 82 route CURRENT_OUTPUT;
#X obj 958 136 s r_current_output;
#X obj 592 116 unpack i;
#X obj 18 356 unpack i;
#X obj 109 321 unpack i;
#X obj 18 207 route CHANGE_MIXER CHANGE_OUTPUT_FADER CHANGE_OUTPUT_VISUAL
CHANGE_PRESENT CHANGE_TINT CHANGE_THRESHOLD_VALUE CHANGE_ROTOZOOM;
#X connect 0 0 8 0;
#X connect 0 0 36 0;
#X connect 8 0 25 0;
#X connect 8 1 26 0;
#X connect 8 2 9 0;
#X connect 9 0 24 0;
#X connect 9 1 23 0;
#X connect 9 2 10 0;
#X connect 10 0 33 0;
#X connect 10 1 29 0;
#X connect 11 0 12 0;
#X connect 14 0 15 0;
#X connect 14 1 16 0;
#X connect 14 2 17 0;
#X connect 18 0 19 0;
#X connect 20 0 21 0;
#X connect 22 0 5 0;
#X connect 23 0 4 0;
#X connect 24 0 3 0;
#X connect 25 0 1 0;
#X connect 26 0 2 0;
#X connect 27 0 28 0;
#X connect 29 0 27 0;
#X connect 29 1 31 0;
#X connect 30 0 32 0;
#X connect 31 0 30 0;
#X connect 33 0 11 0;
#X connect 34 0 6 0;
#X connect 35 0 7 0;
#X connect 36 0 22 0;
#X connect 36 1 34 0;
#X connect 36 2 35 0;
#X connect 36 3 13 0;
#X connect 36 4 14 0;
#X connect 36 5 18 0;
#X connect 36 6 20 0;
#X restore 430 151 pd basicGui;
#N canvas 19 119 1229 498 shuffler 0;
#X obj 42 56 inlet;
#X obj 42 99 route CHANGE_SHUFFLER_SELECT;
#X obj 41 436 s r_rndsel_gen1;
#X obj 151 436 s r_rndsel_gen2;
#X obj 261 436 s r_rndsel_fx1;
#X obj 371 436 s r_rndsel_fx2;
#X obj 481 436 s r_rndsel_mix;
#X obj 591 436 s r_rndsel_mixout;
#X obj 711 436 s r_rndsel_faderout;
#X obj 841 436 s r_rndsel_out;
#X obj 940 436 s r_rndsel_blinken;
#X obj 1067 436 s r_rndsel_image;
#X obj 1065 387 s r_rndsel_tint;
#X obj 1065 337 s r_rndsel_textdef;
#X obj 1052 290 s r_rndsel_threshold;
#X obj 1050 241 s r_rndsel_rotozoom;
#X obj 1048 196 s r_rndsel_colorscroll;
#X obj 422 36 unpack i i i i i i i i i i i i i i i;
#X connect 0 0 1 0;
#X connect 1 0 17 0;
#X connect 17 0 2 0;
#X connect 17 1 3 0;
#X connect 17 2 4 0;
#X connect 17 3 5 0;
#X connect 17 4 6 0;
#X connect 17 5 7 0;
#X connect 17 6 8 0;
#X connect 17 7 9 0;
#X connect 17 8 10 0;
#X connect 17 9 11 0;
#X connect 17 10 12 0;
#X connect 17 11 13 0;
#X connect 17 12 14 0;
#X connect 17 13 15 0;
#X connect 17 14 16 0;
#X restore 430 191 pd shuffler;
#X obj 732 397 netsend;
#X obj 640 347 metro 1000;
#X obj 640 321 tgl 15 0 empty empty empty 17 7 0 10 -262144 -1 -1 0
1;
#X msg 640 380 send STATUS;
#X obj 641 413 route 1;
#N canvas 23 141 1257 659 basicGui 0;
#X obj 84 -21 receive s_gen1;
#X floatatom 84 5 5 0 0 0 - - -;
#X floatatom 342 3 5 0 0 0 - - -;
#X obj 342 -23 receive s_gen_b1;
#X floatatom 82 135 5 0 0 0 - - -;
#X obj 82 109 receive s_fx1;
#X floatatom 342 135 5 0 0 0 - - -;
#X obj 342 109 receive s_fx_b1;
#X floatatom 339 273 5 0 0 0 - - -;
#X obj 339 247 receive s_mix1;
#X floatatom 652 126 5 0 0 0 - - -;
#X obj 653 99 receive s_out1;
#X obj 627 142 bng 15 250 50 0 empty empty empty 17 7 0 10 -262144
-1 -1;
#X obj 591 163 delay 20;
#X floatatom 652 246 5 0 0 0 - - -;
#X obj 630 263 bng 15 250 50 0 empty empty empty 17 7 0 10 -262144
-1 -1;
#X obj 593 284 delay 20;
#X obj 652 220 receive s_fader1;
#X floatatom 653 396 5 0 0 0 - - -;
#X floatatom 762 396 5 0 0 0 - - -;
#X obj 631 413 bng 15 250 50 0 empty empty empty 17 7 0 10 -262144
-1 -1;
#X obj 594 434 delay 20;
#X obj 653 370 receive s_tint_r;
#X obj 762 370 receive s_tint_g;
#X floatatom 872 396 5 0 0 0 - - -;
#X obj 872 370 receive s_tint_b;
#X obj 653 421 pack i i i;
#X msg 653 445 send CHANGE_TINT \$1 \$2 \$3;
#X floatatom 614 9 5 0 0 0 - - -;
#X obj 592 26 bng 15 250 50 0 empty empty empty 17 7 0 10 -262144 -1
-1;
#X obj 555 47 delay 20;
#X obj 614 -17 receive s_fx_output1;
#X obj 560 592 outlet;
#X floatatom 90 435 5 0 0 0 - - -;
#X obj 90 409 receive s_rotozoom_angle;
#X msg 90 484 send CHANGE_ROTOZOOM \$1;
#X obj 90 459 pack f;
#X obj 339 298 pack i;
#X msg 339 322 send CHANGE_MIXER \$1;
#X obj 84 27 pack i;
#X obj 342 26 pack i;
#X obj 82 158 pack i;
#X obj 342 158 pack i;
#X msg 342 181 send CHANGE_EFFECT_B \$1;
#X msg 82 181 send CHANGE_EFFECT_A \$1;
#X msg 342 50 send CHANGE_GENERATOR_B \$1;
#X msg 84 52 send CHANGE_GENERATOR_A \$1;
#X floatatom 81 285 5 0 0 0 - - -;
#X obj 81 308 pack i;
#X obj 81 259 receive s_current_visual;
#X msg 81 331 send CURRENT_VISUAL \$1;
#X obj 614 34 pack i;
#X msg 614 58 send CHANGE_OUTPUT_EFFECT \$1;
#X obj 652 150 pack i;
#X obj 652 271 pack i;
#X floatatom 874 485 5 0 0 0 - - -;
#X obj 874 508 pack i;
#X obj 874 459 receive s_current_output;
#X msg 874 531 send CURRENT_OUTPUT \$1;
#X msg 652 173 send CHANGE_OUTPUT_VISUAL \$1;
#X msg 652 295 send CHANGE_OUTPUT_FADER \$1;
#X floatatom 867 21 5 0 0 0 - - -;
#X obj 867 44 pack i;
#X obj 867 -5 receive s_output_fx_all;
#X msg 867 67 send CHANGE_ALL_OUTPUT_EFFECT \$1;
#X floatatom 867 141 5 0 0 0 - - -;
#X obj 867 164 pack i;
#X msg 867 187 send CHANGE_ALL_OUTPUT_FADER \$1;
#X floatatom 867 261 5 0 0 0 - - -;
#X obj 867 284 pack i;
#X obj 867 235 receive s_output_visual_all;
#X msg 867 307 send CHANGE_ALL_OUTPUT_VISUAL \$1;
#X obj 867 115 receive s_output_fader_all;
#X connect 0 0 1 0;
#X connect 1 0 39 0;
#X connect 2 0 40 0;
#X connect 3 0 2 0;
#X connect 4 0 41 0;
#X connect 5 0 4 0;
#X connect 6 0 42 0;
#X connect 7 0 6 0;
#X connect 8 0 37 0;
#X connect 9 0 8 0;
#X connect 10 0 53 0;
#X connect 11 0 10 0;
#X connect 12 0 13 0;
#X connect 13 0 53 0;
#X connect 14 0 54 0;
#X connect 15 0 16 0;
#X connect 16 0 54 0;
#X connect 17 0 14 0;
#X connect 18 0 26 0;
#X connect 19 0 20 0;
#X connect 19 0 26 1;
#X connect 20 0 21 0;
#X connect 21 0 26 0;
#X connect 22 0 18 0;
#X connect 23 0 19 0;
#X connect 24 0 26 2;
#X connect 24 0 20 0;
#X connect 25 0 24 0;
#X connect 26 0 27 0;
#X connect 27 0 32 0;
#X connect 28 0 51 0;
#X connect 29 0 30 0;
#X connect 30 0 51 0;
#X connect 31 0 28 0;
#X connect 33 0 36 0;
#X connect 34 0 33 0;
#X connect 35 0 32 0;
#X connect 36 0 35 0;
#X connect 37 0 38 0;
#X connect 38 0 32 0;
#X connect 39 0 46 0;
#X connect 40 0 45 0;
#X connect 41 0 44 0;
#X connect 42 0 43 0;
#X connect 43 0 32 0;
#X connect 44 0 32 0;
#X connect 45 0 32 0;
#X connect 46 0 32 0;
#X connect 47 0 48 0;
#X connect 48 0 50 0;
#X connect 49 0 47 0;
#X connect 50 0 32 0;
#X connect 51 0 52 0;
#X connect 52 0 32 0;
#X connect 53 0 59 0;
#X connect 54 0 60 0;
#X connect 55 0 56 0;
#X connect 56 0 58 0;
#X connect 57 0 55 0;
#X connect 58 0 32 0;
#X connect 59 0 32 0;
#X connect 60 0 32 0;
#X connect 61 0 62 0;
#X connect 62 0 64 0;
#X connect 63 0 61 0;
#X connect 64 0 32 0;
#X connect 65 0 66 0;
#X connect 66 0 67 0;
#X connect 67 0 32 0;
#X connect 68 0 69 0;
#X connect 69 0 71 0;
#X connect 70 0 68 0;
#X connect 71 0 32 0;
#X connect 72 0 65 0;
#X restore 798 322 pd basicGui;
#N canvas 0 22 729 300 textureDeformation 0;
#X obj 346 226 outlet;
#X obj 37 58 r s_td_5;
#X msg 37 93 send TEXTDEF 5;
#X obj 147 58 r s_td_7;
#X msg 147 93 send TEXTDEF 7;
#X msg 257 93 send TEXTDEF 9;
#X obj 257 58 r s_td_9;
#X obj 367 58 r s_td_10;
#X msg 367 93 send TEXTDEF 10;
#X obj 487 58 r s_td_11;
#X msg 487 93 send TEXTDEF 11;
#X obj 597 58 r s_td_4;
#X msg 597 93 send TEXTDEF 4;
#X connect 1 0 2 0;
#X connect 2 0 0 0;
#X connect 3 0 4 0;
#X connect 4 0 0 0;
#X connect 5 0 0 0;
#X connect 6 0 5 0;
#X connect 7 0 8 0;
#X connect 8 0 0 0;
#X connect 9 0 10 0;
#X connect 10 0 0 0;
#X connect 11 0 12 0;
#X connect 12 0 0 0;
#X restore 790 221 pd textureDeformation;
#N canvas 381 22 885 576 generator 0;
#X obj 167 45 r blinkenfile;
#X obj 49 47 r textwriter;
#X msg 49 101 send TEXTWR \$1;
#X obj 49 74 symbol;
#X obj 167 72 symbol;
#X msg 167 102 send BLINKEN \$1;
#X obj 311 541 outlet;
#X obj 311 45 r image;
#X obj 311 72 symbol;
#X msg 311 102 send IMAGE \$1;
#X obj 433 45 r change_lut;
#X obj 433 72 symbol;
#X msg 433 103 send TEXTDEF_FILE \$1;
#X obj 587 46 r color_scroll;
#X msg 587 133 send COLOR_SCROLL_OPT \$1;
#X floatatom 587 74 5 0 0 0 - - -;
#X obj 587 96 pack i;
#X obj 49 184 symbol;
#X obj 49 304 symbol;
#X obj 49 157 r color_scroll_map;
#X obj 49 277 r color_fade_map;
#X obj 49 424 symbol;
#X obj 49 397 r plasma_map;
#X obj 433 277 r color_fade_length;
#X obj 433 397 r color_scroll_length;
#X obj 433 304 int;
#X obj 433 424 int;
#X msg 433 331 send COLOR_FADE_LENGTH \$1;
#X msg 433 451 send COLOR_SCROLL_LENGTH \$1;
#X msg 49 451 send PLASMA_MAP \$1;
#X msg 49 331 send COLOR_FADE_MAP \$1;
#X msg 49 211 send COLOR_SCROLL_MAP \$1;
#X connect 0 0 4 0;
#X connect 1 0 3 0;
#X connect 2 0 6 0;
#X connect 3 0 2 0;
#X connect 4 0 5 0;
#X connect 5 0 6 0;
#X connect 7 0 8 0;
#X connect 8 0 9 0;
#X connect 9 0 6 0;
#X connect 10 0 11 0;
#X connect 11 0 12 0;
#X connect 12 0 6 0;
#X connect 13 0 15 0;
#X connect 14 0 6 0;
#X connect 15 0 16 0;
#X connect 16 0 14 0;
#X connect 17 0 31 0;
#X connect 18 0 30 0;
#X connect 19 0 17 0;
#X connect 20 0 18 0;
#X connect 21 0 29 0;
#X connect 22 0 21 0;
#X connect 23 0 25 0;
#X connect 24 0 26 0;
#X connect 25 0 27 0;
#X connect 26 0 28 0;
#X connect 27 0 6 0;
#X connect 28 0 6 0;
#X connect 29 0 6 0;
#X connect 30 0 6 0;
#X connect 31 0 6 0;
#X restore 791 270 pd generator;
#X obj 50 50 cnv 15 205 110 empty empty //Network 20 12 0 14 -260097
-1 0;
#X floatatom 195 79 5 0 0 3 clients - -;
#X obj 555 8 r s_connect;
#X obj 536 43 cnv 15 200 100 empty empty send_to_server 20 12 0 14
-258113 -66577 0;
#X msg 556 88 connect 127.0.0.1 3448;
#X obj 328 44 cnv 15 200 100 empty empty receive_from_server 20 12
0 14 -258113 -66577 0;
#X obj 337 89 netreceive 3449;
#X obj 60 77 bng 30 250 50 0 s_connect r_connect Conn 35 15 0 15 -257985
-1 -1;
#X obj 60 114 bng 30 250 50 0 s_disconnect r_disconnect Disc 35 15
0 15 -257985 -1 -1;
#X floatatom 147 80 5 0 0 3 server - -;
#X obj 752 89 r to_server;
#X msg 783 166 disconnect;
#X obj 783 143 r s_disconnect;
#X obj 287 327 cnv 15 220 150 empty empty autoconnect 20 12 0 14 -257985
-66577 0;
#X obj 301 396 bng 15 250 50 0 empty empty Connect -13 22 0 10 -262144
-1 -1;
#X obj 340 396 bng 15 250 50 0 empty empty Disconnect 0 22 0 10 -262144
-1 -1;
#X obj 301 438 s r_connect;
#X obj 301 363 route 1 2;
#X obj 398 440 s s_disconnect;
#X obj 428 231 send s_core_msg;
#X floatatom 147 120 5 0 0 3 osc_srv - -;
#X floatatom 195 120 5 0 0 3 osc_client - -;
#X obj 63 196 r oscClient;
#X msg 644 184 send SCREENSHOT;
#X connect 2 0 19 0;
#X connect 2 0 6 0;
#X connect 3 0 5 0;
#X connect 4 0 3 0;
#X connect 5 0 2 0;
#X connect 6 0 5 0;
#X connect 7 0 2 0;
#X connect 8 0 2 0;
#X connect 9 0 2 0;
#X connect 11 0 27 0;
#X connect 12 0 14 0;
#X connect 14 0 2 0;
#X connect 16 0 0 0;
#X connect 16 0 1 0;
#X connect 16 0 29 0;
#X connect 16 1 11 0;
#X connect 20 0 2 0;
#X connect 21 0 2 0;
#X connect 22 0 21 0;
#X connect 24 0 26 0;
#X connect 25 0 28 0;
#X connect 27 0 24 0;
#X connect 27 1 24 0;
#X connect 27 2 25 0;
#X connect 32 0 31 0;
#X connect 33 0 2 0;
#X coords 0 -1 1 1 205 110 1 50 50;
#X restore 350 173 pd network;
#X obj -187 9 vradio 15 1 0 18 s_gen1 r_gen1 Generator1 0 -8 0 12 -203904
-1 -1 1;
#X text -170 7 Off;
#X text -170 23 Blinken;
#X text -170 38 Image;
#X text -169 53 Plasma;
#X text -169 82 Fire;
#X text -169 98 Metaballs;
#X text -169 113 Pixel;
#X text -169 129 Texturedeform;
#X text -169 144 Text;
#X text -170 173 Cell;
#X text -169 188 PlasmaAdvanced;
#X text -169 203 Frequency;
#X text -169 218 Drops;
#X text -170 158 Image Zoomer;
#X obj -73 9 vradio 15 1 0 17 s_gen_b1 r_gen_b1 Generator2 0 -8 0 12
-203904 -1 -1 5;
#X obj -186 302 vradio 15 1 0 10 s_fx1 r_fx1 Effect1 0 -8 0 12 -262130
-1 -1 0;
#X text -166 300 Off;
#X text -167 317 Inverter;
#X text -166 331 Rotozoom;
#X text -166 346 Beat Shift H;
#X text -166 362 Beat Shift V;
#X text -166 376 Voluminize;
#X text -166 406 Threshold;
#X text -166 391 Tint;
#X text -165 420 Emboss;
#X text -165 436 Zoom;
#X obj -74 302 vradio 15 1 0 10 s_fx_b1 r_fx_b1 Effect2 0 -8 0 12 -262130
-1 -1 0;
#N canvas 401 146 727 402 presentStuff 0;
#X obj 491 105 r s_save_preset;
#X msg 491 70 send LOAD_PRESENT;
#X obj 491 45 r s_load_preset;
#X msg 491 130 send SAVE_PRESENT;
#X obj 491 165 r s_sel;
#X msg 491 190 send CHANGE_PRESENT \$1;
#X obj 491 227 r s_threshold;
#X msg 491 277 send CHANGE_THRESHOLD_VALUE \$1;
#X obj 461 252 int;
#X obj 50 50 cnv 15 400 60 empty empty //Presets 20 12 0 14 -260097
-66577 0;
#X obj 417 59 bng 24 250 50 0 s_save_preset r_save_preset Save -3 38
0 12 -257985 -1 -1;
#X obj 380 59 bng 24 250 50 0 s_load_preset r_load_preset Load -3 38
0 12 -257985 -1 -1;
#X obj 491 317 s to_server;
#X obj 248 282 int;
#X floatatom 327 77 5 0 0 0 - r_sel s_sel;
#X obj 248 327 s r_sel;
#X obj 70 74 hsl 250 25 0 127 0 0 empty r_selected_preset empty -2
-8 0 10 -262130 -1 -1 0 1;
#X connect 0 0 3 0;
#X connect 1 0 12 0;
#X connect 2 0 1 0;
#X connect 3 0 12 0;
#X connect 4 0 5 0;
#X connect 5 0 12 0;
#X connect 6 0 8 0;
#X connect 7 0 12 0;
#X connect 8 0 7 0;
#X connect 13 0 15 0;
#X connect 16 0 13 0;
#X coords 0 -1 1 1 400 60 1 50 50;
#X restore -198 461 pd presentStuff;
#X obj 65 302 vradio 15 1 0 10 s_mix1 r_mix1 Mixer 0 -8 0 12 -99865
-1 -1 7;
#X text -55 7 Off;
#X text -55 23 Blinken;
#X text -55 38 Image;
#X text -54 53 Plasma;
#X text -54 82 Fire;
#X text -54 98 Metaballs;
#X text -54 113 Pixel;
#X text -54 129 Texturedeform;
#X text -54 144 Text;
#X text -55 173 Cell;
#X text -54 188 PlasmaAdvanced;
#X text -54 203 Frequency;
#X text -54 218 Drops;
#X text -55 158 Image Zoomer;
#X text -54 300 Off;
#X text -55 316 Inverter;
#X text -54 331 Rotozoom;
#X text -54 346 Beat Shift H;
#X text -54 362 Beat Shift V;
#X text -54 376 Voluminize;
#X text -54 406 Threshold;
#X text -54 391 Tint;
#X text -53 420 Emboss;
#X text -53 436 Zoom;
#X text 83 301 Off;
#X text 83 315 AddSat;
#X text 84 330 Multiply;
#X text 84 346 Mix;
#X text 84 361 Neg;
#X text 84 375 Checkboard;
#X text 84 405 Xor;
#X text 85 420 MinusHalf;
#X text 85 435 Either;
#X obj 61 40 cnv 15 140 200 empty empty empty 20 12 0 14 -261682 -66577
0;
#X obj 84 53 tgl 15 0 s_rndsel_gen1 r_rndsel_gen1 GEN1 17 7 0 10 -260097
-1 -1 1 1;
#X obj 84 79 tgl 15 0 s_rndsel_fx1 r_rndsel_fx1 FX1 17 7 0 10 -260097
-1 -1 1 1;
#X obj 142 53 tgl 15 0 s_rndsel_gen2 r_rndsel_gen2 GEN2 17 7 0 10 -260097
-1 -1 1 1;
#X obj 142 79 tgl 15 0 s_rndsel_fx2 r_rndsel_fx2 FX2 17 7 0 10 -260097
-1 -1 1 1;
#X obj 115 105 tgl 15 0 s_rndsel_mix r_rndsel_mix MIX 18 7 0 10 -260097
-1 -1 1 1;
#N canvas 0 22 1280 737 midi 0;
#X obj 15 330 notein;
#X floatatom 15 364 5 0 0 0 - - -;
#X floatatom 31 394 5 0 0 0 - - -;
#X floatatom 48 424 5 0 0 0 - - -;
#X obj 38 22 ctlin;
#X floatatom 38 124 5 0 0 0 - - -;
#X floatatom 57 82 5 0 0 0 - - -;
#X floatatom 65 49 5 0 0 0 - - -;
#X obj 725 212 send r_threshold;
#X obj 775 156 spigot;
#X obj 838 156 spigot;
#X obj 838 212 send r_tint_r;
#X obj 939 155 spigot;
#X obj 1039 155 spigot;
#X obj 939 211 send r_tint_g;
#X obj 1039 211 send r_tint_b;
#X obj 526 156 spigot;
#X obj 775 183 * 2;
#X obj 838 183 * 2;
#X obj 939 183 * 2;
#X obj 1039 183 * 2;
#X obj 425 157 spigot;
#X obj 336 156 spigot;
#X obj 246 156 spigot;
#X obj 246 183 div 15;
#X obj 336 183 div 15;
#X obj 158 156 spigot;
#X floatatom 526 210 5 0 0 0 - - -;
#X obj 549 234 !=;
#X obj 526 256 spigot;
#X floatatom 246 210 5 0 0 0 - - -;
#X obj 269 234 !=;
#X obj 246 256 spigot;
#X floatatom 336 210 5 0 0 0 - - -;
#X obj 359 234 !=;
#X obj 336 256 spigot;
#X floatatom 425 211 5 0 0 0 - - -;
#X obj 448 235 !=;
#X obj 425 257 spigot;
#X floatatom 158 210 5 0 0 0 - - -;
#X obj 181 234 !=;
#X obj 158 256 spigot;
#X text 93 20 controller value // controller number // channel number
;
#X text 73 325 midi note // velocity // midi channel number;
#X obj 15 460 s midiNote;
#X obj 886 57 r FADE_R;
#X obj 956 57 r FADE_G;
#X obj 871 98 ==;
#X obj 972 98 ==;
#X obj 1072 98 ==;
#X obj 1026 57 r FADE_B;
#X obj 779 57 r THRESHOLD;
#X obj 423 57 r SLIDER_GEN_A;
#X obj 524 57 r SLIDER_GEN_B;
#X obj 171 98 ==;
#X obj 259 98 ==;
#X obj 242 57 r SLIDER_FX_A;
#X obj 334 57 r SLIDER_FX_B;
#X obj 349 98 ==;
#X obj 438 98 ==;
#X obj 529 98 ==;
#X obj 156 57 r SLIDER_MIX;
#X obj 808 98 ==;
#X obj 23 485 cnv 15 130 100 empty empty MIDI_SETUP 20 12 0 14 -257985
-66577 0;
#N canvas 4 31 1276 353 midiSetup 0;
#X obj 99 44 loadbang;
#X obj 29 79 bng 15 250 50 0 empty empty empty 17 7 0 10 -262144 -1
-1;
#X obj 379 187 s FADE_R;
#X obj 449 187 s FADE_G;
#X msg 379 151 1;
#X msg 449 151 2;
#X msg 519 151 3;
#X obj 519 187 s FADE_B;
#X obj 589 187 s THRESHOLD;
#X msg 589 151 6;
#X obj 669 187 s SLIDER_GEN_A;
#X msg 669 151 11;
#X msg 769 151 12;
#X obj 769 187 s SLIDER_GEN_B;
#X obj 869 187 s SLIDER_FX_A;
#X obj 969 187 s SLIDER_FX_B;
#X msg 869 151 13;
#X msg 969 151 14;
#X obj 1059 187 s SLIDER_MIX;
#X msg 1059 151 15;
#X msg 1149 151 16;
#X obj 1149 187 s SLIDER_SELECT;
#X obj 90 257 s BUTTON_RANDOM;
#X msg 90 221 39;
#X msg 29 151 5;
#X obj 29 187 s FADER_ROTOZ;
#X msg 119 151 37;
#X msg 209 151 38;
#X obj 119 187 s BUTTON_RON;
#X obj 209 187 s BUTTON_ROFF;
#X msg 196 220 48;
#X msg 296 220 49;
#X msg 396 220 50;
#X obj 196 256 s BUTTON_OUTP1;
#X obj 296 255 s BUTTON_OUTP2;
#X obj 396 256 s BUTTON_OUTP3;
#X msg 496 220 44;
#X msg 596 220 45;
#X msg 696 220 46;
#X obj 496 256 s BUTTON_OUT1A;
#X obj 596 256 s BUTTON_OUT1B;
#X obj 696 256 s BUTTON_OUT1C;
#X msg 796 220 40;
#X msg 896 220 41;
#X msg 996 220 42;
#X obj 796 256 s BUTTON_OUT2A;
#X obj 896 256 s BUTTON_OUT2B;
#X obj 996 256 s BUTTON_OUT2C;
#X connect 0 0 24 0;
#X connect 0 0 4 0;
#X connect 0 0 5 0;
#X connect 0 0 6 0;
#X connect 0 0 9 0;
#X connect 0 0 12 0;
#X connect 0 0 11 0;
#X connect 0 0 17 0;
#X connect 0 0 16 0;
#X connect 0 0 19 0;
#X connect 0 0 20 0;
#X connect 0 0 23 0;
#X connect 0 0 26 0;
#X connect 0 0 27 0;
#X connect 0 0 30 0;
#X connect 0 0 31 0;
#X connect 0 0 32 0;
#X connect 0 0 36 0;
#X connect 0 0 37 0;
#X connect 0 0 38 0;
#X connect 0 0 42 0;
#X connect 0 0 43 0;
#X connect 0 0 44 0;
#X connect 1 0 24 0;
#X connect 1 0 4 0;
#X connect 1 0 5 0;
#X connect 1 0 6 0;
#X connect 1 0 9 0;
#X connect 1 0 11 0;
#X connect 1 0 12 0;
#X connect 1 0 16 0;
#X connect 1 0 17 0;
#X connect 1 0 19 0;
#X connect 1 0 20 0;
#X connect 1 0 23 0;
#X connect 1 0 26 0;
#X connect 1 0 27 0;
#X connect 1 0 30 0;
#X connect 1 0 31 0;
#X connect 1 0 32 0;
#X connect 1 0 36 0;
#X connect 1 0 37 0;
#X connect 1 0 38 0;
#X connect 1 0 42 0;
#X connect 1 0 43 0;
#X connect 1 0 44 0;
#X connect 4 0 2 0;
#X connect 5 0 3 0;
#X connect 6 0 7 0;
#X connect 9 0 8 0;
#X connect 11 0 10 0;
#X connect 12 0 13 0;
#X connect 16 0 14 0;
#X connect 17 0 15 0;
#X connect 19 0 18 0;
#X connect 20 0 21 0;
#X connect 23 0 22 0;
#X connect 24 0 25 0;
#X connect 26 0 28 0;
#X connect 27 0 29 0;
#X connect 30 0 33 0;
#X connect 31 0 34 0;
#X connect 32 0 35 0;
#X connect 36 0 39 0;
#X connect 37 0 40 0;
#X connect 38 0 41 0;
#X connect 42 0 45 0;
#X connect 43 0 46 0;
#X connect 44 0 47 0;
#X restore 48 526 pd midiSetup;
#X obj 158 183 div 13;
#X obj 425 184 div 8;
#X obj 526 183 div 8;
#X obj 636 156 spigot;
#X floatatom 636 210 5 0 0 0 - - -;
#X obj 659 234 !=;
#X obj 636 256 spigot;
#X obj 639 98 ==;
#X obj 634 57 r SLIDER_SELECT;
#X obj 425 282 s r_gen1;
#X obj 525 282 s r_gen_b1;
#X obj 246 282 s r_fx1;
#X obj 337 282 s r_fx_b1;
#X obj 158 282 s r_mix1;
#X obj 636 283 s r_current_visual;
#X obj 636 183 div 28;
#X obj 204 349 r BUTTON_RANDOM;
#X obj 239 380 ==;
#X floatatom 239 413 5 0 0 0 - - -;
#X obj 111 410 >;
#X floatatom 144 394 5 0 0 0 - - -;
#X floatatom 177 427 5 0 0 0 - - -;
#X obj 239 443 &;
#X floatatom 239 473 5 0 0 0 - - -;
#X obj 239 501 moses 1;
#X obj 239 528 s r_rnd_do;
#X obj 1160 54 r FADER_ROTOZ;
#X obj 1159 155 spigot;
#X obj 1192 98 ==;
#X obj 1159 231 s r_rotozoom_angle;
#X obj 1159 183 * 2;
#X obj 1159 207 - 127;
#X obj 308 350 r BUTTON_RON;
#X obj 398 350 r BUTTON_ROFF;
#X obj 321 380 ==;
#X floatatom 321 413 5 0 0 0 - - -;
#X obj 321 443 &;
#X floatatom 321 473 5 0 0 0 - - -;
#X obj 321 501 moses 1;
#X obj 421 380 ==;
#X floatatom 421 413 5 0 0 0 - - -;
#X obj 421 443 &;
#X floatatom 421 473 5 0 0 0 - - -;
#X obj 421 501 moses 1;
#X obj 321 528 s r_rnd_on;
#X obj 421 528 s r_rnd_off;
#X obj 521 380 ==;
#X floatatom 521 413 5 0 0 0 - - -;
#X obj 521 443 &;
#X floatatom 521 473 5 0 0 0 - - -;
#X obj 521 501 moses 1;
#X obj 497 350 r BUTTON_OUTP1;
#X obj 646 581 s r_outall;
#X obj 524 528 bng 15 250 50 0 empty empty empty 17 7 0 10 -262144
-1 -1;
#X msg 550 543 0;
#X obj 621 380 ==;
#X floatatom 621 413 5 0 0 0 - - -;
#X obj 621 443 &;
#X floatatom 621 473 5 0 0 0 - - -;
#X obj 621 501 moses 1;
#X obj 624 528 bng 15 250 50 0 empty empty empty 17 7 0 10 -262144
-1 -1;
#X obj 597 350 r BUTTON_OUTP2;
#X msg 650 543 1;
#X obj 721 380 ==;
#X floatatom 721 413 5 0 0 0 - - -;
#X obj 721 443 &;
#X floatatom 721 473 5 0 0 0 - - -;
#X obj 721 501 moses 1;
#X obj 724 528 bng 15 250 50 0 empty empty empty 17 7 0 10 -262144
-1 -1;
#X msg 750 543 2;
#X obj 697 350 r BUTTON_OUTP3;
#X obj 821 380 ==;
#X floatatom 821 413 5 0 0 0 - - -;
#X obj 821 443 &;
#X floatatom 821 473 5 0 0 0 - - -;
#X obj 821 501 moses 1;
#X obj 824 528 bng 15 250 50 0 empty empty empty 17 7 0 10 -262144
-1 -1;
#X obj 921 380 ==;
#X floatatom 921 413 5 0 0 0 - - -;
#X obj 921 443 &;
#X floatatom 921 473 5 0 0 0 - - -;
#X obj 921 501 moses 1;
#X obj 924 528 bng 15 250 50 0 empty empty empty 17 7 0 10 -262144
-1 -1;
#X obj 1021 380 ==;
#X floatatom 1021 413 5 0 0 0 - - -;
#X obj 1021 443 &;
#X floatatom 1021 473 5 0 0 0 - - -;
#X obj 1021 501 moses 1;
#X obj 1024 528 bng 15 250 50 0 empty empty empty 17 7 0 10 -262144
-1 -1;
#X obj 797 350 r BUTTON_OUT1A;
#X obj 897 350 r BUTTON_OUT1B;
#X obj 997 350 r BUTTON_OUT1C;
#X obj 1121 380 ==;
#X floatatom 1121 413 5 0 0 0 - - -;
#X obj 1121 443 &;
#X floatatom 1121 473 5 0 0 0 - - -;
#X obj 1121 501 moses 1;
#X obj 1124 528 bng 15 250 50 0 empty empty empty 17 7 0 10 -262144
-1 -1;
#X obj 1221 380 ==;
#X floatatom 1221 413 5 0 0 0 - - -;
#X obj 1221 443 &;
#X floatatom 1221 473 5 0 0 0 - - -;
#X obj 1221 501 moses 1;
#X obj 1224 528 bng 15 250 50 0 empty empty empty 17 7 0 10 -262144
-1 -1;
#X obj 1321 380 ==;
#X floatatom 1321 413 5 0 0 0 - - -;
#X obj 1321 443 &;
#X floatatom 1321 473 5 0 0 0 - - -;
#X obj 1321 501 moses 1;
#X obj 1324 528 bng 15 250 50 0 empty empty empty 17 7 0 10 -262144
-1 -1;
#X obj 1097 350 r BUTTON_OUT2A;
#X obj 1199 350 r BUTTON_OUT2B;
#X obj 1297 350 r BUTTON_OUT2C;
#X msg 850 543 0;
#X msg 950 543 1;
#X msg 1050 543 2;
#X msg 1148 543 0;
#X msg 1248 543 1;
#X msg 1348 543 2;
#X obj 1244 581 s r_out2;
#X obj 946 581 s r_out1;
#X connect 0 0 1 0;
#X connect 0 1 2 0;
#X connect 0 2 3 0;
#X connect 1 0 44 0;
#X connect 1 0 82 0;
#X connect 1 0 99 0;
#X connect 1 0 104 0;
#X connect 1 0 111 0;
#X connect 1 0 120 0;
#X connect 1 0 128 0;
#X connect 1 0 136 0;
#X connect 1 0 142 0;
#X connect 1 0 148 0;
#X connect 1 0 157 0;
#X connect 1 0 163 0;
#X connect 1 0 169 0;
#X connect 2 0 84 0;
#X connect 4 0 5 0;
#X connect 4 1 6 0;
#X connect 4 2 7 0;
#X connect 5 0 16 0;
#X connect 5 0 9 0;
#X connect 5 0 10 0;
#X connect 5 0 12 0;
#X connect 5 0 13 0;
#X connect 5 0 21 0;
#X connect 5 0 23 0;
#X connect 5 0 22 0;
#X connect 5 0 26 0;
#X connect 5 0 68 0;
#X connect 5 0 92 0;
#X connect 6 0 47 0;
#X connect 6 0 49 0;
#X connect 6 0 54 0;
#X connect 6 0 55 0;
#X connect 6 0 58 0;
#X connect 6 0 59 0;
#X connect 6 0 60 0;
#X connect 6 0 62 0;
#X connect 6 0 48 0;
#X connect 6 0 72 0;
#X connect 6 0 93 0;
#X connect 9 0 17 0;
#X connect 10 0 18 0;
#X connect 12 0 19 0;
#X connect 13 0 20 0;
#X connect 16 0 67 0;
#X connect 17 0 8 0;
#X connect 18 0 11 0;
#X connect 19 0 14 0;
#X connect 20 0 15 0;
#X connect 21 0 66 0;
#X connect 22 0 25 0;
#X connect 23 0 24 0;
#X connect 24 0 30 0;
#X connect 24 0 31 1;
#X connect 25 0 33 0;
#X connect 25 0 34 1;
#X connect 26 0 65 0;
#X connect 27 0 28 0;
#X connect 27 0 29 0;
#X connect 28 0 29 1;
#X connect 29 0 75 0;
#X connect 30 0 31 0;
#X connect 30 0 32 0;
#X connect 31 0 32 1;
#X connect 32 0 76 0;
#X connect 33 0 34 0;
#X connect 33 0 35 0;
#X connect 34 0 35 1;
#X connect 35 0 77 0;
#X connect 36 0 37 0;
#X connect 36 0 38 0;
#X connect 37 0 38 1;
#X connect 38 0 74 0;
#X connect 39 0 40 0;
#X connect 39 0 41 0;
#X connect 40 0 41 1;
#X connect 41 0 78 0;
#X connect 45 0 47 1;
#X connect 46 0 48 1;
#X connect 47 0 10 1;
#X connect 48 0 12 1;
#X connect 49 0 13 1;
#X connect 50 0 49 1;
#X connect 51 0 62 1;
#X connect 52 0 59 1;
#X connect 53 0 60 1;
#X connect 54 0 26 1;
#X connect 55 0 23 1;
#X connect 56 0 55 1;
#X connect 57 0 58 1;
#X connect 58 0 22 1;
#X connect 59 0 21 1;
#X connect 60 0 16 1;
#X connect 61 0 54 1;
#X connect 62 0 9 1;
#X connect 65 0 39 0;
#X connect 65 0 40 1;
#X connect 66 0 36 0;
#X connect 66 0 37 1;
#X connect 67 0 27 0;
#X connect 67 0 28 1;
#X connect 68 0 80 0;
#X connect 69 0 70 0;
#X connect 69 0 71 0;
#X connect 70 0 71 1;
#X connect 71 0 79 0;
#X connect 72 0 68 1;
#X connect 73 0 72 1;
#X connect 80 0 69 0;
#X connect 80 0 70 1;
#X connect 81 0 82 1;
#X connect 82 0 83 0;
#X connect 83 0 87 0;
#X connect 84 0 86 0;
#X connect 85 0 84 1;
#X connect 86 0 87 1;
#X connect 86 0 101 1;
#X connect 86 0 106 1;
#X connect 86 0 113 1;
#X connect 86 0 122 1;
#X connect 86 0 130 1;
#X connect 86 0 138 1;
#X connect 86 0 144 1;
#X connect 86 0 150 1;
#X connect 86 0 159 1;
#X connect 86 0 165 1;
#X connect 86 0 171 1;
#X connect 87 0 88 0;
#X connect 88 0 89 0;
#X connect 89 1 90 0;
#X connect 91 0 93 1;
#X connect 92 0 95 0;
#X connect 93 0 92 1;
#X connect 95 0 96 0;
#X connect 96 0 94 0;
#X connect 97 0 99 1;
#X connect 98 0 104 1;
#X connect 99 0 100 0;
#X connect 100 0 101 0;
#X connect 101 0 102 0;
#X connect 102 0 103 0;
#X connect 103 1 109 0;
#X connect 104 0 105 0;
#X connect 105 0 106 0;
#X connect 106 0 107 0;
#X connect 107 0 108 0;
#X connect 108 1 110 0;
#X connect 111 0 112 0;
#X connect 112 0 113 0;
#X connect 113 0 114 0;
#X connect 114 0 115 0;
#X connect 115 1 118 0;
#X connect 116 0 111 1;
#X connect 118 0 119 0;
#X connect 119 0 117 0;
#X connect 120 0 121 0;
#X connect 121 0 122 0;
#X connect 122 0 123 0;
#X connect 123 0 124 0;
#X connect 124 1 125 0;
#X connect 125 0 127 0;
#X connect 126 0 120 1;
#X connect 127 0 117 0;
#X connect 128 0 129 0;
#X connect 129 0 130 0;
#X connect 130 0 131 0;
#X connect 131 0 132 0;
#X connect 132 1 133 0;
#X connect 133 0 134 0;
#X connect 134 0 117 0;
#X connect 135 0 128 1;
#X connect 136 0 137 0;
#X connect 137 0 138 0;
#X connect 138 0 139 0;
#X connect 139 0 140 0;
#X connect 140 1 141 0;
#X connect 141 0 178 0;
#X connect 142 0 143 0;
#X connect 143 0 144 0;
#X connect 144 0 145 0;
#X connect 145 0 146 0;
#X connect 146 1 147 0;
#X connect 147 0 179 0;
#X connect 148 0 149 0;
#X connect 149 0 150 0;
#X connect 150 0 151 0;
#X connect 151 0 152 0;
#X connect 152 1 153 0;
#X connect 153 0 180 0;
#X connect 154 0 136 1;
#X connect 155 0 142 1;
#X connect 156 0 148 1;
#X connect 157 0 158 0;
#X connect 158 0 159 0;
#X connect 159 0 160 0;
#X connect 160 0 161 0;
#X connect 161 1 162 0;
#X connect 162 0 181 0;
#X connect 163 0 164 0;
#X connect 164 0 165 0;
#X connect 165 0 166 0;
#X connect 166 0 167 0;
#X connect 167 1 168 0;
#X connect 168 0 182 0;
#X connect 169 0 170 0;
#X connect 170 0 171 0;
#X connect 171 0 172 0;
#X connect 172 0 173 0;
#X connect 173 1 174 0;
#X connect 174 0 183 0;
#X connect 175 0 157 1;
#X connect 176 0 163 1;
#X connect 177 0 169 1;
#X connect 178 0 185 0;
#X connect 179 0 185 0;
#X connect 180 0 185 0;
#X connect 181 0 184 0;
#X connect 182 0 184 0;
#X connect 183 0 184 0;
#X restore 93 184 pd midi;
#N canvas 458 53 786 268 keyboard 0;
#X obj 36 27 keyup;
#X obj 59 142 0;
#X obj 93 143 1;
#X obj 130 144 2;
#X obj 165 144 3;
#X obj 201 143 4;
#X obj 223 168 bng 15 250 50 0 empty empty empty 17 7 0 10 -262144
-1 -1;
#X obj 223 193 s r_rnd_do;
#X obj 31 186 s r_outall;
#X floatatom 29 84 5 0 0 0 - - -;
#X text 115 68 Keys: 1 2 3 4 5 R;
#X obj 459 85 route 177 8220 35 199 91;
#X obj 429 133 0;
#X obj 463 133 1;
#X obj 500 133 2;
#X obj 535 133 3;
#X obj 571 133 4;
#X text 469 64 Keys: ALT + 1 2 3 4 5;
#X obj 111 86 route 49 50 51 52 53 82 115;
#X obj 259 149 s r_tgl_emulate;
#X obj 259 122 0;
#X obj 64 210 s r_current_visual;
#X obj 482 179 s r_output_visual_all;
#X connect 0 0 9 0;
#X connect 0 0 18 0;
#X connect 1 0 8 0;
#X connect 1 0 21 0;
#X connect 2 0 8 0;
#X connect 2 0 21 0;
#X connect 3 0 8 0;
#X connect 3 0 21 0;
#X connect 4 0 8 0;
#X connect 4 0 21 0;
#X connect 5 0 8 0;
#X connect 5 0 21 0;
#X connect 6 0 7 0;
#X connect 11 0 12 0;
#X connect 11 1 13 0;
#X connect 11 2 14 0;
#X connect 11 3 15 0;
#X connect 11 4 16 0;
#X connect 12 0 22 0;
#X connect 13 0 22 0;
#X connect 14 0 22 0;
#X connect 15 0 22 0;
#X connect 16 0 22 0;
#X connect 18 0 1 0;
#X connect 18 1 2 0;
#X connect 18 2 3 0;
#X connect 18 3 4 0;
#X connect 18 4 5 0;
#X connect 18 5 6 0;
#X connect 18 6 20 0;
#X connect 18 7 11 0;
#X connect 20 0 19 0;
#X restore 92 157 pd keyboard;
#N canvas 0 22 324 262 pad 0;
#N canvas 90 22 1046 592 xypad 0;
#X floatatom 223 65 5 0 0 3 x_pos - -;
#X floatatom 222 108 5 0 0 3 y_pos - -;
#X obj 308 255 int;
#X floatatom 574 206 5 0 0 0 - - -;
#X obj 574 182 int;
#X text 559 119 generator;
#X floatatom 697 206 5 0 0 0 - - -;
#X obj 697 182 int;
#X text 698 120 fx;
#X obj 697 158 / 30;
#X obj 574 158 / 18;
#X floatatom 437 359 5 0 0 0 - - -;
#X obj 437 293 > 89;
#X text 437 264 gen1;
#X text 547 259 fx1;
#X obj 529 289 > 79;
#X floatatom 529 312 5 0 0 0 - - -;
#X floatatom 568 312 5 0 0 0 - - -;
#X obj 568 289 < 90;
#X obj 546 333 &;
#X floatatom 545 361 5 0 0 0 - - -;
#X floatatom 663 312 5 0 0 0 - - -;
#X floatatom 702 312 5 0 0 0 - - -;
#X obj 680 333 &;
#X floatatom 679 361 5 0 0 0 - - -;
#X text 681 259 gen2;
#X obj 702 289 < 80;
#X obj 663 289 > 69;
#X floatatom 784 312 5 0 0 0 - - -;
#X floatatom 823 312 5 0 0 0 - - -;
#X obj 801 333 &;
#X floatatom 800 361 5 0 0 0 - - -;
#X obj 777 333 bng 15 250 50 0 empty empty empty 17 7 0 10 -262144
-1 -1;
#X text 802 259 fx2;
#X obj 784 289 > 59;
#X obj 823 289 < 70;
#X obj 512 391 spigot;
#X obj 404 390 spigot;
#X obj 404 416 s r_gen1;
#X obj 512 417 s r_fx1;
#X obj 767 390 spigot;
#X obj 767 416 s r_fx_b1;
#X obj 646 390 spigot;
#X obj 646 415 s r_gen_b1;
#X floatatom 917 312 5 0 0 0 - - -;
#X floatatom 956 312 5 0 0 0 - - -;
#X obj 934 333 &;
#X floatatom 933 361 5 0 0 0 - - -;
#X obj 910 333 bng 15 250 50 0 empty empty empty 17 7 0 10 -262144
-1 -1;
#X obj 900 390 spigot;
#X obj 956 289 < 60;
#X obj 917 289 > 49;
#X text 935 259 mixer;
#X obj 900 416 s r_mix1;
#X floatatom 889 210 5 0 0 0 - - -;
#X obj 889 186 int;
#X text 890 124 mixer;
#X obj 889 162 / 26;
#X obj 139 321 cursor;
#X obj 139 347 route motion;
#X obj 139 378 route x y;
#X obj 29 218 tgl 15 0 empty r_tgl_emulate emulate_xy_pad_with_mouse
17 7 0 10 -262144 -1 -1 0 1;
#X obj 139 443 mod 256;
#X obj 10 10 grid grid1 200 0 255 200 0 99 1 1 1 10 10 143 57;
#X obj 164 414 mod 100;
#X obj 656 333 bng 15 250 50 0 empty empty empty 17 7 0 10 -262144
-1 -1;
#X obj 516 334 bng 15 250 50 0 empty empty empty 17 7 0 10 -262144
-1 -1;
#X obj 240 257 int;
#X obj 307 15 r xypad_x;
#X obj 307 45 r xypad_y;
#X connect 0 0 9 0;
#X connect 0 0 10 0;
#X connect 0 0 57 0;
#X connect 1 0 12 0;
#X connect 1 0 15 0;
#X connect 1 0 18 0;
#X connect 1 0 26 0;
#X connect 1 0 27 0;
#X connect 1 0 34 0;
#X connect 1 0 35 0;
#X connect 1 0 51 0;
#X connect 1 0 50 0;
#X connect 2 0 1 0;
#X connect 3 0 42 0;
#X connect 3 0 37 0;
#X connect 4 0 3 0;
#X connect 6 0 36 0;
#X connect 6 0 40 0;
#X connect 7 0 6 0;
#X connect 9 0 7 0;
#X connect 10 0 4 0;
#X connect 11 0 37 1;
#X connect 12 0 11 0;
#X connect 15 0 16 0;
#X connect 16 0 19 0;
#X connect 17 0 19 1;
#X connect 17 0 66 0;
#X connect 18 0 17 0;
#X connect 19 0 20 0;
#X connect 20 0 36 1;
#X connect 21 0 23 0;
#X connect 22 0 23 1;
#X connect 22 0 65 0;
#X connect 23 0 24 0;
#X connect 24 0 42 1;
#X connect 26 0 22 0;
#X connect 27 0 21 0;
#X connect 28 0 30 0;
#X connect 29 0 30 1;
#X connect 29 0 32 0;
#X connect 30 0 31 0;
#X connect 31 0 40 1;
#X connect 32 0 30 0;
#X connect 34 0 28 0;
#X connect 35 0 29 0;
#X connect 36 0 39 0;
#X connect 37 0 38 0;
#X connect 40 0 41 0;
#X connect 42 0 43 0;
#X connect 44 0 46 0;
#X connect 45 0 46 1;
#X connect 45 0 48 0;
#X connect 46 0 47 0;
#X connect 47 0 49 1;
#X connect 48 0 46 0;
#X connect 49 0 53 0;
#X connect 50 0 45 0;
#X connect 51 0 44 0;
#X connect 54 0 49 0;
#X connect 55 0 54 0;
#X connect 57 0 55 0;
#X connect 58 0 59 0;
#X connect 59 0 60 0;
#X connect 60 0 62 0;
#X connect 60 1 64 0;
#X connect 61 0 58 0;
#X connect 62 0 0 0;
#X connect 63 0 67 0;
#X connect 63 1 2 0;
#X connect 64 0 1 0;
#X connect 65 0 23 0;
#X connect 66 0 19 0;
#X connect 67 0 0 0;
#X connect 68 0 0 0;
#X connect 69 0 1 0;
#X coords 0 -1 1 1 250 230 1 10 10;
#X restore 19 22 pd xypad;
#X restore 94 211 pd pad;
#X obj 216 13 vradio 15 1 0 10 s_fx_output1 r_fx_output1 Effect 0 -8
0 12 -262130 -1 -1 6;
#X text 237 11 Off;
#X text 236 27 Inverter;
#X text 237 42 Rotozoom;
#X text 237 57 Beat Shift H;
#X text 237 73 Beat Shift V;
#X text 237 87 Voluminize;
#X text 237 117 Threshold;
#X text 237 102 Tint;
#X text 238 131 Emboss;
#X text 238 147 Zoom;
#X obj 328 13 vradio 15 1 0 4 s_fader1 r_fader1 Fader 0 -8 0 12 -204800
-1 -1 0;
#X text 347 11 Off;
#X text 346 27 Crossfade;
#X text 347 42 Upside Down;
#X text 347 57 Left to right;
#X text -169 233 ScreenCapture;
#N canvas 423 222 836 305 output4all 0;
#X obj 50 50 cnv 15 220 200 empty empty //All_Outputs 20 12 0 14 -257985
-66577 0;
#X obj 167 222 hradio 15 1 0 5 s_output_visual_all r_output_visual_all
Visual_Nr 0 -8 0 12 -261682 -1 -1 0;
#X obj 59 93 vradio 15 1 0 10 s_output_fx_all r_output_fx_all Effect
0 -8 0 12 -262130 -1 -1 0;
#X text 80 91 Off;
#X text 79 107 Inverter;
#X text 80 122 Rotozoom;
#X text 80 137 Beat Shift H;
#X text 80 153 Beat Shift V;
#X text 80 167 Voluminize;
#X text 80 197 Threshold;
#X text 80 182 Tint;
#X text 81 211 Emboss;
#X text 81 227 Zoom;
#X obj 167 93 vradio 15 1 0 4 s_output_fader_all r_output_fader_all
Fader 0 -8 0 12 -204800 -1 -1 0;
#X text 186 91 Off;
#X text 185 107 Crossfade;
#X text 186 122 Upside Down;
#X text 186 137 Left to right;
#X coords 0 -1 1 1 220 200 1 50 50;
#X restore 528 -31 pd output4all;
#X text -54 233 ScreenCapture;
#X text -169 249 ColorFade;
#X text -54 249 ColorFade;
#X text -170 68 ColorScroll;
#X text -55 68 ColorScroll;
#N canvas 449 153 736 507 generator 0;
#X obj 4 4 cnv 15 150 266 empty empty blinken 20 12 0 14 -203904 -66577
0;
#X obj 16 241 send blinkenfile;
#X obj 160 4 cnv 15 150 266 empty empty image 20 12 0 14 -203904 -66577
0;
#X obj 172 241 send image;
#X obj 135 8 tgl 15 0 s_rndsel_blinken r_rndsel_blinken empty 17 7
0 10 -260097 -1 -1 1 1;
#X obj 290 8 tgl 15 0 s_rndsel_image r_rndsel_image empty 17 7 0 10
-260097 -1 -1 1 1;
#X obj 316 4 cnv 15 180 266 empty empty texturedeform 20 12 0 14 -203904
-66577 0;
#X obj 326 241 send change_lut;
#X obj 320 34 bng 15 250 50 0 s_td_5 empty tunnel 17 7 0 10 -262144
-1 -1;
#X obj 320 53 bng 15 250 50 0 s_td_7 empty cloud 17 7 0 10 -262144
-1 -1;
#X obj 384 34 bng 15 250 50 0 s_td_9 empty circle 17 7 0 10 -262144
-1 -1;
#X obj 384 53 bng 15 250 50 0 s_td_10 empty spiral 17 7 0 10 -262144
-1 -1;
#X obj 450 34 bng 15 250 50 0 s_td_4 empty star 17 7 0 10 -262144 -1
-1;
#X obj 450 53 bng 15 250 50 0 s_td_11 empty 3d 17 7 0 10 -262144 -1
-1;
#X obj 477 8 tgl 15 0 s_rndsel_textdef r_rndsel_textdef empty 17 7
0 10 -260097 -1 -1 1 1;
#X obj 552 277 cnv 15 170 80 empty empty textwriter 20 12 0 14 -203904
-66577 0;
#X obj 567 325 send textwriter;
#X msg 16 28 torus.bml;
#X msg 16 49 bnf_auge.bml;
#X msg 16 70 bb-frogskin2.bml;
#X msg 16 91 bb-rauten2.bml;
#X msg 16 112 bb-spiral2fast.bml;
#X msg 172 34 circle.jpg;
#X msg 172 55 half.jpg;
#X msg 172 76 gradient.jpg;
#X msg 172 97 check.jpg;
#X msg 326 78 ceiling.jpg;
#X msg 326 120 circle.jpg;
#X msg 326 141 gradient.jpg;
#X msg 326 99 1316.jpg;
#X msg 172 133 hsv.jpg;
#X msg 172 154 hls.jpg;
#X msg 16 133 flatter_flatter.bml;
#X msg 16 154 badtv.bml;
#X msg 172 188 right.jpg;
#X msg 326 162 check.jpg;
#X msg 417 139 hsv.jpg;
#X msg 417 160 hls.jpg;
#X msg 16 175 kreise-versetzt.bml;
#X msg 40 207 blender.bml;
#X msg 193 213 ff-logo-small.jpg;
#X msg 242 188 logo.gif;
#X msg 567 304 DEMODAYS 2011;
#X obj 502 4 cnv 15 220 266 empty empty colorscroll 20 12 0 14 -203904
-66577 0;
#X obj 551 249 send color_scroll;
#X obj 509 34 vradio 15 1 1 14 empty empty empty 0 -8 0 10 -262144
-1 -1 13;
#X text 529 33 Left to right;
#X text 529 49 Right to left;
#X text 529 64 Top to Bottom;
#X text 530 79 Bottom to Top;
#X text 529 94 Right bottom to left top;
#X text 529 108 Left bottom to right top;
#X text 530 124 Right top to left bottom;
#X text 530 139 Left top to right bottom;
#X text 530 155 Middle to sides vertical;
#X text 530 171 Sides to middle vertical;
#X text 530 200 Sides to middle horizontal;
#X text 530 186 Middle to sides horizontal;
#X text 530 214 Explode Circle;
#X text 530 230 Implode Circle;
#X obj 703 8 tgl 15 0 s_rndsel_colorscroll r_rndsel_colorscroll empty
17 7 0 10 -260097 -1 -1 1 1;
#X obj 5 277 cnv 15 539 216 empty empty color_maps 20 12 0 14 -203904
-66577 0;
#X text 113 281 Define colors in hex \, no whitespaces \, use _ as
seperator;
#X obj 355 385 send color_scroll_map;
#X obj 16 384 send color_fade_map;
#X obj 16 434 send plasma_map;
#X obj 552 365 cnv 15 170 128 empty empty fade_length 20 12 0 14 -203904
-66577 0;
#X obj 568 397 nbx 3 14 1 500 0 0 empty empty empty 0 -8 0 10 -262144
-1 -1 1 256;
#X obj 568 447 nbx 3 14 1 500 0 0 empty empty empty 0 -8 0 10 -262144
-1 -1 1 256;
#X obj 568 417 send color_scroll_length;
#X obj 568 467 send color_fade_length;
#X msg 16 412 0xffff00_0x000000_0x0000ff_0x000000;
#X msg 16 362 0x00ff00_0xff00ff;
#X msg 186 332 0xF5B71E_0xa87e14_0x51a9c2_0xd1f5ff_0x0a0a0a_0xf5f5f5
;
#X msg 326 185 logo.gif;
#X msg 16 312 0xffffff_0xFF12D4_0xB35482_0x000000;
#X connect 17 0 1 0;
#X connect 18 0 1 0;
#X connect 19 0 1 0;
#X connect 20 0 1 0;
#X connect 21 0 1 0;
#X connect 22 0 3 0;
#X connect 23 0 3 0;
#X connect 24 0 3 0;
#X connect 25 0 3 0;
#X connect 26 0 7 0;
#X connect 27 0 7 0;
#X connect 28 0 7 0;
#X connect 29 0 7 0;
#X connect 30 0 3 0;
#X connect 31 0 3 0;
#X connect 32 0 1 0;
#X connect 33 0 1 0;
#X connect 34 0 3 0;
#X connect 35 0 7 0;
#X connect 36 0 7 0;
#X connect 37 0 7 0;
#X connect 38 0 1 0;
#X connect 39 0 1 0;
#X connect 40 0 3 0;
#X connect 41 0 3 0;
#X connect 42 0 16 0;
#X connect 45 0 44 0;
#X connect 67 0 69 0;
#X connect 68 0 70 0;
#X connect 71 0 65 0;
#X connect 72 0 64 0;
#X connect 73 0 63 0;
#X connect 73 0 64 0;
#X connect 74 0 7 0;
#X connect 75 0 63 0;
#X restore 93 128 pd generator;
#N canvas 51 22 1219 625 osc 0;
#X obj -146 39 unpackOSC;
#X obj -146 8 udpreceive 4443;
#X floatatom -76 65 3 0 0 0 - - -;
#X floatatom -49 65 3 0 0 0 - - -;
#X floatatom -22 65 3 0 0 0 - - -;
#X floatatom 5 65 3 0 0 0 - - -;
#X text -119 64 from;
#X floatatom 33 65 5 0 0 0 - - -;
#X obj -76 39 unpack 0 0 0 0 0;
#X obj 33 91 > 0;
#X floatatom 33 119 5 0 0 0 - - -;
#X obj -32 252 * 255;
#X obj 8 252 int;
#X obj -32 274 s r_tint_b;
#X obj -146 252 * 255;
#X obj -106 252 int;
#X obj -146 274 s r_tint_r;
#X obj -77 302 * 255;
#X obj -37 302 int;
#X obj -77 324 s r_tint_g;
#X obj 280 91 routeOSC /0 /1;
#X floatatom 280 140 5 0 0 0 - - -;
#X obj 400 91 routeOSC /0 /1;
#X obj 280 115 int;
#X obj 264 164 s r_gen1;
#X floatatom 327 140 5 0 0 0 - - -;
#X obj 327 115 int;
#X obj 327 164 s r_gen_b1;
#X obj 280 41 routeOSC /SliderGen /SliderEffect /SliderMix;
#X floatatom 418 140 5 0 0 0 - - -;
#X obj 418 115 int;
#X floatatom 465 140 5 0 0 0 - - -;
#X obj 465 115 int;
#X obj 465 164 s r_fx_b1;
#X obj 402 164 s r_fx1;
#X floatatom 535 110 5 0 0 0 - - -;
#X obj 535 85 int;
#X obj 535 134 s r_mix1;
#X obj 591 186 s r_rnd_on;
#X floatatom 601 109 5 0 0 0 - - -;
#X obj 601 85 int;
#X obj 596 162 s r_rnd_off;
#X obj 601 138 moses 1;
#X obj 672 274 s r_output_fx_all;
#X msg 672 243 6;
#X obj -139 450 s r_rnd_do;
#X obj -38 450 s r_rnd_pres;
#X obj -139 375 routeOSC /fireRandomButton /fireRandomPresentButton
/VisualNr;
#X obj 63 421 int;
#X floatatom 63 447 5 0 0 0 - - -;
#X obj 63 493 spigot;
#X floatatom 113 447 5 0 0 0 - - -;
#X obj 96 471 !=;
#X obj 63 518 s r_current_visual;
#X obj 638 9 import mrpeach;
#X obj 221 570 s r_output_visual_all;
#X obj 276 541 s r_output_visual_all;
#X obj -146 220 routeOSC /knobR /knobG /knobB /knobThreshold /knobRotozoom
;
#X obj 61 302 * 255;
#X obj 101 302 int;
#X obj 61 324 s r_threshold;
#X obj 108 252 * 255;
#X obj 199 252 int;
#X obj 108 274 s r_rotozoom_angle;
#X obj 154 251 - 127;
#X obj 601 41 routeOSC /randomToggleButton /activateTintButton /activateTresholdButton
/activateRotozoomButton;
#X obj 743 195 s r_output_fx_all;
#X msg 743 164 7;
#X obj 814 134 s r_output_fx_all;
#X msg 814 103 2;
#X obj 332 412 unpack s i;
#X floatatom 374 464 5 0 0 0 - - -;
#X obj 332 438 symbol2list /;
#X obj 332 484 int;
#X floatatom 428 481 5 0 0 0 - - -;
#X floatatom 443 407 5 0 0 0 - - -;
#X obj 443 432 moses 1;
#X obj 428 506 moses 1;
#X obj 428 533 s r_load_preset;
#X obj 443 459 s r_save_preset;
#X obj -139 418 bng 15 250 50 0 empty empty empty 17 7 0 10 -262144
-1 -1;
#X obj -38 418 bng 15 250 50 0 empty empty empty 17 7 0 10 -262144
-1 -1;
#X obj 221 433 bng 15 250 50 0 empty empty empty 17 7 0 10 -262144
-1 -1;
#X obj 276 433 bng 15 250 50 0 empty empty empty 17 7 0 10 -262144
-1 -1;
#X obj 221 369 routeOSC /visualOneToAll /visualTwoToAll /currentPresent
/loadPresent /savePresent /visualThreeToAll;
#X obj 293 512 s r_selected_preset;
#X obj 556 521 s r_output_visual_all;
#X obj 556 413 bng 15 250 50 0 empty empty empty 17 7 0 10 -262144
-1 -1;
#X msg 556 446 2;
#X msg 221 466 0;
#X msg 276 466 1;
#X obj 672 215 bng 15 250 50 0 empty empty empty 17 7 0 10 -262144
-1 -1;
#X obj 814 75 bng 15 250 50 0 empty empty empty 17 7 0 10 -262144 -1
-1;
#X obj 743 132 bng 15 250 50 0 empty empty empty 17 7 0 10 -262144
-1 -1;
#X obj 652 370 routeOSC /visual1To1;
#X obj 652 398 bng 15 250 50 0 empty empty empty 17 7 0 10 -262144
-1 -1;
#X msg 652 429 send CURRENT_OUTPUT 0: CHANGE_OUTPUT_VISUAL 0: CURRENT_OUTPUT
1: CHANGE_OUTPUT_VISUAL 1:;
#X obj 33 171 s oscClient;
#X obj 761 513 s to_server;
#X connect 0 0 57 0;
#X connect 1 0 8 0;
#X connect 1 0 0 0;
#X connect 7 0 9 0;
#X connect 8 0 2 0;
#X connect 8 1 3 0;
#X connect 8 2 4 0;
#X connect 8 3 5 0;
#X connect 8 4 7 0;
#X connect 9 0 10 0;
#X connect 10 0 97 0;
#X connect 11 0 12 0;
#X connect 12 0 13 0;
#X connect 14 0 15 0;
#X connect 15 0 16 0;
#X connect 17 0 18 0;
#X connect 18 0 19 0;
#X connect 20 0 23 0;
#X connect 20 1 26 0;
#X connect 21 0 24 0;
#X connect 22 0 30 0;
#X connect 22 1 32 0;
#X connect 23 0 21 0;
#X connect 25 0 27 0;
#X connect 26 0 25 0;
#X connect 28 0 20 0;
#X connect 28 1 22 0;
#X connect 28 2 36 0;
#X connect 28 3 65 0;
#X connect 29 0 34 0;
#X connect 30 0 29 0;
#X connect 31 0 33 0;
#X connect 32 0 31 0;
#X connect 35 0 37 0;
#X connect 36 0 35 0;
#X connect 39 0 42 0;
#X connect 40 0 39 0;
#X connect 42 0 38 0;
#X connect 42 1 41 0;
#X connect 44 0 43 0;
#X connect 47 0 80 0;
#X connect 47 1 81 0;
#X connect 47 2 48 0;
#X connect 47 3 84 0;
#X connect 48 0 49 0;
#X connect 49 0 50 0;
#X connect 49 0 52 0;
#X connect 50 0 51 0;
#X connect 50 0 53 0;
#X connect 51 0 52 1;
#X connect 52 0 50 1;
#X connect 57 0 14 0;
#X connect 57 1 17 0;
#X connect 57 2 11 0;
#X connect 57 3 58 0;
#X connect 57 4 61 0;
#X connect 57 5 28 0;
#X connect 58 0 59 0;
#X connect 59 0 60 0;
#X connect 61 0 64 0;
#X connect 62 0 63 0;
#X connect 64 0 62 0;
#X connect 65 0 40 0;
#X connect 65 1 91 0;
#X connect 65 2 93 0;
#X connect 65 3 92 0;
#X connect 65 4 47 0;
#X connect 67 0 66 0;
#X connect 69 0 68 0;
#X connect 70 0 72 0;
#X connect 71 0 85 0;
#X connect 72 0 73 0;
#X connect 73 0 71 0;
#X connect 74 0 77 0;
#X connect 75 0 76 0;
#X connect 76 0 79 0;
#X connect 77 0 78 0;
#X connect 80 0 45 0;
#X connect 81 0 46 0;
#X connect 82 0 89 0;
#X connect 83 0 90 0;
#X connect 84 0 82 0;
#X connect 84 1 83 0;
#X connect 84 2 70 0;
#X connect 84 3 74 0;
#X connect 84 4 75 0;
#X connect 84 5 87 0;
#X connect 84 6 94 0;
#X connect 87 0 88 0;
#X connect 88 0 86 0;
#X connect 89 0 55 0;
#X connect 90 0 56 0;
#X connect 91 0 44 0;
#X connect 92 0 69 0;
#X connect 93 0 67 0;
#X connect 94 0 95 0;
#X connect 95 0 96 0;
#X connect 96 0 98 0;
#X restore 146 211 pd osc;
#X text 85 390 Volume;
